<?xml version="1.0" encoding="utf-8" standalone="no"?>
<!DOCTYPE svg PUBLIC "-//W3C//DTD SVG 1.1//EN"
  "http://www.w3.org/Graphics/SVG/1.1/DTD/svg11.dtd">
<svg xmlns:xlink="http://www.w3.org/1999/xlink" width="460.8pt" height="345.6pt" viewBox="0 0 460.8 345.6" xmlns="http://www.w3.org/2000/svg" version="1.1">
 <metadata>
  <rdf:RDF xmlns:dc="http://purl.org/dc/elements/1.1/" xmlns:cc="http://creativecommons.org/ns#" xmlns:rdf="http://www.w3.org/1999/02/22-rdf-syntax-ns#">
   <cc:Work>
    <dc:type rdf:resource="http://purl.org/dc/dcmitype/StillImage"/>
    <dc:date>2024-07-17T13:09:57.367905</dc:date>
    <dc:format>image/svg+xml</dc:format>
    <dc:creator>
     <cc:Agent>
      <dc:title>Matplotlib v3.8.4, https://matplotlib.org/</dc:title>
     </cc:Agent>
    </dc:creator>
   </cc:Work>
  </rdf:RDF>
 </metadata>
 <defs>
  <style type="text/css">*{stroke-linejoin: round; stroke-linecap: butt}</style>
 </defs>
 <g id="figure_1">
  <g id="patch_1">
   <path d="M 0 345.6 
L 460.8 345.6 
L 460.8 0 
L 0 0 
z
" style="fill: #ffffff"/>
  </g>
  <g id="axes_1">
   <g id="patch_2">
    <path d="M 59.51 303.64 
L 450 303.64 
L 450 24.72 
L 59.51 24.72 
z
" style="fill: #ffffff"/>
   </g>
   <g id="patch_3">
    <path d="M 72.526333 303.64 
L 176.657 303.64 
L 176.657 212.851421 
L 72.526333 212.851421 
z
" clip-path="url(#pcec56a2547)" style="fill: #3470a3"/>
   </g>
   <g id="patch_4">
    <path d="M 202.689667 303.64 
L 306.820333 303.64 
L 306.820333 79.660145 
L 202.689667 79.660145 
z
" clip-path="url(#pcec56a2547)" style="fill: #79abc9"/>
   </g>
   <g id="patch_5">
    <path d="M 332.853 303.64 
L 436.983667 303.64 
L 436.983667 38.001905 
L 332.853 38.001905 
z
" clip-path="url(#pcec56a2547)" style="fill: #ccdbea"/>
   </g>
   <g id="matplotlib.axis_1">
    <g id="xtick_1">
     <g id="line2d_1">
      <defs>
       <path id="mad595bba02" d="M 0 0 
L 0 3.5 
" style="stroke: #000000; stroke-width: 0.8"/>
      </defs>
      <g>
       <use xlink:href="#mad595bba02" x="124.591667" y="303.64" style="stroke: #000000; stroke-width: 0.8"/>
      </g>
     </g>
     <g id="text_1">
      <!-- AB -->
      <g transform="translate(117.921354 317.819687) scale(0.1 -0.1)">
       <defs>
        <path id="Helvetica-41" d="M 3053 1338 
L 3507 0 
L 4186 0 
L 2522 4595 
L 1818 4595 
L 90 0 
L 730 0 
L 1210 1338 
L 3053 1338 
z
M 1402 1888 
L 2138 3910 
L 2150 3910 
L 2829 1888 
L 1402 1888 
z
" transform="scale(0.015625)"/>
        <path id="Helvetica-42" d="M 1094 4064 
L 2221 4064 
C 2912 4064 3174 3821 3174 3392 
C 3174 2829 2810 2650 2214 2650 
L 1094 2650 
L 1094 4064 
z
M 474 0 
L 2451 0 
C 3469 0 4013 621 4013 1357 
C 4013 2144 3482 2355 3181 2477 
C 3686 2714 3795 3136 3795 3437 
C 3795 4064 3354 4595 2496 4595 
L 474 4595 
L 474 0 
z
M 1094 2144 
L 2317 2144 
C 2822 2144 3392 2016 3392 1370 
C 3392 858 3066 531 2419 531 
L 1094 531 
L 1094 2144 
z
" transform="scale(0.015625)"/>
       </defs>
       <use xlink:href="#Helvetica-41"/>
       <use xlink:href="#Helvetica-42" x="66.699997"/>
      </g>
     </g>
    </g>
    <g id="xtick_2">
     <g id="line2d_2">
      <g>
       <use xlink:href="#mad595bba02" x="254.755" y="303.64" style="stroke: #000000; stroke-width: 0.8"/>
      </g>
     </g>
     <g id="text_2">
      <!-- MN -->
      <g transform="translate(246.98 317.819687) scale(0.1 -0.1)">
       <defs>
        <path id="Helvetica-4d" d="M 4870 0 
L 4870 4595 
L 3987 4595 
L 2682 710 
L 2669 710 
L 1357 4595 
L 467 4595 
L 467 0 
L 1069 0 
L 1069 2714 
C 1069 2848 1056 3430 1056 3853 
L 1069 3853 
L 2362 0 
L 2976 0 
L 4269 3859 
L 4282 3859 
C 4282 3430 4269 2848 4269 2714 
L 4269 0 
L 4870 0 
z
" transform="scale(0.015625)"/>
        <path id="Helvetica-4e" d="M 3533 883 
L 3520 883 
L 1222 4595 
L 486 4595 
L 486 0 
L 1088 0 
L 1088 3712 
L 1101 3712 
L 3437 0 
L 4134 0 
L 4134 4595 
L 3533 4595 
L 3533 883 
z
" transform="scale(0.015625)"/>
       </defs>
       <use xlink:href="#Helvetica-4d"/>
       <use xlink:href="#Helvetica-4e" x="83.299988"/>
      </g>
     </g>
    </g>
    <g id="xtick_3">
     <g id="line2d_3">
      <g>
       <use xlink:href="#mad595bba02" x="384.918333" y="303.64" style="stroke: #000000; stroke-width: 0.8"/>
      </g>
     </g>
     <g id="text_3">
      <!-- ZY -->
      <g transform="translate(378.52849 317.819687) scale(0.1 -0.1)">
       <defs>
        <path id="Helvetica-5a" d="M 3763 550 
L 934 550 
L 3763 4058 
L 3763 4595 
L 358 4595 
L 358 4045 
L 2963 4045 
L 147 518 
L 147 0 
L 3763 0 
L 3763 550 
z
" transform="scale(0.015625)"/>
        <path id="Helvetica-59" d="M 2445 1850 
L 4179 4595 
L 3450 4595 
L 2131 2387 
L 813 4595 
L 90 4595 
L 1824 1850 
L 1824 0 
L 2445 0 
L 2445 1850 
z
" transform="scale(0.015625)"/>
       </defs>
       <use xlink:href="#Helvetica-5a"/>
       <use xlink:href="#Helvetica-59" x="61.099991"/>
      </g>
     </g>
    </g>
    <g id="text_4">
     <!-- Airline -->
     <g transform="translate(240.865156 331.069687) scale(0.1 -0.1)">
      <defs>
       <path id="Helvetica-69" d="M 992 3347 
L 429 3347 
L 429 0 
L 992 0 
L 992 3347 
z
M 992 3955 
L 992 4595 
L 429 4595 
L 429 3955 
L 992 3955 
z
" transform="scale(0.015625)"/>
       <path id="Helvetica-72" d="M 1056 1946 
C 1056 2432 1389 2842 1914 2842 
L 2125 2842 
L 2125 3424 
C 2080 3437 2048 3443 1978 3443 
C 1555 3443 1261 3181 1037 2790 
L 1024 2790 
L 1024 3347 
L 493 3347 
L 493 0 
L 1056 0 
L 1056 1946 
z
" transform="scale(0.015625)"/>
       <path id="Helvetica-6c" d="M 992 4595 
L 429 4595 
L 429 0 
L 992 0 
L 992 4595 
z
" transform="scale(0.015625)"/>
       <path id="Helvetica-6e" d="M 3142 2278 
C 3142 3232 2490 3443 1971 3443 
C 1395 3443 1082 3053 960 2874 
L 947 2874 
L 947 3347 
L 416 3347 
L 416 0 
L 979 0 
L 979 1824 
C 979 2733 1542 2938 1862 2938 
C 2413 2938 2579 2643 2579 2061 
L 2579 0 
L 3142 0 
L 3142 2278 
z
" transform="scale(0.015625)"/>
       <path id="Helvetica-65" d="M 2694 1050 
C 2675 800 2362 390 1830 390 
C 1184 390 858 794 858 1491 
L 3302 1491 
C 3302 2675 2829 3443 1862 3443 
C 755 3443 256 2618 256 1581 
C 256 614 813 -96 1754 -96 
C 2291 -96 2509 32 2662 134 
C 3085 416 3238 890 3258 1050 
L 2694 1050 
z
M 858 1939 
C 858 2458 1267 2938 1786 2938 
C 2470 2938 2688 2458 2720 1939 
L 858 1939 
z
" transform="scale(0.015625)"/>
      </defs>
      <use xlink:href="#Helvetica-41"/>
      <use xlink:href="#Helvetica-69" x="66.699997"/>
      <use xlink:href="#Helvetica-72" x="88.899994"/>
      <use xlink:href="#Helvetica-6c" x="122.199982"/>
      <use xlink:href="#Helvetica-69" x="144.399979"/>
      <use xlink:href="#Helvetica-6e" x="166.599976"/>
      <use xlink:href="#Helvetica-65" x="222.199966"/>
     </g>
    </g>
   </g>
   <g id="matplotlib.axis_2">
    <g id="ytick_1">
     <g id="line2d_4">
      <defs>
       <path id="me4cd0fb06c" d="M 0 0 
L -3.5 0 
" style="stroke: #000000; stroke-width: 0.8"/>
      </defs>
      <g>
       <use xlink:href="#me4cd0fb06c" x="59.51" y="303.64" style="stroke: #000000; stroke-width: 0.8"/>
      </g>
     </g>
     <g id="text_5">
      <!-- 0 -->
      <g transform="translate(46.950625 307.229844) scale(0.1 -0.1)">
       <defs>
        <path id="Helvetica-30" d="M 2720 2189 
C 2720 1062 2426 384 1779 384 
C 1133 384 838 1062 838 2189 
C 838 3315 1133 3994 1779 3994 
C 2426 3994 2720 3315 2720 2189 
z
M 3322 2189 
C 3322 3123 3072 4499 1779 4499 
C 486 4499 237 3123 237 2189 
C 237 1254 486 -122 1779 -122 
C 3072 -122 3322 1254 3322 2189 
z
" transform="scale(0.015625)"/>
       </defs>
       <use xlink:href="#Helvetica-30"/>
      </g>
     </g>
    </g>
    <g id="ytick_2">
     <g id="line2d_5">
      <g>
       <use xlink:href="#me4cd0fb06c" x="59.51" y="249.572324" style="stroke: #000000; stroke-width: 0.8"/>
      </g>
     </g>
     <g id="text_6">
      <!-- 5000 -->
      <g transform="translate(30.2725 253.162168) scale(0.1 -0.1)">
       <defs>
        <path id="Helvetica-35" d="M 1133 3853 
L 3040 3853 
L 3040 4403 
L 710 4403 
L 371 1990 
L 858 1965 
C 1069 2240 1363 2394 1690 2394 
C 2246 2394 2688 2042 2688 1395 
C 2688 832 2323 365 1741 365 
C 1235 365 845 595 787 1120 
L 205 1120 
C 314 115 1069 -122 1658 -122 
C 3066 -122 3290 960 3290 1459 
C 3290 2387 2541 2899 1811 2899 
C 1408 2899 1133 2765 941 2618 
L 1133 3853 
z
" transform="scale(0.015625)"/>
       </defs>
       <use xlink:href="#Helvetica-35"/>
       <use xlink:href="#Helvetica-30" x="55.599991"/>
       <use xlink:href="#Helvetica-30" x="111.199982"/>
       <use xlink:href="#Helvetica-30" x="166.799973"/>
      </g>
     </g>
    </g>
    <g id="ytick_3">
     <g id="line2d_6">
      <g>
       <use xlink:href="#me4cd0fb06c" x="59.51" y="195.504649" style="stroke: #000000; stroke-width: 0.8"/>
      </g>
     </g>
     <g id="text_7">
      <!-- 10000 -->
      <g transform="translate(24.713125 199.094492) scale(0.1 -0.1)">
       <defs>
        <path id="Helvetica-31" d="M 2298 4499 
L 1856 4499 
C 1677 3763 1376 3693 646 3642 
L 646 3194 
L 1696 3194 
L 1696 0 
L 2298 0 
L 2298 4499 
z
" transform="scale(0.015625)"/>
       </defs>
       <use xlink:href="#Helvetica-31"/>
       <use xlink:href="#Helvetica-30" x="55.599991"/>
       <use xlink:href="#Helvetica-30" x="111.199982"/>
       <use xlink:href="#Helvetica-30" x="166.799973"/>
       <use xlink:href="#Helvetica-30" x="222.399963"/>
      </g>
     </g>
    </g>
    <g id="ytick_4">
     <g id="line2d_7">
      <g>
       <use xlink:href="#me4cd0fb06c" x="59.51" y="141.436973" style="stroke: #000000; stroke-width: 0.8"/>
      </g>
     </g>
     <g id="text_8">
      <!-- 15000 -->
      <g transform="translate(24.713125 145.026817) scale(0.1 -0.1)">
       <use xlink:href="#Helvetica-31"/>
       <use xlink:href="#Helvetica-35" x="55.599991"/>
       <use xlink:href="#Helvetica-30" x="111.199982"/>
       <use xlink:href="#Helvetica-30" x="166.799973"/>
       <use xlink:href="#Helvetica-30" x="222.399963"/>
      </g>
     </g>
    </g>
    <g id="ytick_5">
     <g id="line2d_8">
      <g>
       <use xlink:href="#me4cd0fb06c" x="59.51" y="87.369297" style="stroke: #000000; stroke-width: 0.8"/>
      </g>
     </g>
     <g id="text_9">
      <!-- 20000 -->
      <g transform="translate(24.713125 90.959141) scale(0.1 -0.1)">
       <defs>
        <path id="Helvetica-32" d="M 845 2886 
C 864 3200 902 3994 1754 3994 
C 2413 3994 2643 3539 2643 3181 
C 2643 2592 2298 2406 1818 2131 
L 1222 1786 
C 621 1434 198 934 166 0 
L 3245 0 
L 3245 531 
L 800 531 
C 826 704 960 1056 1574 1395 
L 2042 1651 
C 2714 2010 3245 2349 3245 3155 
C 3245 3994 2618 4499 1837 4499 
C 1350 4499 282 4352 282 2886 
L 845 2886 
z
" transform="scale(0.015625)"/>
       </defs>
       <use xlink:href="#Helvetica-32"/>
       <use xlink:href="#Helvetica-30" x="55.599991"/>
       <use xlink:href="#Helvetica-30" x="111.199982"/>
       <use xlink:href="#Helvetica-30" x="166.799973"/>
       <use xlink:href="#Helvetica-30" x="222.399963"/>
      </g>
     </g>
    </g>
    <g id="ytick_6">
     <g id="line2d_9">
      <g>
       <use xlink:href="#me4cd0fb06c" x="59.51" y="33.301621" style="stroke: #000000; stroke-width: 0.8"/>
      </g>
     </g>
     <g id="text_10">
      <!-- 25000 -->
      <g transform="translate(24.713125 36.891465) scale(0.1 -0.1)">
       <use xlink:href="#Helvetica-32"/>
       <use xlink:href="#Helvetica-35" x="55.599991"/>
       <use xlink:href="#Helvetica-30" x="111.199982"/>
       <use xlink:href="#Helvetica-30" x="166.799973"/>
       <use xlink:href="#Helvetica-30" x="222.399963"/>
      </g>
     </g>
    </g>
    <g id="text_11">
     <!-- Actual tof in kg -->
     <g transform="translate(18.513125 196.972969) rotate(-90) scale(0.1 -0.1)">
      <defs>
       <path id="Helvetica-63" d="M 3053 2221 
C 3008 2803 2675 3443 1798 3443 
C 691 3443 192 2618 192 1581 
C 192 614 749 -96 1690 -96 
C 2669 -96 2995 653 3053 1184 
L 2509 1184 
C 2413 672 2086 390 1709 390 
C 934 390 794 1101 794 1677 
C 794 2272 1018 2938 1715 2938 
C 2189 2938 2438 2669 2509 2221 
L 3053 2221 
z
" transform="scale(0.015625)"/>
       <path id="Helvetica-74" d="M 1645 2880 
L 1645 3347 
L 1107 3347 
L 1107 4282 
L 544 4282 
L 544 3347 
L 90 3347 
L 90 2880 
L 544 2880 
L 544 672 
C 544 269 666 -45 1222 -45 
C 1280 -45 1440 -19 1645 0 
L 1645 442 
L 1446 442 
C 1331 442 1107 442 1107 704 
L 1107 2880 
L 1645 2880 
z
" transform="scale(0.015625)"/>
       <path id="Helvetica-75" d="M 3130 0 
L 3130 3347 
L 2566 3347 
L 2566 1504 
C 2566 1018 2355 390 1645 390 
C 1280 390 998 576 998 1126 
L 998 3347 
L 435 3347 
L 435 941 
C 435 141 1030 -96 1523 -96 
C 2061 -96 2349 109 2586 499 
L 2598 486 
L 2598 0 
L 3130 0 
z
" transform="scale(0.015625)"/>
       <path id="Helvetica-61" d="M 915 2330 
C 954 2586 1043 2976 1683 2976 
C 2214 2976 2470 2784 2470 2432 
C 2470 2099 2310 2048 2176 2035 
L 1248 1920 
C 314 1805 230 1152 230 870 
C 230 294 666 -96 1280 -96 
C 1933 -96 2272 211 2490 448 
C 2509 192 2586 -64 3085 -64 
C 3213 -64 3296 -26 3392 0 
L 3392 410 
C 3328 397 3258 384 3206 384 
C 3091 384 3021 442 3021 582 
L 3021 2509 
C 3021 3366 2048 3443 1779 3443 
C 954 3443 422 3130 397 2330 
L 915 2330 
z
M 2458 1158 
C 2458 710 1946 371 1421 371 
C 998 371 813 589 813 954 
C 813 1376 1254 1459 1530 1498 
C 2227 1587 2368 1638 2458 1709 
L 2458 1158 
z
" transform="scale(0.015625)"/>
       <path id="Helvetica-20" transform="scale(0.015625)"/>
       <path id="Helvetica-6f" d="M 224 1677 
C 224 813 710 -90 1779 -90 
C 2848 -90 3334 813 3334 1677 
C 3334 2541 2848 3443 1779 3443 
C 710 3443 224 2541 224 1677 
z
M 806 1677 
C 806 2125 973 2957 1779 2957 
C 2586 2957 2752 2125 2752 1677 
C 2752 1229 2586 397 1779 397 
C 973 397 806 1229 806 1677 
z
" transform="scale(0.015625)"/>
       <path id="Helvetica-66" d="M 1677 2880 
L 1677 3347 
L 1114 3347 
L 1114 3763 
C 1114 4032 1203 4154 1446 4154 
C 1517 4154 1606 4147 1677 4141 
L 1677 4646 
C 1587 4653 1504 4659 1421 4659 
C 870 4659 550 4429 550 3923 
L 550 3347 
L 90 3347 
L 90 2880 
L 550 2880 
L 550 0 
L 1114 0 
L 1114 2880 
L 1677 2880 
z
" transform="scale(0.015625)"/>
       <path id="Helvetica-6b" d="M 1850 2099 
L 3130 3347 
L 2413 3347 
L 973 1933 
L 973 4595 
L 429 4595 
L 429 0 
L 973 0 
L 973 1267 
L 1440 1690 
L 2483 0 
L 3206 0 
L 1850 2099 
z
" transform="scale(0.015625)"/>
       <path id="Helvetica-67" d="M 838 1683 
C 838 2112 883 2938 1754 2938 
C 2566 2938 2656 2061 2656 1517 
C 2656 627 2099 390 1741 390 
C 1126 390 838 947 838 1683 
z
M 3194 3347 
L 2662 3347 
L 2662 2874 
L 2650 2874 
C 2515 3066 2259 3443 1651 3443 
C 762 3443 256 2714 256 1773 
C 256 973 589 -96 1728 -96 
C 2176 -96 2470 115 2618 352 
L 2618 378 
L 2630 378 
L 2630 237 
C 2630 -160 2650 -941 1677 -941 
C 1542 -941 1024 -941 922 -410 
L 358 -410 
C 467 -1299 1242 -1408 1638 -1408 
C 3187 -1408 3194 -205 3194 275 
L 3194 3347 
z
" transform="scale(0.015625)"/>
      </defs>
      <use xlink:href="#Helvetica-41"/>
      <use xlink:href="#Helvetica-63" x="66.699997"/>
      <use xlink:href="#Helvetica-74" x="116.699982"/>
      <use xlink:href="#Helvetica-75" x="144.499969"/>
      <use xlink:href="#Helvetica-61" x="200.09996"/>
      <use xlink:href="#Helvetica-6c" x="255.699951"/>
      <use xlink:href="#Helvetica-20" x="277.899948"/>
      <use xlink:href="#Helvetica-74" x="305.699936"/>
      <use xlink:href="#Helvetica-6f" x="333.499924"/>
      <use xlink:href="#Helvetica-66" x="389.099915"/>
      <use xlink:href="#Helvetica-20" x="416.899902"/>
      <use xlink:href="#Helvetica-69" x="444.69989"/>
      <use xlink:href="#Helvetica-6e" x="466.899887"/>
      <use xlink:href="#Helvetica-20" x="522.499878"/>
      <use xlink:href="#Helvetica-6b" x="550.299866"/>
      <use xlink:href="#Helvetica-67" x="600.29985"/>
     </g>
    </g>
   </g>
   <g id="patch_6">
    <path d="M 59.51 303.64 
L 59.51 24.72 
" style="fill: none; stroke: #000000; stroke-width: 0.8; stroke-linejoin: miter; stroke-linecap: square"/>
   </g>
   <g id="patch_7">
    <path d="M 450 303.64 
L 450 24.72 
" style="fill: none; stroke: #000000; stroke-width: 0.8; stroke-linejoin: miter; stroke-linecap: square"/>
   </g>
   <g id="patch_8">
    <path d="M 59.51 303.64 
L 450 303.64 
" style="fill: none; stroke: #000000; stroke-width: 0.8; stroke-linejoin: miter; stroke-linecap: square"/>
   </g>
   <g id="patch_9">
    <path d="M 59.51 24.72 
L 450 24.72 
" style="fill: none; stroke: #000000; stroke-width: 0.8; stroke-linejoin: miter; stroke-linecap: square"/>
   </g>
   <g id="text_12">
    <!-- Average actual take off fuel -->
    <g transform="translate(189.740938 18.72) scale(0.1 -0.1)">
     <defs>
      <path id="HelveticaCE-Bold-41" d="M 1459 947 
L 3155 947 
L 3450 0 
L 4493 0 
L 2874 4595 
L 1766 4595 
L 128 0 
L 1139 0 
L 1459 947 
z
M 2304 3558 
L 2317 3558 
L 2886 1741 
L 1715 1741 
L 2304 3558 
z
" transform="scale(0.015625)"/>
      <path id="HelveticaCE-Bold-76" d="M 3475 3405 
L 2522 3405 
L 1798 896 
L 1786 896 
L 1082 3405 
L 83 3405 
L 1306 0 
L 2246 0 
L 3475 3405 
z
" transform="scale(0.015625)"/>
      <path id="HelveticaCE-Bold-65" d="M 2419 998 
C 2349 755 2093 627 1843 627 
C 1120 627 1069 1203 1043 1459 
L 3379 1459 
L 3379 1619 
C 3379 3174 2451 3494 1779 3494 
C 288 3494 147 2182 147 1773 
C 147 371 883 -90 1843 -90 
C 2426 -90 3104 179 3341 998 
L 2419 998 
z
M 1069 2042 
C 1120 2490 1344 2758 1766 2758 
C 2054 2758 2406 2592 2458 2042 
L 1069 2042 
z
" transform="scale(0.015625)"/>
      <path id="HelveticaCE-Bold-72" d="M 410 0 
L 1306 0 
L 1306 1773 
C 1306 2150 1434 2586 2131 2586 
C 2214 2586 2310 2586 2387 2573 
L 2387 3482 
C 2330 3488 2272 3494 2214 3494 
C 1670 3494 1466 3162 1280 2816 
L 1267 2816 
L 1267 3405 
L 410 3405 
L 410 0 
z
" transform="scale(0.015625)"/>
      <path id="HelveticaCE-Bold-61" d="M 3174 2509 
C 3174 3347 2298 3494 1818 3494 
C 1120 3494 397 3347 294 2304 
L 1158 2304 
C 1184 2502 1261 2778 1709 2778 
C 1939 2778 2298 2758 2298 2381 
C 2298 2189 2125 2131 1984 2112 
L 1178 1990 
C 608 1907 186 1568 186 902 
C 186 198 710 -90 1222 -90 
C 1830 -90 2118 192 2323 403 
C 2342 211 2355 160 2406 0 
L 3373 0 
L 3373 134 
C 3264 173 3174 262 3174 666 
L 3174 2509 
z
M 2298 1222 
C 2298 806 1894 550 1498 550 
C 1325 550 1082 646 1082 960 
C 1082 1331 1357 1414 1690 1472 
C 2061 1530 2208 1587 2298 1658 
L 2298 1222 
z
" transform="scale(0.015625)"/>
      <path id="HelveticaCE-Bold-67" d="M 2682 3405 
L 2682 2899 
L 2669 2899 
C 2560 3123 2304 3494 1670 3494 
C 922 3494 256 2918 256 1741 
C 256 550 902 -19 1722 -19 
C 2259 -19 2483 230 2630 493 
L 2643 480 
L 2643 70 
C 2643 -480 2413 -710 1933 -710 
C 1414 -710 1344 -538 1306 -365 
L 333 -365 
C 371 -1088 1114 -1389 1818 -1389 
C 3494 -1389 3539 -410 3539 179 
L 3539 3405 
L 2682 3405 
z
M 1178 1683 
C 1178 2477 1549 2720 1882 2720 
C 2381 2720 2650 2272 2650 1722 
C 2650 1254 2496 736 1888 736 
C 1357 736 1178 1248 1178 1683 
z
" transform="scale(0.015625)"/>
      <path id="HelveticaCE-Bold-20" transform="scale(0.015625)"/>
      <path id="HelveticaCE-Bold-63" d="M 2438 1242 
C 2438 1082 2285 646 1830 646 
C 1152 646 1139 1382 1139 1754 
C 1139 2176 1286 2739 1850 2739 
C 2266 2765 2406 2413 2445 2189 
L 3354 2189 
C 3270 3251 2387 3494 1850 3494 
C 698 3494 218 2707 218 1606 
C 218 890 512 -90 1792 -90 
C 3040 -90 3315 890 3347 1242 
L 2438 1242 
z
" transform="scale(0.015625)"/>
      <path id="HelveticaCE-Bold-74" d="M 1421 4326 
L 525 4326 
L 525 3405 
L 64 3405 
L 64 2765 
L 525 2765 
L 525 698 
C 525 256 666 -38 1440 -38 
L 1555 -38 
C 1696 -38 1837 -32 1978 -26 
L 1978 653 
C 1914 646 1850 640 1792 640 
C 1427 640 1421 717 1421 915 
L 1421 2765 
L 1978 2765 
L 1978 3405 
L 1421 3405 
L 1421 4326 
z
" transform="scale(0.015625)"/>
      <path id="HelveticaCE-Bold-75" d="M 3488 3405 
L 2592 3405 
L 2592 1440 
C 2592 832 2195 666 1901 666 
C 1626 666 1318 768 1318 1293 
L 1318 3405 
L 422 3405 
L 422 1165 
C 422 294 909 -90 1581 -90 
C 2054 -90 2413 115 2618 480 
L 2630 480 
L 2630 0 
L 3488 0 
L 3488 3405 
z
" transform="scale(0.015625)"/>
      <path id="HelveticaCE-Bold-6c" d="M 1338 4595 
L 442 4595 
L 442 0 
L 1338 0 
L 1338 4595 
z
" transform="scale(0.015625)"/>
      <path id="HelveticaCE-Bold-6b" d="M 1338 1075 
L 1709 1459 
L 2522 0 
L 3597 0 
L 2362 2086 
L 3565 3405 
L 2464 3405 
L 1338 2112 
L 1338 4595 
L 442 4595 
L 442 0 
L 1338 0 
L 1338 1075 
z
" transform="scale(0.015625)"/>
      <path id="HelveticaCE-Bold-6f" d="M 3699 1702 
C 3699 2931 2874 3494 1958 3494 
C 1043 3494 218 2931 218 1702 
C 218 474 1043 -90 1958 -90 
C 2874 -90 3699 474 3699 1702 
z
M 2778 1702 
C 2778 1267 2650 666 1958 666 
C 1267 666 1139 1267 1139 1702 
C 1139 2138 1267 2739 1958 2739 
C 2650 2739 2778 2138 2778 1702 
z
" transform="scale(0.015625)"/>
      <path id="HelveticaCE-Bold-66" d="M 1453 2765 
L 2035 2765 
L 2035 3405 
L 1453 3405 
L 1453 3539 
C 1453 3821 1459 3917 1766 3917 
L 2016 3917 
L 2016 4640 
C 1939 4646 1818 4653 1555 4653 
C 941 4653 557 4384 557 3680 
L 557 3405 
L 64 3405 
L 64 2765 
L 557 2765 
L 557 0 
L 1453 0 
L 1453 2765 
z
" transform="scale(0.015625)"/>
     </defs>
     <use xlink:href="#HelveticaCE-Bold-41"/>
     <use xlink:href="#HelveticaCE-Bold-76" x="72.199982"/>
     <use xlink:href="#HelveticaCE-Bold-65" x="127.799973"/>
     <use xlink:href="#HelveticaCE-Bold-72" x="183.399963"/>
     <use xlink:href="#HelveticaCE-Bold-61" x="222.299957"/>
     <use xlink:href="#HelveticaCE-Bold-67" x="277.899948"/>
     <use xlink:href="#HelveticaCE-Bold-65" x="338.999939"/>
     <use xlink:href="#HelveticaCE-Bold-20" x="394.59993"/>
     <use xlink:href="#HelveticaCE-Bold-61" x="422.399918"/>
     <use xlink:href="#HelveticaCE-Bold-63" x="477.999908"/>
     <use xlink:href="#HelveticaCE-Bold-74" x="533.599899"/>
     <use xlink:href="#HelveticaCE-Bold-75" x="566.899887"/>
     <use xlink:href="#HelveticaCE-Bold-61" x="627.999878"/>
     <use xlink:href="#HelveticaCE-Bold-6c" x="683.599869"/>
     <use xlink:href="#HelveticaCE-Bold-20" x="711.399857"/>
     <use xlink:href="#HelveticaCE-Bold-74" x="739.199844"/>
     <use xlink:href="#HelveticaCE-Bold-61" x="772.499832"/>
     <use xlink:href="#HelveticaCE-Bold-6b" x="828.099823"/>
     <use xlink:href="#HelveticaCE-Bold-65" x="883.699814"/>
     <use xlink:href="#HelveticaCE-Bold-20" x="939.299805"/>
     <use xlink:href="#HelveticaCE-Bold-6f" x="967.099792"/>
     <use xlink:href="#HelveticaCE-Bold-66" x="1028.199783"/>
     <use xlink:href="#HelveticaCE-Bold-66" x="1061.499771"/>
     <use xlink:href="#HelveticaCE-Bold-20" x="1094.799759"/>
     <use xlink:href="#HelveticaCE-Bold-66" x="1122.599747"/>
     <use xlink:href="#HelveticaCE-Bold-75" x="1155.899734"/>
     <use xlink:href="#HelveticaCE-Bold-65" x="1216.999725"/>
     <use xlink:href="#HelveticaCE-Bold-6c" x="1272.599716"/>
    </g>
   </g>
  </g>
 </g>
 <defs>
  <clipPath id="pcec56a2547">
   <rect x="59.51" y="24.72" width="390.49" height="278.92"/>
  </clipPath>
 </defs>
</svg>
