<?xml version="1.0" encoding="utf-8" standalone="no"?>
<!DOCTYPE svg PUBLIC "-//W3C//DTD SVG 1.1//EN"
  "http://www.w3.org/Graphics/SVG/1.1/DTD/svg11.dtd">
<svg xmlns:xlink="http://www.w3.org/1999/xlink" width="1008pt" height="432pt" viewBox="0 0 1008 432" xmlns="http://www.w3.org/2000/svg" version="1.1">
 <metadata>
  <rdf:RDF xmlns:dc="http://purl.org/dc/elements/1.1/" xmlns:cc="http://creativecommons.org/ns#" xmlns:rdf="http://www.w3.org/1999/02/22-rdf-syntax-ns#">
   <cc:Work>
    <dc:type rdf:resource="http://purl.org/dc/dcmitype/StillImage"/>
    <dc:date>2024-07-13T12:06:23.965197</dc:date>
    <dc:format>image/svg+xml</dc:format>
    <dc:creator>
     <cc:Agent>
      <dc:title>Matplotlib v3.8.4, https://matplotlib.org/</dc:title>
     </cc:Agent>
    </dc:creator>
   </cc:Work>
  </rdf:RDF>
 </metadata>
 <defs>
  <style type="text/css">*{stroke-linejoin: round; stroke-linecap: butt}</style>
 </defs>
 <g id="figure_1">
  <g id="patch_1">
   <path d="M 0 432 
L 1008 432 
L 1008 0 
L 0 0 
z
" style="fill: #ffffff"/>
  </g>
  <g id="axes_1">
   <g id="patch_2">
    <path d="M 24.19 390.04 
L 497.190642 390.04 
L 497.190642 30.48 
L 24.19 30.48 
z
" style="fill: #ffffff"/>
   </g>
   <g id="matplotlib.axis_1">
    <g id="xtick_1">
     <g id="line2d_1">
      <defs>
       <path id="m2d3a7d5944" d="M 0 0 
L 0 3.5 
" style="stroke: #000000; stroke-width: 0.8"/>
      </defs>
      <g>
       <use xlink:href="#m2d3a7d5944" x="70.984181" y="390.04" style="stroke: #000000; stroke-width: 0.8"/>
      </g>
     </g>
     <g id="text_1">
      <!-- −20 -->
      <g transform="translate(60.431837 404.638438) scale(0.1 -0.1)">
       <defs>
        <path id="DejaVuSans-2212" d="M 678 2272 
L 4684 2272 
L 4684 1741 
L 678 1741 
L 678 2272 
z
" transform="scale(0.015625)"/>
        <path id="DejaVuSans-32" d="M 1228 531 
L 3431 531 
L 3431 0 
L 469 0 
L 469 531 
Q 828 903 1448 1529 
Q 2069 2156 2228 2338 
Q 2531 2678 2651 2914 
Q 2772 3150 2772 3378 
Q 2772 3750 2511 3984 
Q 2250 4219 1831 4219 
Q 1534 4219 1204 4116 
Q 875 4013 500 3803 
L 500 4441 
Q 881 4594 1212 4672 
Q 1544 4750 1819 4750 
Q 2544 4750 2975 4387 
Q 3406 4025 3406 3419 
Q 3406 3131 3298 2873 
Q 3191 2616 2906 2266 
Q 2828 2175 2409 1742 
Q 1991 1309 1228 531 
z
" transform="scale(0.015625)"/>
        <path id="DejaVuSans-30" d="M 2034 4250 
Q 1547 4250 1301 3770 
Q 1056 3291 1056 2328 
Q 1056 1369 1301 889 
Q 1547 409 2034 409 
Q 2525 409 2770 889 
Q 3016 1369 3016 2328 
Q 3016 3291 2770 3770 
Q 2525 4250 2034 4250 
z
M 2034 4750 
Q 2819 4750 3233 4129 
Q 3647 3509 3647 2328 
Q 3647 1150 3233 529 
Q 2819 -91 2034 -91 
Q 1250 -91 836 529 
Q 422 1150 422 2328 
Q 422 3509 836 4129 
Q 1250 4750 2034 4750 
z
" transform="scale(0.015625)"/>
       </defs>
       <use xlink:href="#DejaVuSans-2212"/>
       <use xlink:href="#DejaVuSans-32" x="83.789062"/>
       <use xlink:href="#DejaVuSans-30" x="147.412109"/>
      </g>
     </g>
    </g>
    <g id="xtick_2">
     <g id="line2d_2">
      <g>
       <use xlink:href="#m2d3a7d5944" x="155.298021" y="390.04" style="stroke: #000000; stroke-width: 0.8"/>
      </g>
     </g>
     <g id="text_2">
      <!-- −10 -->
      <g transform="translate(144.745677 404.638438) scale(0.1 -0.1)">
       <defs>
        <path id="DejaVuSans-31" d="M 794 531 
L 1825 531 
L 1825 4091 
L 703 3866 
L 703 4441 
L 1819 4666 
L 2450 4666 
L 2450 531 
L 3481 531 
L 3481 0 
L 794 0 
L 794 531 
z
" transform="scale(0.015625)"/>
       </defs>
       <use xlink:href="#DejaVuSans-2212"/>
       <use xlink:href="#DejaVuSans-31" x="83.789062"/>
       <use xlink:href="#DejaVuSans-30" x="147.412109"/>
      </g>
     </g>
    </g>
    <g id="xtick_3">
     <g id="line2d_3">
      <g>
       <use xlink:href="#m2d3a7d5944" x="239.611861" y="390.04" style="stroke: #000000; stroke-width: 0.8"/>
      </g>
     </g>
     <g id="text_3">
      <!-- 0 -->
      <g transform="translate(236.430611 404.638438) scale(0.1 -0.1)">
       <use xlink:href="#DejaVuSans-30"/>
      </g>
     </g>
    </g>
    <g id="xtick_4">
     <g id="line2d_4">
      <g>
       <use xlink:href="#m2d3a7d5944" x="323.925701" y="390.04" style="stroke: #000000; stroke-width: 0.8"/>
      </g>
     </g>
     <g id="text_4">
      <!-- 10 -->
      <g transform="translate(317.563201 404.638438) scale(0.1 -0.1)">
       <use xlink:href="#DejaVuSans-31"/>
       <use xlink:href="#DejaVuSans-30" x="63.623047"/>
      </g>
     </g>
    </g>
    <g id="xtick_5">
     <g id="line2d_5">
      <g>
       <use xlink:href="#m2d3a7d5944" x="408.239541" y="390.04" style="stroke: #000000; stroke-width: 0.8"/>
      </g>
     </g>
     <g id="text_5">
      <!-- 20 -->
      <g transform="translate(401.877041 404.638438) scale(0.1 -0.1)">
       <use xlink:href="#DejaVuSans-32"/>
       <use xlink:href="#DejaVuSans-30" x="63.623047"/>
      </g>
     </g>
    </g>
    <g id="xtick_6">
     <g id="line2d_6">
      <g>
       <use xlink:href="#m2d3a7d5944" x="492.553381" y="390.04" style="stroke: #000000; stroke-width: 0.8"/>
      </g>
     </g>
     <g id="text_6">
      <!-- 30 -->
      <g transform="translate(486.190881 404.638438) scale(0.1 -0.1)">
       <defs>
        <path id="DejaVuSans-33" d="M 2597 2516 
Q 3050 2419 3304 2112 
Q 3559 1806 3559 1356 
Q 3559 666 3084 287 
Q 2609 -91 1734 -91 
Q 1441 -91 1130 -33 
Q 819 25 488 141 
L 488 750 
Q 750 597 1062 519 
Q 1375 441 1716 441 
Q 2309 441 2620 675 
Q 2931 909 2931 1356 
Q 2931 1769 2642 2001 
Q 2353 2234 1838 2234 
L 1294 2234 
L 1294 2753 
L 1863 2753 
Q 2328 2753 2575 2939 
Q 2822 3125 2822 3475 
Q 2822 3834 2567 4026 
Q 2313 4219 1838 4219 
Q 1578 4219 1281 4162 
Q 984 4106 628 3988 
L 628 4550 
Q 988 4650 1302 4700 
Q 1616 4750 1894 4750 
Q 2613 4750 3031 4423 
Q 3450 4097 3450 3541 
Q 3450 3153 3228 2886 
Q 3006 2619 2597 2516 
z
" transform="scale(0.015625)"/>
       </defs>
       <use xlink:href="#DejaVuSans-33"/>
       <use xlink:href="#DejaVuSans-30" x="63.623047"/>
      </g>
     </g>
    </g>
    <g id="text_7">
     <!-- Difference in Pieces -->
     <g transform="translate(211.305946 418.316562) scale(0.1 -0.1)">
      <defs>
       <path id="DejaVuSans-44" d="M 1259 4147 
L 1259 519 
L 2022 519 
Q 2988 519 3436 956 
Q 3884 1394 3884 2338 
Q 3884 3275 3436 3711 
Q 2988 4147 2022 4147 
L 1259 4147 
z
M 628 4666 
L 1925 4666 
Q 3281 4666 3915 4102 
Q 4550 3538 4550 2338 
Q 4550 1131 3912 565 
Q 3275 0 1925 0 
L 628 0 
L 628 4666 
z
" transform="scale(0.015625)"/>
       <path id="DejaVuSans-69" d="M 603 3500 
L 1178 3500 
L 1178 0 
L 603 0 
L 603 3500 
z
M 603 4863 
L 1178 4863 
L 1178 4134 
L 603 4134 
L 603 4863 
z
" transform="scale(0.015625)"/>
       <path id="DejaVuSans-66" d="M 2375 4863 
L 2375 4384 
L 1825 4384 
Q 1516 4384 1395 4259 
Q 1275 4134 1275 3809 
L 1275 3500 
L 2222 3500 
L 2222 3053 
L 1275 3053 
L 1275 0 
L 697 0 
L 697 3053 
L 147 3053 
L 147 3500 
L 697 3500 
L 697 3744 
Q 697 4328 969 4595 
Q 1241 4863 1831 4863 
L 2375 4863 
z
" transform="scale(0.015625)"/>
       <path id="DejaVuSans-65" d="M 3597 1894 
L 3597 1613 
L 953 1613 
Q 991 1019 1311 708 
Q 1631 397 2203 397 
Q 2534 397 2845 478 
Q 3156 559 3463 722 
L 3463 178 
Q 3153 47 2828 -22 
Q 2503 -91 2169 -91 
Q 1331 -91 842 396 
Q 353 884 353 1716 
Q 353 2575 817 3079 
Q 1281 3584 2069 3584 
Q 2775 3584 3186 3129 
Q 3597 2675 3597 1894 
z
M 3022 2063 
Q 3016 2534 2758 2815 
Q 2500 3097 2075 3097 
Q 1594 3097 1305 2825 
Q 1016 2553 972 2059 
L 3022 2063 
z
" transform="scale(0.015625)"/>
       <path id="DejaVuSans-72" d="M 2631 2963 
Q 2534 3019 2420 3045 
Q 2306 3072 2169 3072 
Q 1681 3072 1420 2755 
Q 1159 2438 1159 1844 
L 1159 0 
L 581 0 
L 581 3500 
L 1159 3500 
L 1159 2956 
Q 1341 3275 1631 3429 
Q 1922 3584 2338 3584 
Q 2397 3584 2469 3576 
Q 2541 3569 2628 3553 
L 2631 2963 
z
" transform="scale(0.015625)"/>
       <path id="DejaVuSans-6e" d="M 3513 2113 
L 3513 0 
L 2938 0 
L 2938 2094 
Q 2938 2591 2744 2837 
Q 2550 3084 2163 3084 
Q 1697 3084 1428 2787 
Q 1159 2491 1159 1978 
L 1159 0 
L 581 0 
L 581 3500 
L 1159 3500 
L 1159 2956 
Q 1366 3272 1645 3428 
Q 1925 3584 2291 3584 
Q 2894 3584 3203 3211 
Q 3513 2838 3513 2113 
z
" transform="scale(0.015625)"/>
       <path id="DejaVuSans-63" d="M 3122 3366 
L 3122 2828 
Q 2878 2963 2633 3030 
Q 2388 3097 2138 3097 
Q 1578 3097 1268 2742 
Q 959 2388 959 1747 
Q 959 1106 1268 751 
Q 1578 397 2138 397 
Q 2388 397 2633 464 
Q 2878 531 3122 666 
L 3122 134 
Q 2881 22 2623 -34 
Q 2366 -91 2075 -91 
Q 1284 -91 818 406 
Q 353 903 353 1747 
Q 353 2603 823 3093 
Q 1294 3584 2113 3584 
Q 2378 3584 2631 3529 
Q 2884 3475 3122 3366 
z
" transform="scale(0.015625)"/>
       <path id="DejaVuSans-20" transform="scale(0.015625)"/>
       <path id="DejaVuSans-50" d="M 1259 4147 
L 1259 2394 
L 2053 2394 
Q 2494 2394 2734 2622 
Q 2975 2850 2975 3272 
Q 2975 3691 2734 3919 
Q 2494 4147 2053 4147 
L 1259 4147 
z
M 628 4666 
L 2053 4666 
Q 2838 4666 3239 4311 
Q 3641 3956 3641 3272 
Q 3641 2581 3239 2228 
Q 2838 1875 2053 1875 
L 1259 1875 
L 1259 0 
L 628 0 
L 628 4666 
z
" transform="scale(0.015625)"/>
       <path id="DejaVuSans-73" d="M 2834 3397 
L 2834 2853 
Q 2591 2978 2328 3040 
Q 2066 3103 1784 3103 
Q 1356 3103 1142 2972 
Q 928 2841 928 2578 
Q 928 2378 1081 2264 
Q 1234 2150 1697 2047 
L 1894 2003 
Q 2506 1872 2764 1633 
Q 3022 1394 3022 966 
Q 3022 478 2636 193 
Q 2250 -91 1575 -91 
Q 1294 -91 989 -36 
Q 684 19 347 128 
L 347 722 
Q 666 556 975 473 
Q 1284 391 1588 391 
Q 1994 391 2212 530 
Q 2431 669 2431 922 
Q 2431 1156 2273 1281 
Q 2116 1406 1581 1522 
L 1381 1569 
Q 847 1681 609 1914 
Q 372 2147 372 2553 
Q 372 3047 722 3315 
Q 1072 3584 1716 3584 
Q 2034 3584 2315 3537 
Q 2597 3491 2834 3397 
z
" transform="scale(0.015625)"/>
      </defs>
      <use xlink:href="#DejaVuSans-44"/>
      <use xlink:href="#DejaVuSans-69" x="77.001953"/>
      <use xlink:href="#DejaVuSans-66" x="104.785156"/>
      <use xlink:href="#DejaVuSans-66" x="139.990234"/>
      <use xlink:href="#DejaVuSans-65" x="175.195312"/>
      <use xlink:href="#DejaVuSans-72" x="236.71875"/>
      <use xlink:href="#DejaVuSans-65" x="275.582031"/>
      <use xlink:href="#DejaVuSans-6e" x="337.105469"/>
      <use xlink:href="#DejaVuSans-63" x="400.484375"/>
      <use xlink:href="#DejaVuSans-65" x="455.464844"/>
      <use xlink:href="#DejaVuSans-20" x="516.988281"/>
      <use xlink:href="#DejaVuSans-69" x="548.775391"/>
      <use xlink:href="#DejaVuSans-6e" x="576.558594"/>
      <use xlink:href="#DejaVuSans-20" x="639.9375"/>
      <use xlink:href="#DejaVuSans-50" x="671.724609"/>
      <use xlink:href="#DejaVuSans-69" x="729.777344"/>
      <use xlink:href="#DejaVuSans-65" x="757.560547"/>
      <use xlink:href="#DejaVuSans-63" x="819.083984"/>
      <use xlink:href="#DejaVuSans-65" x="874.064453"/>
      <use xlink:href="#DejaVuSans-73" x="935.587891"/>
     </g>
    </g>
   </g>
   <g id="matplotlib.axis_2">
    <g id="ytick_1">
     <g id="line2d_7">
      <defs>
       <path id="m1382a8147a" d="M 0 0 
L -3.5 0 
" style="stroke: #000000; stroke-width: 0.8"/>
      </defs>
      <g>
       <use xlink:href="#m1382a8147a" x="24.19" y="210.26" style="stroke: #000000; stroke-width: 0.8"/>
      </g>
     </g>
     <g id="text_8">
      <!-- 1 -->
      <g transform="translate(10.8275 214.059219) scale(0.1 -0.1)">
       <use xlink:href="#DejaVuSans-31"/>
      </g>
     </g>
    </g>
   </g>
   <g id="line2d_8">
    <path d="M 231.180477 237.227 
L 231.180477 183.293 
L 264.906013 183.293 
L 264.906013 237.227 
L 231.180477 237.227 
" clip-path="url(#pb1f2c23779)" style="fill: none; stroke: #000000; stroke-linecap: square"/>
   </g>
   <g id="line2d_9">
    <path d="M 231.180477 210.26 
L 180.592173 210.26 
" clip-path="url(#pb1f2c23779)" style="fill: none; stroke: #000000; stroke-linecap: square"/>
   </g>
   <g id="line2d_10">
    <path d="M 264.906013 210.26 
L 315.494317 210.26 
" clip-path="url(#pb1f2c23779)" style="fill: none; stroke: #000000; stroke-linecap: square"/>
   </g>
   <g id="line2d_11">
    <path d="M 180.592173 223.7435 
L 180.592173 196.7765 
" clip-path="url(#pb1f2c23779)" style="fill: none; stroke: #000000; stroke-linecap: square"/>
   </g>
   <g id="line2d_12">
    <path d="M 315.494317 223.7435 
L 315.494317 196.7765 
" clip-path="url(#pb1f2c23779)" style="fill: none; stroke: #000000; stroke-linecap: square"/>
   </g>
   <g id="line2d_13">
    <defs>
     <path id="mcb7379aab5" d="M 0 3 
C 0.795609 3 1.55874 2.683901 2.12132 2.12132 
C 2.683901 1.55874 3 0.795609 3 0 
C 3 -0.795609 2.683901 -1.55874 2.12132 -2.12132 
C 1.55874 -2.683901 0.795609 -3 0 -3 
C -0.795609 -3 -1.55874 -2.683901 -2.12132 -2.12132 
C -2.683901 -1.55874 -3 -0.795609 -3 0 
C -3 0.795609 -2.683901 1.55874 -2.12132 2.12132 
C -1.55874 2.683901 -0.795609 3 0 3 
z
" style="stroke: #000000"/>
    </defs>
    <g clip-path="url(#pb1f2c23779)">
     <use xlink:href="#mcb7379aab5" x="172.160789" y="210.26" style="fill-opacity: 0; stroke: #000000"/>
     <use xlink:href="#mcb7379aab5" x="155.298021" y="210.26" style="fill-opacity: 0; stroke: #000000"/>
     <use xlink:href="#mcb7379aab5" x="138.435253" y="210.26" style="fill-opacity: 0; stroke: #000000"/>
     <use xlink:href="#mcb7379aab5" x="146.866637" y="210.26" style="fill-opacity: 0; stroke: #000000"/>
     <use xlink:href="#mcb7379aab5" x="155.298021" y="210.26" style="fill-opacity: 0; stroke: #000000"/>
     <use xlink:href="#mcb7379aab5" x="155.298021" y="210.26" style="fill-opacity: 0; stroke: #000000"/>
     <use xlink:href="#mcb7379aab5" x="172.160789" y="210.26" style="fill-opacity: 0; stroke: #000000"/>
     <use xlink:href="#mcb7379aab5" x="54.121413" y="210.26" style="fill-opacity: 0; stroke: #000000"/>
     <use xlink:href="#mcb7379aab5" x="138.435253" y="210.26" style="fill-opacity: 0; stroke: #000000"/>
     <use xlink:href="#mcb7379aab5" x="155.298021" y="210.26" style="fill-opacity: 0; stroke: #000000"/>
     <use xlink:href="#mcb7379aab5" x="96.278333" y="210.26" style="fill-opacity: 0; stroke: #000000"/>
     <use xlink:href="#mcb7379aab5" x="172.160789" y="210.26" style="fill-opacity: 0; stroke: #000000"/>
     <use xlink:href="#mcb7379aab5" x="70.984181" y="210.26" style="fill-opacity: 0; stroke: #000000"/>
     <use xlink:href="#mcb7379aab5" x="45.690029" y="210.26" style="fill-opacity: 0; stroke: #000000"/>
     <use xlink:href="#mcb7379aab5" x="163.729405" y="210.26" style="fill-opacity: 0; stroke: #000000"/>
     <use xlink:href="#mcb7379aab5" x="155.298021" y="210.26" style="fill-opacity: 0; stroke: #000000"/>
     <use xlink:href="#mcb7379aab5" x="146.866637" y="210.26" style="fill-opacity: 0; stroke: #000000"/>
     <use xlink:href="#mcb7379aab5" x="332.357085" y="210.26" style="fill-opacity: 0; stroke: #000000"/>
     <use xlink:href="#mcb7379aab5" x="357.651237" y="210.26" style="fill-opacity: 0; stroke: #000000"/>
     <use xlink:href="#mcb7379aab5" x="323.925701" y="210.26" style="fill-opacity: 0; stroke: #000000"/>
     <use xlink:href="#mcb7379aab5" x="366.082621" y="210.26" style="fill-opacity: 0; stroke: #000000"/>
     <use xlink:href="#mcb7379aab5" x="340.788469" y="210.26" style="fill-opacity: 0; stroke: #000000"/>
     <use xlink:href="#mcb7379aab5" x="425.102309" y="210.26" style="fill-opacity: 0; stroke: #000000"/>
     <use xlink:href="#mcb7379aab5" x="357.651237" y="210.26" style="fill-opacity: 0; stroke: #000000"/>
     <use xlink:href="#mcb7379aab5" x="458.827845" y="210.26" style="fill-opacity: 0; stroke: #000000"/>
     <use xlink:href="#mcb7379aab5" x="349.219853" y="210.26" style="fill-opacity: 0; stroke: #000000"/>
     <use xlink:href="#mcb7379aab5" x="349.219853" y="210.26" style="fill-opacity: 0; stroke: #000000"/>
     <use xlink:href="#mcb7379aab5" x="416.670925" y="210.26" style="fill-opacity: 0; stroke: #000000"/>
     <use xlink:href="#mcb7379aab5" x="366.082621" y="210.26" style="fill-opacity: 0; stroke: #000000"/>
     <use xlink:href="#mcb7379aab5" x="332.357085" y="210.26" style="fill-opacity: 0; stroke: #000000"/>
     <use xlink:href="#mcb7379aab5" x="366.082621" y="210.26" style="fill-opacity: 0; stroke: #000000"/>
     <use xlink:href="#mcb7379aab5" x="340.788469" y="210.26" style="fill-opacity: 0; stroke: #000000"/>
     <use xlink:href="#mcb7379aab5" x="374.514005" y="210.26" style="fill-opacity: 0; stroke: #000000"/>
     <use xlink:href="#mcb7379aab5" x="349.219853" y="210.26" style="fill-opacity: 0; stroke: #000000"/>
     <use xlink:href="#mcb7379aab5" x="340.788469" y="210.26" style="fill-opacity: 0; stroke: #000000"/>
     <use xlink:href="#mcb7379aab5" x="332.357085" y="210.26" style="fill-opacity: 0; stroke: #000000"/>
     <use xlink:href="#mcb7379aab5" x="366.082621" y="210.26" style="fill-opacity: 0; stroke: #000000"/>
     <use xlink:href="#mcb7379aab5" x="475.690613" y="210.26" style="fill-opacity: 0; stroke: #000000"/>
     <use xlink:href="#mcb7379aab5" x="340.788469" y="210.26" style="fill-opacity: 0; stroke: #000000"/>
     <use xlink:href="#mcb7379aab5" x="349.219853" y="210.26" style="fill-opacity: 0; stroke: #000000"/>
     <use xlink:href="#mcb7379aab5" x="332.357085" y="210.26" style="fill-opacity: 0; stroke: #000000"/>
     <use xlink:href="#mcb7379aab5" x="349.219853" y="210.26" style="fill-opacity: 0; stroke: #000000"/>
     <use xlink:href="#mcb7379aab5" x="323.925701" y="210.26" style="fill-opacity: 0; stroke: #000000"/>
     <use xlink:href="#mcb7379aab5" x="382.945389" y="210.26" style="fill-opacity: 0; stroke: #000000"/>
     <use xlink:href="#mcb7379aab5" x="332.357085" y="210.26" style="fill-opacity: 0; stroke: #000000"/>
     <use xlink:href="#mcb7379aab5" x="323.925701" y="210.26" style="fill-opacity: 0; stroke: #000000"/>
     <use xlink:href="#mcb7379aab5" x="349.219853" y="210.26" style="fill-opacity: 0; stroke: #000000"/>
    </g>
   </g>
   <g id="line2d_14">
    <path d="M 248.043245 237.227 
L 248.043245 183.293 
" clip-path="url(#pb1f2c23779)" style="fill: none; stroke: #ff7f0e"/>
   </g>
   <g id="patch_3">
    <path d="M 24.19 390.04 
L 24.19 30.48 
" style="fill: none; stroke: #000000; stroke-width: 0.8; stroke-linejoin: miter; stroke-linecap: square"/>
   </g>
   <g id="patch_4">
    <path d="M 497.190642 390.04 
L 497.190642 30.48 
" style="fill: none; stroke: #000000; stroke-width: 0.8; stroke-linejoin: miter; stroke-linecap: square"/>
   </g>
   <g id="patch_5">
    <path d="M 24.19 390.04 
L 497.190642 390.04 
" style="fill: none; stroke: #000000; stroke-width: 0.8; stroke-linejoin: miter; stroke-linecap: square"/>
   </g>
   <g id="patch_6">
    <path d="M 24.19 30.48 
L 497.190642 30.48 
" style="fill: none; stroke: #000000; stroke-width: 0.8; stroke-linejoin: miter; stroke-linecap: square"/>
   </g>
   <g id="text_9">
    <!-- Difference in Bag Pieces (CKI - LOADTABLE) -->
    <g transform="translate(40.26204 24.48) scale(0.18 -0.18)">
     <defs>
      <path id="DejaVuSans-Bold-44" d="M 1791 3756 
L 1791 909 
L 2222 909 
Q 2959 909 3348 1275 
Q 3738 1641 3738 2338 
Q 3738 3031 3350 3393 
Q 2963 3756 2222 3756 
L 1791 3756 
z
M 588 4666 
L 1856 4666 
Q 2919 4666 3439 4514 
Q 3959 4363 4331 4000 
Q 4659 3684 4818 3271 
Q 4978 2859 4978 2338 
Q 4978 1809 4818 1395 
Q 4659 981 4331 666 
Q 3956 303 3431 151 
Q 2906 0 1856 0 
L 588 0 
L 588 4666 
z
" transform="scale(0.015625)"/>
      <path id="DejaVuSans-Bold-69" d="M 538 3500 
L 1656 3500 
L 1656 0 
L 538 0 
L 538 3500 
z
M 538 4863 
L 1656 4863 
L 1656 3950 
L 538 3950 
L 538 4863 
z
" transform="scale(0.015625)"/>
      <path id="DejaVuSans-Bold-66" d="M 2841 4863 
L 2841 4128 
L 2222 4128 
Q 1984 4128 1890 4042 
Q 1797 3956 1797 3744 
L 1797 3500 
L 2753 3500 
L 2753 2700 
L 1797 2700 
L 1797 0 
L 678 0 
L 678 2700 
L 122 2700 
L 122 3500 
L 678 3500 
L 678 3744 
Q 678 4316 997 4589 
Q 1316 4863 1984 4863 
L 2841 4863 
z
" transform="scale(0.015625)"/>
      <path id="DejaVuSans-Bold-65" d="M 4031 1759 
L 4031 1441 
L 1416 1441 
Q 1456 1047 1700 850 
Q 1944 653 2381 653 
Q 2734 653 3104 758 
Q 3475 863 3866 1075 
L 3866 213 
Q 3469 63 3072 -14 
Q 2675 -91 2278 -91 
Q 1328 -91 801 392 
Q 275 875 275 1747 
Q 275 2603 792 3093 
Q 1309 3584 2216 3584 
Q 3041 3584 3536 3087 
Q 4031 2591 4031 1759 
z
M 2881 2131 
Q 2881 2450 2695 2645 
Q 2509 2841 2209 2841 
Q 1884 2841 1681 2658 
Q 1478 2475 1428 2131 
L 2881 2131 
z
" transform="scale(0.015625)"/>
      <path id="DejaVuSans-Bold-72" d="M 3138 2547 
Q 2991 2616 2845 2648 
Q 2700 2681 2553 2681 
Q 2122 2681 1889 2404 
Q 1656 2128 1656 1613 
L 1656 0 
L 538 0 
L 538 3500 
L 1656 3500 
L 1656 2925 
Q 1872 3269 2151 3426 
Q 2431 3584 2822 3584 
Q 2878 3584 2943 3579 
Q 3009 3575 3134 3559 
L 3138 2547 
z
" transform="scale(0.015625)"/>
      <path id="DejaVuSans-Bold-6e" d="M 4056 2131 
L 4056 0 
L 2931 0 
L 2931 347 
L 2931 1631 
Q 2931 2084 2911 2256 
Q 2891 2428 2841 2509 
Q 2775 2619 2662 2680 
Q 2550 2741 2406 2741 
Q 2056 2741 1856 2470 
Q 1656 2200 1656 1722 
L 1656 0 
L 538 0 
L 538 3500 
L 1656 3500 
L 1656 2988 
Q 1909 3294 2193 3439 
Q 2478 3584 2822 3584 
Q 3428 3584 3742 3212 
Q 4056 2841 4056 2131 
z
" transform="scale(0.015625)"/>
      <path id="DejaVuSans-Bold-63" d="M 3366 3391 
L 3366 2478 
Q 3138 2634 2908 2709 
Q 2678 2784 2431 2784 
Q 1963 2784 1702 2511 
Q 1441 2238 1441 1747 
Q 1441 1256 1702 982 
Q 1963 709 2431 709 
Q 2694 709 2930 787 
Q 3166 866 3366 1019 
L 3366 103 
Q 3103 6 2833 -42 
Q 2563 -91 2291 -91 
Q 1344 -91 809 395 
Q 275 881 275 1747 
Q 275 2613 809 3098 
Q 1344 3584 2291 3584 
Q 2566 3584 2833 3536 
Q 3100 3488 3366 3391 
z
" transform="scale(0.015625)"/>
      <path id="DejaVuSans-Bold-20" transform="scale(0.015625)"/>
      <path id="DejaVuSans-Bold-42" d="M 2456 2859 
Q 2741 2859 2887 2984 
Q 3034 3109 3034 3353 
Q 3034 3594 2887 3720 
Q 2741 3847 2456 3847 
L 1791 3847 
L 1791 2859 
L 2456 2859 
z
M 2497 819 
Q 2859 819 3042 972 
Q 3225 1125 3225 1434 
Q 3225 1738 3044 1889 
Q 2863 2041 2497 2041 
L 1791 2041 
L 1791 819 
L 2497 819 
z
M 3616 2497 
Q 4003 2384 4215 2081 
Q 4428 1778 4428 1338 
Q 4428 663 3972 331 
Q 3516 0 2584 0 
L 588 0 
L 588 4666 
L 2394 4666 
Q 3366 4666 3802 4372 
Q 4238 4078 4238 3431 
Q 4238 3091 4078 2852 
Q 3919 2613 3616 2497 
z
" transform="scale(0.015625)"/>
      <path id="DejaVuSans-Bold-61" d="M 2106 1575 
Q 1756 1575 1579 1456 
Q 1403 1338 1403 1106 
Q 1403 894 1545 773 
Q 1688 653 1941 653 
Q 2256 653 2472 879 
Q 2688 1106 2688 1447 
L 2688 1575 
L 2106 1575 
z
M 3816 1997 
L 3816 0 
L 2688 0 
L 2688 519 
Q 2463 200 2181 54 
Q 1900 -91 1497 -91 
Q 953 -91 614 226 
Q 275 544 275 1050 
Q 275 1666 698 1953 
Q 1122 2241 2028 2241 
L 2688 2241 
L 2688 2328 
Q 2688 2594 2478 2717 
Q 2269 2841 1825 2841 
Q 1466 2841 1156 2769 
Q 847 2697 581 2553 
L 581 3406 
Q 941 3494 1303 3539 
Q 1666 3584 2028 3584 
Q 2975 3584 3395 3211 
Q 3816 2838 3816 1997 
z
" transform="scale(0.015625)"/>
      <path id="DejaVuSans-Bold-67" d="M 2919 594 
Q 2688 288 2409 144 
Q 2131 0 1766 0 
Q 1125 0 706 504 
Q 288 1009 288 1791 
Q 288 2575 706 3076 
Q 1125 3578 1766 3578 
Q 2131 3578 2409 3434 
Q 2688 3291 2919 2981 
L 2919 3500 
L 4044 3500 
L 4044 353 
Q 4044 -491 3511 -936 
Q 2978 -1381 1966 -1381 
Q 1638 -1381 1331 -1331 
Q 1025 -1281 716 -1178 
L 716 -306 
Q 1009 -475 1290 -558 
Q 1572 -641 1856 -641 
Q 2406 -641 2662 -400 
Q 2919 -159 2919 353 
L 2919 594 
z
M 2181 2772 
Q 1834 2772 1640 2515 
Q 1447 2259 1447 1791 
Q 1447 1309 1634 1061 
Q 1822 813 2181 813 
Q 2531 813 2725 1069 
Q 2919 1325 2919 1791 
Q 2919 2259 2725 2515 
Q 2531 2772 2181 2772 
z
" transform="scale(0.015625)"/>
      <path id="DejaVuSans-Bold-50" d="M 588 4666 
L 2584 4666 
Q 3475 4666 3951 4270 
Q 4428 3875 4428 3144 
Q 4428 2409 3951 2014 
Q 3475 1619 2584 1619 
L 1791 1619 
L 1791 0 
L 588 0 
L 588 4666 
z
M 1791 3794 
L 1791 2491 
L 2456 2491 
Q 2806 2491 2997 2661 
Q 3188 2831 3188 3144 
Q 3188 3456 2997 3625 
Q 2806 3794 2456 3794 
L 1791 3794 
z
" transform="scale(0.015625)"/>
      <path id="DejaVuSans-Bold-73" d="M 3272 3391 
L 3272 2541 
Q 2913 2691 2578 2766 
Q 2244 2841 1947 2841 
Q 1628 2841 1473 2761 
Q 1319 2681 1319 2516 
Q 1319 2381 1436 2309 
Q 1553 2238 1856 2203 
L 2053 2175 
Q 2913 2066 3209 1816 
Q 3506 1566 3506 1031 
Q 3506 472 3093 190 
Q 2681 -91 1863 -91 
Q 1516 -91 1145 -36 
Q 775 19 384 128 
L 384 978 
Q 719 816 1070 734 
Q 1422 653 1784 653 
Q 2113 653 2278 743 
Q 2444 834 2444 1013 
Q 2444 1163 2330 1236 
Q 2216 1309 1875 1350 
L 1678 1375 
Q 931 1469 631 1722 
Q 331 1975 331 2491 
Q 331 3047 712 3315 
Q 1094 3584 1881 3584 
Q 2191 3584 2531 3537 
Q 2872 3491 3272 3391 
z
" transform="scale(0.015625)"/>
      <path id="DejaVuSans-Bold-28" d="M 2413 -844 
L 1484 -844 
Q 1006 -72 778 623 
Q 550 1319 550 2003 
Q 550 2688 779 3389 
Q 1009 4091 1484 4856 
L 2413 4856 
Q 2013 4116 1813 3408 
Q 1613 2700 1613 2009 
Q 1613 1319 1811 609 
Q 2009 -100 2413 -844 
z
" transform="scale(0.015625)"/>
      <path id="DejaVuSans-Bold-43" d="M 4288 256 
Q 3956 84 3597 -3 
Q 3238 -91 2847 -91 
Q 1681 -91 1000 561 
Q 319 1213 319 2328 
Q 319 3447 1000 4098 
Q 1681 4750 2847 4750 
Q 3238 4750 3597 4662 
Q 3956 4575 4288 4403 
L 4288 3438 
Q 3953 3666 3628 3772 
Q 3303 3878 2944 3878 
Q 2300 3878 1931 3465 
Q 1563 3053 1563 2328 
Q 1563 1606 1931 1193 
Q 2300 781 2944 781 
Q 3303 781 3628 887 
Q 3953 994 4288 1222 
L 4288 256 
z
" transform="scale(0.015625)"/>
      <path id="DejaVuSans-Bold-4b" d="M 588 4666 
L 1791 4666 
L 1791 2963 
L 3525 4666 
L 4922 4666 
L 2675 2456 
L 5153 0 
L 3647 0 
L 1791 1838 
L 1791 0 
L 588 0 
L 588 4666 
z
" transform="scale(0.015625)"/>
      <path id="DejaVuSans-Bold-49" d="M 588 4666 
L 1791 4666 
L 1791 0 
L 588 0 
L 588 4666 
z
" transform="scale(0.015625)"/>
      <path id="DejaVuSans-Bold-2d" d="M 347 2297 
L 2309 2297 
L 2309 1388 
L 347 1388 
L 347 2297 
z
" transform="scale(0.015625)"/>
      <path id="DejaVuSans-Bold-4c" d="M 588 4666 
L 1791 4666 
L 1791 909 
L 3903 909 
L 3903 0 
L 588 0 
L 588 4666 
z
" transform="scale(0.015625)"/>
      <path id="DejaVuSans-Bold-4f" d="M 2719 3878 
Q 2169 3878 1866 3472 
Q 1563 3066 1563 2328 
Q 1563 1594 1866 1187 
Q 2169 781 2719 781 
Q 3272 781 3575 1187 
Q 3878 1594 3878 2328 
Q 3878 3066 3575 3472 
Q 3272 3878 2719 3878 
z
M 2719 4750 
Q 3844 4750 4481 4106 
Q 5119 3463 5119 2328 
Q 5119 1197 4481 553 
Q 3844 -91 2719 -91 
Q 1597 -91 958 553 
Q 319 1197 319 2328 
Q 319 3463 958 4106 
Q 1597 4750 2719 4750 
z
" transform="scale(0.015625)"/>
      <path id="DejaVuSans-Bold-41" d="M 3419 850 
L 1538 850 
L 1241 0 
L 31 0 
L 1759 4666 
L 3194 4666 
L 4922 0 
L 3713 0 
L 3419 850 
z
M 1838 1716 
L 3116 1716 
L 2478 3572 
L 1838 1716 
z
" transform="scale(0.015625)"/>
      <path id="DejaVuSans-Bold-54" d="M 31 4666 
L 4331 4666 
L 4331 3756 
L 2784 3756 
L 2784 0 
L 1581 0 
L 1581 3756 
L 31 3756 
L 31 4666 
z
" transform="scale(0.015625)"/>
      <path id="DejaVuSans-Bold-45" d="M 588 4666 
L 3834 4666 
L 3834 3756 
L 1791 3756 
L 1791 2888 
L 3713 2888 
L 3713 1978 
L 1791 1978 
L 1791 909 
L 3903 909 
L 3903 0 
L 588 0 
L 588 4666 
z
" transform="scale(0.015625)"/>
      <path id="DejaVuSans-Bold-29" d="M 513 -844 
Q 913 -100 1113 609 
Q 1313 1319 1313 2009 
Q 1313 2700 1113 3408 
Q 913 4116 513 4856 
L 1441 4856 
Q 1916 4091 2145 3389 
Q 2375 2688 2375 2003 
Q 2375 1319 2147 623 
Q 1919 -72 1441 -844 
L 513 -844 
z
" transform="scale(0.015625)"/>
     </defs>
     <use xlink:href="#DejaVuSans-Bold-44"/>
     <use xlink:href="#DejaVuSans-Bold-69" x="83.007812"/>
     <use xlink:href="#DejaVuSans-Bold-66" x="117.285156"/>
     <use xlink:href="#DejaVuSans-Bold-66" x="160.791016"/>
     <use xlink:href="#DejaVuSans-Bold-65" x="204.296875"/>
     <use xlink:href="#DejaVuSans-Bold-72" x="272.119141"/>
     <use xlink:href="#DejaVuSans-Bold-65" x="321.435547"/>
     <use xlink:href="#DejaVuSans-Bold-6e" x="389.257812"/>
     <use xlink:href="#DejaVuSans-Bold-63" x="460.449219"/>
     <use xlink:href="#DejaVuSans-Bold-65" x="519.726562"/>
     <use xlink:href="#DejaVuSans-Bold-20" x="587.548828"/>
     <use xlink:href="#DejaVuSans-Bold-69" x="622.363281"/>
     <use xlink:href="#DejaVuSans-Bold-6e" x="656.640625"/>
     <use xlink:href="#DejaVuSans-Bold-20" x="727.832031"/>
     <use xlink:href="#DejaVuSans-Bold-42" x="762.646484"/>
     <use xlink:href="#DejaVuSans-Bold-61" x="838.867188"/>
     <use xlink:href="#DejaVuSans-Bold-67" x="906.347656"/>
     <use xlink:href="#DejaVuSans-Bold-20" x="977.929688"/>
     <use xlink:href="#DejaVuSans-Bold-50" x="1012.744141"/>
     <use xlink:href="#DejaVuSans-Bold-69" x="1086.035156"/>
     <use xlink:href="#DejaVuSans-Bold-65" x="1120.3125"/>
     <use xlink:href="#DejaVuSans-Bold-63" x="1188.134766"/>
     <use xlink:href="#DejaVuSans-Bold-65" x="1247.412109"/>
     <use xlink:href="#DejaVuSans-Bold-73" x="1315.234375"/>
     <use xlink:href="#DejaVuSans-Bold-20" x="1374.755859"/>
     <use xlink:href="#DejaVuSans-Bold-28" x="1409.570312"/>
     <use xlink:href="#DejaVuSans-Bold-43" x="1455.273438"/>
     <use xlink:href="#DejaVuSans-Bold-4b" x="1528.662109"/>
     <use xlink:href="#DejaVuSans-Bold-49" x="1606.152344"/>
     <use xlink:href="#DejaVuSans-Bold-20" x="1643.359375"/>
     <use xlink:href="#DejaVuSans-Bold-2d" x="1678.173828"/>
     <use xlink:href="#DejaVuSans-Bold-20" x="1719.677734"/>
     <use xlink:href="#DejaVuSans-Bold-4c" x="1754.492188"/>
     <use xlink:href="#DejaVuSans-Bold-4f" x="1814.587891"/>
     <use xlink:href="#DejaVuSans-Bold-41" x="1896.972656"/>
     <use xlink:href="#DejaVuSans-Bold-44" x="1974.365234"/>
     <use xlink:href="#DejaVuSans-Bold-54" x="2057.373047"/>
     <use xlink:href="#DejaVuSans-Bold-41" x="2117.835938"/>
     <use xlink:href="#DejaVuSans-Bold-42" x="2195.228516"/>
     <use xlink:href="#DejaVuSans-Bold-4c" x="2271.449219"/>
     <use xlink:href="#DejaVuSans-Bold-45" x="2335.169922"/>
     <use xlink:href="#DejaVuSans-Bold-29" x="2403.480469"/>
    </g>
   </g>
  </g>
  <g id="axes_2">
   <g id="patch_7">
    <path d="M 524.199358 390.04 
L 997.2 390.04 
L 997.2 30.48 
L 524.199358 30.48 
z
" style="fill: #ffffff"/>
   </g>
   <g id="matplotlib.axis_3">
    <g id="xtick_7">
     <g id="line2d_15">
      <g>
       <use xlink:href="#m2d3a7d5944" x="572.025954" y="390.04" style="stroke: #000000; stroke-width: 0.8"/>
      </g>
     </g>
     <g id="text_10">
      <!-- −300 -->
      <g transform="translate(558.29236 404.638438) scale(0.1 -0.1)">
       <use xlink:href="#DejaVuSans-2212"/>
       <use xlink:href="#DejaVuSans-33" x="83.789062"/>
       <use xlink:href="#DejaVuSans-30" x="147.412109"/>
       <use xlink:href="#DejaVuSans-30" x="211.035156"/>
      </g>
     </g>
    </g>
    <g id="xtick_8">
     <g id="line2d_16">
      <g>
       <use xlink:href="#m2d3a7d5944" x="630.529435" y="390.04" style="stroke: #000000; stroke-width: 0.8"/>
      </g>
     </g>
     <g id="text_11">
      <!-- −200 -->
      <g transform="translate(616.795841 404.638438) scale(0.1 -0.1)">
       <use xlink:href="#DejaVuSans-2212"/>
       <use xlink:href="#DejaVuSans-32" x="83.789062"/>
       <use xlink:href="#DejaVuSans-30" x="147.412109"/>
       <use xlink:href="#DejaVuSans-30" x="211.035156"/>
      </g>
     </g>
    </g>
    <g id="xtick_9">
     <g id="line2d_17">
      <g>
       <use xlink:href="#m2d3a7d5944" x="689.032915" y="390.04" style="stroke: #000000; stroke-width: 0.8"/>
      </g>
     </g>
     <g id="text_12">
      <!-- −100 -->
      <g transform="translate(675.299321 404.638438) scale(0.1 -0.1)">
       <use xlink:href="#DejaVuSans-2212"/>
       <use xlink:href="#DejaVuSans-31" x="83.789062"/>
       <use xlink:href="#DejaVuSans-30" x="147.412109"/>
       <use xlink:href="#DejaVuSans-30" x="211.035156"/>
      </g>
     </g>
    </g>
    <g id="xtick_10">
     <g id="line2d_18">
      <g>
       <use xlink:href="#m2d3a7d5944" x="747.536396" y="390.04" style="stroke: #000000; stroke-width: 0.8"/>
      </g>
     </g>
     <g id="text_13">
      <!-- 0 -->
      <g transform="translate(744.355146 404.638438) scale(0.1 -0.1)">
       <use xlink:href="#DejaVuSans-30"/>
      </g>
     </g>
    </g>
    <g id="xtick_11">
     <g id="line2d_19">
      <g>
       <use xlink:href="#m2d3a7d5944" x="806.039877" y="390.04" style="stroke: #000000; stroke-width: 0.8"/>
      </g>
     </g>
     <g id="text_14">
      <!-- 100 -->
      <g transform="translate(796.496127 404.638438) scale(0.1 -0.1)">
       <use xlink:href="#DejaVuSans-31"/>
       <use xlink:href="#DejaVuSans-30" x="63.623047"/>
       <use xlink:href="#DejaVuSans-30" x="127.246094"/>
      </g>
     </g>
    </g>
    <g id="xtick_12">
     <g id="line2d_20">
      <g>
       <use xlink:href="#m2d3a7d5944" x="864.543357" y="390.04" style="stroke: #000000; stroke-width: 0.8"/>
      </g>
     </g>
     <g id="text_15">
      <!-- 200 -->
      <g transform="translate(854.999607 404.638438) scale(0.1 -0.1)">
       <use xlink:href="#DejaVuSans-32"/>
       <use xlink:href="#DejaVuSans-30" x="63.623047"/>
       <use xlink:href="#DejaVuSans-30" x="127.246094"/>
      </g>
     </g>
    </g>
    <g id="xtick_13">
     <g id="line2d_21">
      <g>
       <use xlink:href="#m2d3a7d5944" x="923.046838" y="390.04" style="stroke: #000000; stroke-width: 0.8"/>
      </g>
     </g>
     <g id="text_16">
      <!-- 300 -->
      <g transform="translate(913.503088 404.638438) scale(0.1 -0.1)">
       <use xlink:href="#DejaVuSans-33"/>
       <use xlink:href="#DejaVuSans-30" x="63.623047"/>
       <use xlink:href="#DejaVuSans-30" x="127.246094"/>
      </g>
     </g>
    </g>
    <g id="xtick_14">
     <g id="line2d_22">
      <g>
       <use xlink:href="#m2d3a7d5944" x="981.550319" y="390.04" style="stroke: #000000; stroke-width: 0.8"/>
      </g>
     </g>
     <g id="text_17">
      <!-- 400 -->
      <g transform="translate(972.006569 404.638438) scale(0.1 -0.1)">
       <defs>
        <path id="DejaVuSans-34" d="M 2419 4116 
L 825 1625 
L 2419 1625 
L 2419 4116 
z
M 2253 4666 
L 3047 4666 
L 3047 1625 
L 3713 1625 
L 3713 1100 
L 3047 1100 
L 3047 0 
L 2419 0 
L 2419 1100 
L 313 1100 
L 313 1709 
L 2253 4666 
z
" transform="scale(0.015625)"/>
       </defs>
       <use xlink:href="#DejaVuSans-34"/>
       <use xlink:href="#DejaVuSans-30" x="63.623047"/>
       <use xlink:href="#DejaVuSans-30" x="127.246094"/>
      </g>
     </g>
    </g>
    <g id="text_18">
     <!-- Difference in Weight (kg) -->
     <g transform="translate(698.134835 418.316562) scale(0.1 -0.1)">
      <defs>
       <path id="DejaVuSans-57" d="M 213 4666 
L 850 4666 
L 1831 722 
L 2809 4666 
L 3519 4666 
L 4500 722 
L 5478 4666 
L 6119 4666 
L 4947 0 
L 4153 0 
L 3169 4050 
L 2175 0 
L 1381 0 
L 213 4666 
z
" transform="scale(0.015625)"/>
       <path id="DejaVuSans-67" d="M 2906 1791 
Q 2906 2416 2648 2759 
Q 2391 3103 1925 3103 
Q 1463 3103 1205 2759 
Q 947 2416 947 1791 
Q 947 1169 1205 825 
Q 1463 481 1925 481 
Q 2391 481 2648 825 
Q 2906 1169 2906 1791 
z
M 3481 434 
Q 3481 -459 3084 -895 
Q 2688 -1331 1869 -1331 
Q 1566 -1331 1297 -1286 
Q 1028 -1241 775 -1147 
L 775 -588 
Q 1028 -725 1275 -790 
Q 1522 -856 1778 -856 
Q 2344 -856 2625 -561 
Q 2906 -266 2906 331 
L 2906 616 
Q 2728 306 2450 153 
Q 2172 0 1784 0 
Q 1141 0 747 490 
Q 353 981 353 1791 
Q 353 2603 747 3093 
Q 1141 3584 1784 3584 
Q 2172 3584 2450 3431 
Q 2728 3278 2906 2969 
L 2906 3500 
L 3481 3500 
L 3481 434 
z
" transform="scale(0.015625)"/>
       <path id="DejaVuSans-68" d="M 3513 2113 
L 3513 0 
L 2938 0 
L 2938 2094 
Q 2938 2591 2744 2837 
Q 2550 3084 2163 3084 
Q 1697 3084 1428 2787 
Q 1159 2491 1159 1978 
L 1159 0 
L 581 0 
L 581 4863 
L 1159 4863 
L 1159 2956 
Q 1366 3272 1645 3428 
Q 1925 3584 2291 3584 
Q 2894 3584 3203 3211 
Q 3513 2838 3513 2113 
z
" transform="scale(0.015625)"/>
       <path id="DejaVuSans-74" d="M 1172 4494 
L 1172 3500 
L 2356 3500 
L 2356 3053 
L 1172 3053 
L 1172 1153 
Q 1172 725 1289 603 
Q 1406 481 1766 481 
L 2356 481 
L 2356 0 
L 1766 0 
Q 1100 0 847 248 
Q 594 497 594 1153 
L 594 3053 
L 172 3053 
L 172 3500 
L 594 3500 
L 594 4494 
L 1172 4494 
z
" transform="scale(0.015625)"/>
       <path id="DejaVuSans-28" d="M 1984 4856 
Q 1566 4138 1362 3434 
Q 1159 2731 1159 2009 
Q 1159 1288 1364 580 
Q 1569 -128 1984 -844 
L 1484 -844 
Q 1016 -109 783 600 
Q 550 1309 550 2009 
Q 550 2706 781 3412 
Q 1013 4119 1484 4856 
L 1984 4856 
z
" transform="scale(0.015625)"/>
       <path id="DejaVuSans-6b" d="M 581 4863 
L 1159 4863 
L 1159 1991 
L 2875 3500 
L 3609 3500 
L 1753 1863 
L 3688 0 
L 2938 0 
L 1159 1709 
L 1159 0 
L 581 0 
L 581 4863 
z
" transform="scale(0.015625)"/>
       <path id="DejaVuSans-29" d="M 513 4856 
L 1013 4856 
Q 1481 4119 1714 3412 
Q 1947 2706 1947 2009 
Q 1947 1309 1714 600 
Q 1481 -109 1013 -844 
L 513 -844 
Q 928 -128 1133 580 
Q 1338 1288 1338 2009 
Q 1338 2731 1133 3434 
Q 928 4138 513 4856 
z
" transform="scale(0.015625)"/>
      </defs>
      <use xlink:href="#DejaVuSans-44"/>
      <use xlink:href="#DejaVuSans-69" x="77.001953"/>
      <use xlink:href="#DejaVuSans-66" x="104.785156"/>
      <use xlink:href="#DejaVuSans-66" x="139.990234"/>
      <use xlink:href="#DejaVuSans-65" x="175.195312"/>
      <use xlink:href="#DejaVuSans-72" x="236.71875"/>
      <use xlink:href="#DejaVuSans-65" x="275.582031"/>
      <use xlink:href="#DejaVuSans-6e" x="337.105469"/>
      <use xlink:href="#DejaVuSans-63" x="400.484375"/>
      <use xlink:href="#DejaVuSans-65" x="455.464844"/>
      <use xlink:href="#DejaVuSans-20" x="516.988281"/>
      <use xlink:href="#DejaVuSans-69" x="548.775391"/>
      <use xlink:href="#DejaVuSans-6e" x="576.558594"/>
      <use xlink:href="#DejaVuSans-20" x="639.9375"/>
      <use xlink:href="#DejaVuSans-57" x="671.724609"/>
      <use xlink:href="#DejaVuSans-65" x="764.726562"/>
      <use xlink:href="#DejaVuSans-69" x="826.25"/>
      <use xlink:href="#DejaVuSans-67" x="854.033203"/>
      <use xlink:href="#DejaVuSans-68" x="917.509766"/>
      <use xlink:href="#DejaVuSans-74" x="980.888672"/>
      <use xlink:href="#DejaVuSans-20" x="1020.097656"/>
      <use xlink:href="#DejaVuSans-28" x="1051.884766"/>
      <use xlink:href="#DejaVuSans-6b" x="1090.898438"/>
      <use xlink:href="#DejaVuSans-67" x="1148.808594"/>
      <use xlink:href="#DejaVuSans-29" x="1212.285156"/>
     </g>
    </g>
   </g>
   <g id="matplotlib.axis_4">
    <g id="ytick_2">
     <g id="line2d_23">
      <g>
       <use xlink:href="#m1382a8147a" x="524.199358" y="210.26" style="stroke: #000000; stroke-width: 0.8"/>
      </g>
     </g>
     <g id="text_19">
      <!-- 1 -->
      <g transform="translate(510.836858 214.059219) scale(0.1 -0.1)">
       <use xlink:href="#DejaVuSans-31"/>
      </g>
     </g>
    </g>
   </g>
   <g id="line2d_24">
    <path d="M 739.930943 237.227 
L 739.930943 183.293 
L 773.862962 183.293 
L 773.862962 237.227 
L 739.930943 237.227 
" clip-path="url(#p764ea6d697)" style="fill: none; stroke: #000000; stroke-linecap: square"/>
   </g>
   <g id="line2d_25">
    <path d="M 739.930943 210.26 
L 694.298229 210.26 
" clip-path="url(#p764ea6d697)" style="fill: none; stroke: #000000; stroke-linecap: square"/>
   </g>
   <g id="line2d_26">
    <path d="M 773.862962 210.26 
L 823.590921 210.26 
" clip-path="url(#p764ea6d697)" style="fill: none; stroke: #000000; stroke-linecap: square"/>
   </g>
   <g id="line2d_27">
    <path d="M 694.298229 223.7435 
L 694.298229 196.7765 
" clip-path="url(#p764ea6d697)" style="fill: none; stroke: #000000; stroke-linecap: square"/>
   </g>
   <g id="line2d_28">
    <path d="M 823.590921 223.7435 
L 823.590921 196.7765 
" clip-path="url(#p764ea6d697)" style="fill: none; stroke: #000000; stroke-linecap: square"/>
   </g>
   <g id="line2d_29">
    <g clip-path="url(#p764ea6d697)">
     <use xlink:href="#mcb7379aab5" x="686.107741" y="210.26" style="fill-opacity: 0; stroke: #000000"/>
     <use xlink:href="#mcb7379aab5" x="677.332219" y="210.26" style="fill-opacity: 0; stroke: #000000"/>
     <use xlink:href="#mcb7379aab5" x="659.781175" y="210.26" style="fill-opacity: 0; stroke: #000000"/>
     <use xlink:href="#mcb7379aab5" x="642.230131" y="210.26" style="fill-opacity: 0; stroke: #000000"/>
     <use xlink:href="#mcb7379aab5" x="651.005653" y="210.26" style="fill-opacity: 0; stroke: #000000"/>
     <use xlink:href="#mcb7379aab5" x="659.781175" y="210.26" style="fill-opacity: 0; stroke: #000000"/>
     <use xlink:href="#mcb7379aab5" x="659.781175" y="210.26" style="fill-opacity: 0; stroke: #000000"/>
     <use xlink:href="#mcb7379aab5" x="677.332219" y="210.26" style="fill-opacity: 0; stroke: #000000"/>
     <use xlink:href="#mcb7379aab5" x="554.47491" y="210.26" style="fill-opacity: 0; stroke: #000000"/>
     <use xlink:href="#mcb7379aab5" x="642.230131" y="210.26" style="fill-opacity: 0; stroke: #000000"/>
     <use xlink:href="#mcb7379aab5" x="659.781175" y="210.26" style="fill-opacity: 0; stroke: #000000"/>
     <use xlink:href="#mcb7379aab5" x="598.35252" y="210.26" style="fill-opacity: 0; stroke: #000000"/>
     <use xlink:href="#mcb7379aab5" x="686.107741" y="210.26" style="fill-opacity: 0; stroke: #000000"/>
     <use xlink:href="#mcb7379aab5" x="677.332219" y="210.26" style="fill-opacity: 0; stroke: #000000"/>
     <use xlink:href="#mcb7379aab5" x="686.107741" y="210.26" style="fill-opacity: 0; stroke: #000000"/>
     <use xlink:href="#mcb7379aab5" x="572.025954" y="210.26" style="fill-opacity: 0; stroke: #000000"/>
     <use xlink:href="#mcb7379aab5" x="545.699387" y="210.26" style="fill-opacity: 0; stroke: #000000"/>
     <use xlink:href="#mcb7379aab5" x="668.556697" y="210.26" style="fill-opacity: 0; stroke: #000000"/>
     <use xlink:href="#mcb7379aab5" x="659.781175" y="210.26" style="fill-opacity: 0; stroke: #000000"/>
     <use xlink:href="#mcb7379aab5" x="663.876419" y="210.26" style="fill-opacity: 0; stroke: #000000"/>
     <use xlink:href="#mcb7379aab5" x="844.067139" y="210.26" style="fill-opacity: 0; stroke: #000000"/>
     <use xlink:href="#mcb7379aab5" x="870.393706" y="210.26" style="fill-opacity: 0; stroke: #000000"/>
     <use xlink:href="#mcb7379aab5" x="835.291617" y="210.26" style="fill-opacity: 0; stroke: #000000"/>
     <use xlink:href="#mcb7379aab5" x="879.169228" y="210.26" style="fill-opacity: 0; stroke: #000000"/>
     <use xlink:href="#mcb7379aab5" x="852.842661" y="210.26" style="fill-opacity: 0; stroke: #000000"/>
     <use xlink:href="#mcb7379aab5" x="940.597882" y="210.26" style="fill-opacity: 0; stroke: #000000"/>
     <use xlink:href="#mcb7379aab5" x="870.393706" y="210.26" style="fill-opacity: 0; stroke: #000000"/>
     <use xlink:href="#mcb7379aab5" x="975.699971" y="210.26" style="fill-opacity: 0; stroke: #000000"/>
     <use xlink:href="#mcb7379aab5" x="826.516095" y="210.26" style="fill-opacity: 0; stroke: #000000"/>
     <use xlink:href="#mcb7379aab5" x="826.516095" y="210.26" style="fill-opacity: 0; stroke: #000000"/>
     <use xlink:href="#mcb7379aab5" x="846.407278" y="210.26" style="fill-opacity: 0; stroke: #000000"/>
     <use xlink:href="#mcb7379aab5" x="846.407278" y="210.26" style="fill-opacity: 0; stroke: #000000"/>
     <use xlink:href="#mcb7379aab5" x="907.250898" y="210.26" style="fill-opacity: 0; stroke: #000000"/>
     <use xlink:href="#mcb7379aab5" x="861.618183" y="210.26" style="fill-opacity: 0; stroke: #000000"/>
     <use xlink:href="#mcb7379aab5" x="831.196373" y="210.26" style="fill-opacity: 0; stroke: #000000"/>
     <use xlink:href="#mcb7379aab5" x="861.618183" y="210.26" style="fill-opacity: 0; stroke: #000000"/>
     <use xlink:href="#mcb7379aab5" x="838.801826" y="210.26" style="fill-opacity: 0; stroke: #000000"/>
     <use xlink:href="#mcb7379aab5" x="869.223636" y="210.26" style="fill-opacity: 0; stroke: #000000"/>
     <use xlink:href="#mcb7379aab5" x="846.407278" y="210.26" style="fill-opacity: 0; stroke: #000000"/>
     <use xlink:href="#mcb7379aab5" x="838.801826" y="210.26" style="fill-opacity: 0; stroke: #000000"/>
     <use xlink:href="#mcb7379aab5" x="831.196373" y="210.26" style="fill-opacity: 0; stroke: #000000"/>
     <use xlink:href="#mcb7379aab5" x="861.618183" y="210.26" style="fill-opacity: 0; stroke: #000000"/>
     <use xlink:href="#mcb7379aab5" x="960.489066" y="210.26" style="fill-opacity: 0; stroke: #000000"/>
     <use xlink:href="#mcb7379aab5" x="838.801826" y="210.26" style="fill-opacity: 0; stroke: #000000"/>
     <use xlink:href="#mcb7379aab5" x="846.407278" y="210.26" style="fill-opacity: 0; stroke: #000000"/>
     <use xlink:href="#mcb7379aab5" x="831.196373" y="210.26" style="fill-opacity: 0; stroke: #000000"/>
     <use xlink:href="#mcb7379aab5" x="846.407278" y="210.26" style="fill-opacity: 0; stroke: #000000"/>
     <use xlink:href="#mcb7379aab5" x="876.829088" y="210.26" style="fill-opacity: 0; stroke: #000000"/>
     <use xlink:href="#mcb7379aab5" x="831.196373" y="210.26" style="fill-opacity: 0; stroke: #000000"/>
     <use xlink:href="#mcb7379aab5" x="846.407278" y="210.26" style="fill-opacity: 0; stroke: #000000"/>
    </g>
   </g>
   <g id="line2d_30">
    <path d="M 756.311918 237.227 
L 756.311918 183.293 
" clip-path="url(#p764ea6d697)" style="fill: none; stroke: #ff7f0e"/>
   </g>
   <g id="patch_8">
    <path d="M 524.199358 390.04 
L 524.199358 30.48 
" style="fill: none; stroke: #000000; stroke-width: 0.8; stroke-linejoin: miter; stroke-linecap: square"/>
   </g>
   <g id="patch_9">
    <path d="M 997.2 390.04 
L 997.2 30.48 
" style="fill: none; stroke: #000000; stroke-width: 0.8; stroke-linejoin: miter; stroke-linecap: square"/>
   </g>
   <g id="patch_10">
    <path d="M 524.199358 390.04 
L 997.2 390.04 
" style="fill: none; stroke: #000000; stroke-width: 0.8; stroke-linejoin: miter; stroke-linecap: square"/>
   </g>
   <g id="patch_11">
    <path d="M 524.199358 30.48 
L 997.2 30.48 
" style="fill: none; stroke: #000000; stroke-width: 0.8; stroke-linejoin: miter; stroke-linecap: square"/>
   </g>
   <g id="text_20">
    <!-- Difference in Bag Weight (CKI - LOADTABLE) -->
    <g transform="translate(536.913273 24.48) scale(0.18 -0.18)">
     <defs>
      <path id="DejaVuSans-Bold-57" d="M 191 4666 
L 1344 4666 
L 2150 1275 
L 2950 4666 
L 4109 4666 
L 4909 1275 
L 5716 4666 
L 6859 4666 
L 5759 0 
L 4372 0 
L 3525 3547 
L 2688 0 
L 1300 0 
L 191 4666 
z
" transform="scale(0.015625)"/>
      <path id="DejaVuSans-Bold-68" d="M 4056 2131 
L 4056 0 
L 2931 0 
L 2931 347 
L 2931 1625 
Q 2931 2084 2911 2256 
Q 2891 2428 2841 2509 
Q 2775 2619 2662 2680 
Q 2550 2741 2406 2741 
Q 2056 2741 1856 2470 
Q 1656 2200 1656 1722 
L 1656 0 
L 538 0 
L 538 4863 
L 1656 4863 
L 1656 2988 
Q 1909 3294 2193 3439 
Q 2478 3584 2822 3584 
Q 3428 3584 3742 3212 
Q 4056 2841 4056 2131 
z
" transform="scale(0.015625)"/>
      <path id="DejaVuSans-Bold-74" d="M 1759 4494 
L 1759 3500 
L 2913 3500 
L 2913 2700 
L 1759 2700 
L 1759 1216 
Q 1759 972 1856 886 
Q 1953 800 2241 800 
L 2816 800 
L 2816 0 
L 1856 0 
Q 1194 0 917 276 
Q 641 553 641 1216 
L 641 2700 
L 84 2700 
L 84 3500 
L 641 3500 
L 641 4494 
L 1759 4494 
z
" transform="scale(0.015625)"/>
     </defs>
     <use xlink:href="#DejaVuSans-Bold-44"/>
     <use xlink:href="#DejaVuSans-Bold-69" x="83.007812"/>
     <use xlink:href="#DejaVuSans-Bold-66" x="117.285156"/>
     <use xlink:href="#DejaVuSans-Bold-66" x="160.791016"/>
     <use xlink:href="#DejaVuSans-Bold-65" x="204.296875"/>
     <use xlink:href="#DejaVuSans-Bold-72" x="272.119141"/>
     <use xlink:href="#DejaVuSans-Bold-65" x="321.435547"/>
     <use xlink:href="#DejaVuSans-Bold-6e" x="389.257812"/>
     <use xlink:href="#DejaVuSans-Bold-63" x="460.449219"/>
     <use xlink:href="#DejaVuSans-Bold-65" x="519.726562"/>
     <use xlink:href="#DejaVuSans-Bold-20" x="587.548828"/>
     <use xlink:href="#DejaVuSans-Bold-69" x="622.363281"/>
     <use xlink:href="#DejaVuSans-Bold-6e" x="656.640625"/>
     <use xlink:href="#DejaVuSans-Bold-20" x="727.832031"/>
     <use xlink:href="#DejaVuSans-Bold-42" x="762.646484"/>
     <use xlink:href="#DejaVuSans-Bold-61" x="838.867188"/>
     <use xlink:href="#DejaVuSans-Bold-67" x="906.347656"/>
     <use xlink:href="#DejaVuSans-Bold-20" x="977.929688"/>
     <use xlink:href="#DejaVuSans-Bold-57" x="1012.744141"/>
     <use xlink:href="#DejaVuSans-Bold-65" x="1119.421875"/>
     <use xlink:href="#DejaVuSans-Bold-69" x="1187.244141"/>
     <use xlink:href="#DejaVuSans-Bold-67" x="1221.521484"/>
     <use xlink:href="#DejaVuSans-Bold-68" x="1293.103516"/>
     <use xlink:href="#DejaVuSans-Bold-74" x="1364.294922"/>
     <use xlink:href="#DejaVuSans-Bold-20" x="1412.097656"/>
     <use xlink:href="#DejaVuSans-Bold-28" x="1446.912109"/>
     <use xlink:href="#DejaVuSans-Bold-43" x="1492.615234"/>
     <use xlink:href="#DejaVuSans-Bold-4b" x="1566.003906"/>
     <use xlink:href="#DejaVuSans-Bold-49" x="1643.494141"/>
     <use xlink:href="#DejaVuSans-Bold-20" x="1680.701172"/>
     <use xlink:href="#DejaVuSans-Bold-2d" x="1715.515625"/>
     <use xlink:href="#DejaVuSans-Bold-20" x="1757.019531"/>
     <use xlink:href="#DejaVuSans-Bold-4c" x="1791.833984"/>
     <use xlink:href="#DejaVuSans-Bold-4f" x="1851.929688"/>
     <use xlink:href="#DejaVuSans-Bold-41" x="1934.314453"/>
     <use xlink:href="#DejaVuSans-Bold-44" x="2011.707031"/>
     <use xlink:href="#DejaVuSans-Bold-54" x="2094.714844"/>
     <use xlink:href="#DejaVuSans-Bold-41" x="2155.177734"/>
     <use xlink:href="#DejaVuSans-Bold-42" x="2232.570312"/>
     <use xlink:href="#DejaVuSans-Bold-4c" x="2308.791016"/>
     <use xlink:href="#DejaVuSans-Bold-45" x="2372.511719"/>
     <use xlink:href="#DejaVuSans-Bold-29" x="2440.822266"/>
    </g>
   </g>
  </g>
 </g>
 <defs>
  <clipPath id="pb1f2c23779">
   <rect x="24.19" y="30.48" width="473.000642" height="359.56"/>
  </clipPath>
  <clipPath id="p764ea6d697">
   <rect x="524.199358" y="30.48" width="473.000642" height="359.56"/>
  </clipPath>
 </defs>
</svg>
