<?xml version="1.0" encoding="utf-8" standalone="no"?>
<!DOCTYPE svg PUBLIC "-//W3C//DTD SVG 1.1//EN"
  "http://www.w3.org/Graphics/SVG/1.1/DTD/svg11.dtd">
<svg xmlns:xlink="http://www.w3.org/1999/xlink" width="460.8pt" height="345.6pt" viewBox="0 0 460.8 345.6" xmlns="http://www.w3.org/2000/svg" version="1.1">
 <metadata>
  <rdf:RDF xmlns:dc="http://purl.org/dc/elements/1.1/" xmlns:cc="http://creativecommons.org/ns#" xmlns:rdf="http://www.w3.org/1999/02/22-rdf-syntax-ns#">
   <cc:Work>
    <dc:type rdf:resource="http://purl.org/dc/dcmitype/StillImage"/>
    <dc:date>2024-07-12T11:12:33.519537</dc:date>
    <dc:format>image/svg+xml</dc:format>
    <dc:creator>
     <cc:Agent>
      <dc:title>Matplotlib v3.8.4, https://matplotlib.org/</dc:title>
     </cc:Agent>
    </dc:creator>
   </cc:Work>
  </rdf:RDF>
 </metadata>
 <defs>
  <style type="text/css">*{stroke-linejoin: round; stroke-linecap: butt}</style>
 </defs>
 <g id="figure_1">
  <g id="patch_1">
   <path d="M 0 345.6 
L 460.8 345.6 
L 460.8 0 
L 0 0 
z
" style="fill: #ffffff"/>
  </g>
  <g id="axes_1">
   <g id="patch_2">
    <path d="M 57.6 307.584 
L 414.72 307.584 
L 414.72 41.472 
L 57.6 41.472 
z
" style="fill: #ffffff"/>
   </g>
   <g id="patch_3">
    <path d="M 69.504 307.584 
L 164.736 307.584 
L 164.736 54.144 
L 69.504 54.144 
z
" clip-path="url(#pf906a835f3)" style="fill: #3470a3"/>
   </g>
   <g id="patch_4">
    <path d="M 188.544 307.584 
L 283.776 307.584 
L 283.776 276.708061 
L 188.544 276.708061 
z
" clip-path="url(#pf906a835f3)" style="fill: #79abc9"/>
   </g>
   <g id="patch_5">
    <path d="M 307.584 307.584 
L 402.816 307.584 
L 402.816 283.622985 
L 307.584 283.622985 
z
" clip-path="url(#pf906a835f3)" style="fill: #ccdbea"/>
   </g>
   <g id="matplotlib.axis_1">
    <g id="xtick_1">
     <g id="line2d_1">
      <defs>
       <path id="m667734fb29" d="M 0 0 
L 0 3.5 
" style="stroke: #000000; stroke-width: 0.8"/>
      </defs>
      <g>
       <use xlink:href="#m667734fb29" x="117.12" y="307.584" style="stroke: #000000; stroke-width: 0.8"/>
      </g>
     </g>
     <g id="text_1">
      <!-- ZY -->
      <g transform="translate(110.730156 321.763687) scale(0.1 -0.1)">
       <defs>
        <path id="Helvetica-5a" d="M 3763 550 
L 934 550 
L 3763 4058 
L 3763 4595 
L 358 4595 
L 358 4045 
L 2963 4045 
L 147 518 
L 147 0 
L 3763 0 
L 3763 550 
z
" transform="scale(0.015625)"/>
        <path id="Helvetica-59" d="M 2445 1850 
L 4179 4595 
L 3450 4595 
L 2131 2387 
L 813 4595 
L 90 4595 
L 1824 1850 
L 1824 0 
L 2445 0 
L 2445 1850 
z
" transform="scale(0.015625)"/>
       </defs>
       <use xlink:href="#Helvetica-5a"/>
       <use xlink:href="#Helvetica-59" x="61.099991"/>
      </g>
     </g>
    </g>
    <g id="xtick_2">
     <g id="line2d_2">
      <g>
       <use xlink:href="#m667734fb29" x="236.16" y="307.584" style="stroke: #000000; stroke-width: 0.8"/>
      </g>
     </g>
     <g id="text_2">
      <!-- MN -->
      <g transform="translate(228.385 321.763687) scale(0.1 -0.1)">
       <defs>
        <path id="Helvetica-4d" d="M 4870 0 
L 4870 4595 
L 3987 4595 
L 2682 710 
L 2669 710 
L 1357 4595 
L 467 4595 
L 467 0 
L 1069 0 
L 1069 2714 
C 1069 2848 1056 3430 1056 3853 
L 1069 3853 
L 2362 0 
L 2976 0 
L 4269 3859 
L 4282 3859 
C 4282 3430 4269 2848 4269 2714 
L 4269 0 
L 4870 0 
z
" transform="scale(0.015625)"/>
        <path id="Helvetica-4e" d="M 3533 883 
L 3520 883 
L 1222 4595 
L 486 4595 
L 486 0 
L 1088 0 
L 1088 3712 
L 1101 3712 
L 3437 0 
L 4134 0 
L 4134 4595 
L 3533 4595 
L 3533 883 
z
" transform="scale(0.015625)"/>
       </defs>
       <use xlink:href="#Helvetica-4d"/>
       <use xlink:href="#Helvetica-4e" x="83.299988"/>
      </g>
     </g>
    </g>
    <g id="xtick_3">
     <g id="line2d_3">
      <g>
       <use xlink:href="#m667734fb29" x="355.2" y="307.584" style="stroke: #000000; stroke-width: 0.8"/>
      </g>
     </g>
     <g id="text_3">
      <!-- AB -->
      <g transform="translate(348.529687 321.763687) scale(0.1 -0.1)">
       <defs>
        <path id="Helvetica-41" d="M 3053 1338 
L 3507 0 
L 4186 0 
L 2522 4595 
L 1818 4595 
L 90 0 
L 730 0 
L 1210 1338 
L 3053 1338 
z
M 1402 1888 
L 2138 3910 
L 2150 3910 
L 2829 1888 
L 1402 1888 
z
" transform="scale(0.015625)"/>
        <path id="Helvetica-42" d="M 1094 4064 
L 2221 4064 
C 2912 4064 3174 3821 3174 3392 
C 3174 2829 2810 2650 2214 2650 
L 1094 2650 
L 1094 4064 
z
M 474 0 
L 2451 0 
C 3469 0 4013 621 4013 1357 
C 4013 2144 3482 2355 3181 2477 
C 3686 2714 3795 3136 3795 3437 
C 3795 4064 3354 4595 2496 4595 
L 474 4595 
L 474 0 
z
M 1094 2144 
L 2317 2144 
C 2822 2144 3392 2016 3392 1370 
C 3392 858 3066 531 2419 531 
L 1094 531 
L 1094 2144 
z
" transform="scale(0.015625)"/>
       </defs>
       <use xlink:href="#Helvetica-41"/>
       <use xlink:href="#Helvetica-42" x="66.699997"/>
      </g>
     </g>
    </g>
    <g id="text_4">
     <!-- Airline Code -->
     <g transform="translate(208.931094 335.013687) scale(0.1 -0.1)">
      <defs>
       <path id="Helvetica-69" d="M 992 3347 
L 429 3347 
L 429 0 
L 992 0 
L 992 3347 
z
M 992 3955 
L 992 4595 
L 429 4595 
L 429 3955 
L 992 3955 
z
" transform="scale(0.015625)"/>
       <path id="Helvetica-72" d="M 1056 1946 
C 1056 2432 1389 2842 1914 2842 
L 2125 2842 
L 2125 3424 
C 2080 3437 2048 3443 1978 3443 
C 1555 3443 1261 3181 1037 2790 
L 1024 2790 
L 1024 3347 
L 493 3347 
L 493 0 
L 1056 0 
L 1056 1946 
z
" transform="scale(0.015625)"/>
       <path id="Helvetica-6c" d="M 992 4595 
L 429 4595 
L 429 0 
L 992 0 
L 992 4595 
z
" transform="scale(0.015625)"/>
       <path id="Helvetica-6e" d="M 3142 2278 
C 3142 3232 2490 3443 1971 3443 
C 1395 3443 1082 3053 960 2874 
L 947 2874 
L 947 3347 
L 416 3347 
L 416 0 
L 979 0 
L 979 1824 
C 979 2733 1542 2938 1862 2938 
C 2413 2938 2579 2643 2579 2061 
L 2579 0 
L 3142 0 
L 3142 2278 
z
" transform="scale(0.015625)"/>
       <path id="Helvetica-65" d="M 2694 1050 
C 2675 800 2362 390 1830 390 
C 1184 390 858 794 858 1491 
L 3302 1491 
C 3302 2675 2829 3443 1862 3443 
C 755 3443 256 2618 256 1581 
C 256 614 813 -96 1754 -96 
C 2291 -96 2509 32 2662 134 
C 3085 416 3238 890 3258 1050 
L 2694 1050 
z
M 858 1939 
C 858 2458 1267 2938 1786 2938 
C 2470 2938 2688 2458 2720 1939 
L 858 1939 
z
" transform="scale(0.015625)"/>
       <path id="Helvetica-20" transform="scale(0.015625)"/>
       <path id="Helvetica-43" d="M 4314 3213 
C 4224 3981 3610 4717 2426 4717 
C 1088 4717 282 3738 282 2323 
C 282 557 1306 -122 2349 -122 
C 2694 -122 4102 -45 4358 1690 
L 3757 1690 
C 3546 621 2848 429 2445 429 
C 1306 429 922 1261 922 2342 
C 922 3552 1594 4166 2426 4166 
C 2867 4166 3539 4019 3712 3213 
L 4314 3213 
z
" transform="scale(0.015625)"/>
       <path id="Helvetica-6f" d="M 224 1677 
C 224 813 710 -90 1779 -90 
C 2848 -90 3334 813 3334 1677 
C 3334 2541 2848 3443 1779 3443 
C 710 3443 224 2541 224 1677 
z
M 806 1677 
C 806 2125 973 2957 1779 2957 
C 2586 2957 2752 2125 2752 1677 
C 2752 1229 2586 397 1779 397 
C 973 397 806 1229 806 1677 
z
" transform="scale(0.015625)"/>
       <path id="Helvetica-64" d="M 3194 4595 
L 2630 4595 
L 2630 2918 
L 2618 2874 
C 2483 3066 2227 3443 1619 3443 
C 730 3443 224 2714 224 1773 
C 224 973 557 -96 1696 -96 
C 2022 -96 2406 6 2650 461 
L 2662 461 
L 2662 0 
L 3194 0 
L 3194 4595 
z
M 806 1683 
C 806 2112 851 2938 1722 2938 
C 2534 2938 2624 2061 2624 1517 
C 2624 627 2067 390 1709 390 
C 1094 390 806 947 806 1683 
z
" transform="scale(0.015625)"/>
      </defs>
      <use xlink:href="#Helvetica-41"/>
      <use xlink:href="#Helvetica-69" x="66.699997"/>
      <use xlink:href="#Helvetica-72" x="88.899994"/>
      <use xlink:href="#Helvetica-6c" x="122.199982"/>
      <use xlink:href="#Helvetica-69" x="144.399979"/>
      <use xlink:href="#Helvetica-6e" x="166.599976"/>
      <use xlink:href="#Helvetica-65" x="222.199966"/>
      <use xlink:href="#Helvetica-20" x="277.799957"/>
      <use xlink:href="#Helvetica-43" x="305.599945"/>
      <use xlink:href="#Helvetica-6f" x="377.799927"/>
      <use xlink:href="#Helvetica-64" x="433.399918"/>
      <use xlink:href="#Helvetica-65" x="488.999908"/>
     </g>
    </g>
   </g>
   <g id="matplotlib.axis_2">
    <g id="ytick_1">
     <g id="line2d_4">
      <defs>
       <path id="m6fcaf7cd24" d="M 0 0 
L -3.5 0 
" style="stroke: #000000; stroke-width: 0.8"/>
      </defs>
      <g>
       <use xlink:href="#m6fcaf7cd24" x="57.6" y="307.584" style="stroke: #000000; stroke-width: 0.8"/>
      </g>
     </g>
     <g id="text_5">
      <!-- 0 -->
      <g transform="translate(45.040625 311.173844) scale(0.1 -0.1)">
       <defs>
        <path id="Helvetica-30" d="M 2720 2189 
C 2720 1062 2426 384 1779 384 
C 1133 384 838 1062 838 2189 
C 838 3315 1133 3994 1779 3994 
C 2426 3994 2720 3315 2720 2189 
z
M 3322 2189 
C 3322 3123 3072 4499 1779 4499 
C 486 4499 237 3123 237 2189 
C 237 1254 486 -122 1779 -122 
C 3072 -122 3322 1254 3322 2189 
z
" transform="scale(0.015625)"/>
       </defs>
       <use xlink:href="#Helvetica-30"/>
      </g>
     </g>
    </g>
    <g id="ytick_2">
     <g id="line2d_5">
      <g>
       <use xlink:href="#m6fcaf7cd24" x="57.6" y="275.421563" style="stroke: #000000; stroke-width: 0.8"/>
      </g>
     </g>
     <g id="text_6">
      <!-- 200 -->
      <g transform="translate(33.921875 279.011407) scale(0.1 -0.1)">
       <defs>
        <path id="Helvetica-32" d="M 845 2886 
C 864 3200 902 3994 1754 3994 
C 2413 3994 2643 3539 2643 3181 
C 2643 2592 2298 2406 1818 2131 
L 1222 1786 
C 621 1434 198 934 166 0 
L 3245 0 
L 3245 531 
L 800 531 
C 826 704 960 1056 1574 1395 
L 2042 1651 
C 2714 2010 3245 2349 3245 3155 
C 3245 3994 2618 4499 1837 4499 
C 1350 4499 282 4352 282 2886 
L 845 2886 
z
" transform="scale(0.015625)"/>
       </defs>
       <use xlink:href="#Helvetica-32"/>
       <use xlink:href="#Helvetica-30" x="55.599991"/>
       <use xlink:href="#Helvetica-30" x="111.199982"/>
      </g>
     </g>
    </g>
    <g id="ytick_3">
     <g id="line2d_6">
      <g>
       <use xlink:href="#m6fcaf7cd24" x="57.6" y="243.259127" style="stroke: #000000; stroke-width: 0.8"/>
      </g>
     </g>
     <g id="text_7">
      <!-- 400 -->
      <g transform="translate(33.921875 246.848971) scale(0.1 -0.1)">
       <defs>
        <path id="Helvetica-34" d="M 3347 1094 
L 3347 1581 
L 2688 1581 
L 2688 4499 
L 2221 4499 
L 160 1645 
L 160 1094 
L 2125 1094 
L 2125 0 
L 2688 0 
L 2688 1094 
L 3347 1094 
z
M 2112 3622 
L 2125 3622 
L 2125 1581 
L 678 1581 
L 2112 3622 
z
" transform="scale(0.015625)"/>
       </defs>
       <use xlink:href="#Helvetica-34"/>
       <use xlink:href="#Helvetica-30" x="55.599991"/>
       <use xlink:href="#Helvetica-30" x="111.199982"/>
      </g>
     </g>
    </g>
    <g id="ytick_4">
     <g id="line2d_7">
      <g>
       <use xlink:href="#m6fcaf7cd24" x="57.6" y="211.09669" style="stroke: #000000; stroke-width: 0.8"/>
      </g>
     </g>
     <g id="text_8">
      <!-- 600 -->
      <g transform="translate(33.921875 214.686534) scale(0.1 -0.1)">
       <defs>
        <path id="Helvetica-36" d="M 3219 3302 
C 3162 4218 2426 4499 1907 4499 
C 563 4499 243 3078 243 2093 
C 243 1504 320 954 589 531 
C 909 32 1402 -122 1747 -122 
C 2381 -122 2650 51 2886 314 
C 3194 646 3315 979 3315 1440 
C 3315 2515 2458 2867 1907 2867 
C 1293 2867 979 2560 838 2317 
L 826 2330 
C 826 2803 1011 3994 1894 3994 
C 2381 3994 2598 3699 2669 3302 
L 3219 3302 
z
M 902 1382 
C 902 1914 1203 2362 1824 2362 
C 2522 2362 2733 1811 2733 1414 
C 2733 806 2387 384 1850 384 
C 1190 384 902 902 902 1382 
z
" transform="scale(0.015625)"/>
       </defs>
       <use xlink:href="#Helvetica-36"/>
       <use xlink:href="#Helvetica-30" x="55.599991"/>
       <use xlink:href="#Helvetica-30" x="111.199982"/>
      </g>
     </g>
    </g>
    <g id="ytick_5">
     <g id="line2d_8">
      <g>
       <use xlink:href="#m6fcaf7cd24" x="57.6" y="178.934254" style="stroke: #000000; stroke-width: 0.8"/>
      </g>
     </g>
     <g id="text_9">
      <!-- 800 -->
      <g transform="translate(33.921875 182.524098) scale(0.1 -0.1)">
       <defs>
        <path id="Helvetica-38" d="M 3149 3341 
C 3149 3866 2758 4499 1760 4499 
C 685 4499 397 3731 397 3264 
C 397 2842 621 2534 1005 2387 
C 531 2195 243 1843 243 1293 
C 243 1075 243 589 704 224 
C 1062 -58 1536 -122 1786 -122 
C 2848 -122 3309 576 3309 1299 
C 3309 1638 3181 2138 2573 2394 
C 2771 2496 3149 2694 3149 3341 
z
M 1773 2112 
C 2285 2112 2707 1843 2707 1235 
C 2707 531 2214 384 1805 384 
C 1024 384 845 922 845 1280 
C 845 1696 1139 2112 1773 2112 
z
M 1766 2598 
C 1357 2598 979 2861 979 3290 
C 979 3578 1126 3994 1728 3994 
C 2387 3994 2566 3597 2566 3322 
C 2566 2912 2253 2598 1766 2598 
z
" transform="scale(0.015625)"/>
       </defs>
       <use xlink:href="#Helvetica-38"/>
       <use xlink:href="#Helvetica-30" x="55.599991"/>
       <use xlink:href="#Helvetica-30" x="111.199982"/>
      </g>
     </g>
    </g>
    <g id="ytick_6">
     <g id="line2d_9">
      <g>
       <use xlink:href="#m6fcaf7cd24" x="57.6" y="146.771817" style="stroke: #000000; stroke-width: 0.8"/>
      </g>
     </g>
     <g id="text_10">
      <!-- 1000 -->
      <g transform="translate(28.3625 150.361661) scale(0.1 -0.1)">
       <defs>
        <path id="Helvetica-31" d="M 2298 4499 
L 1856 4499 
C 1677 3763 1376 3693 646 3642 
L 646 3194 
L 1696 3194 
L 1696 0 
L 2298 0 
L 2298 4499 
z
" transform="scale(0.015625)"/>
       </defs>
       <use xlink:href="#Helvetica-31"/>
       <use xlink:href="#Helvetica-30" x="55.599991"/>
       <use xlink:href="#Helvetica-30" x="111.199982"/>
       <use xlink:href="#Helvetica-30" x="166.799973"/>
      </g>
     </g>
    </g>
    <g id="ytick_7">
     <g id="line2d_10">
      <g>
       <use xlink:href="#m6fcaf7cd24" x="57.6" y="114.609381" style="stroke: #000000; stroke-width: 0.8"/>
      </g>
     </g>
     <g id="text_11">
      <!-- 1200 -->
      <g transform="translate(28.3625 118.199224) scale(0.1 -0.1)">
       <use xlink:href="#Helvetica-31"/>
       <use xlink:href="#Helvetica-32" x="55.599991"/>
       <use xlink:href="#Helvetica-30" x="111.199982"/>
       <use xlink:href="#Helvetica-30" x="166.799973"/>
      </g>
     </g>
    </g>
    <g id="ytick_8">
     <g id="line2d_11">
      <g>
       <use xlink:href="#m6fcaf7cd24" x="57.6" y="82.446944" style="stroke: #000000; stroke-width: 0.8"/>
      </g>
     </g>
     <g id="text_12">
      <!-- 1400 -->
      <g transform="translate(28.3625 86.036788) scale(0.1 -0.1)">
       <use xlink:href="#Helvetica-31"/>
       <use xlink:href="#Helvetica-34" x="55.599991"/>
       <use xlink:href="#Helvetica-30" x="111.199982"/>
       <use xlink:href="#Helvetica-30" x="166.799973"/>
      </g>
     </g>
    </g>
    <g id="ytick_9">
     <g id="line2d_12">
      <g>
       <use xlink:href="#m6fcaf7cd24" x="57.6" y="50.284508" style="stroke: #000000; stroke-width: 0.8"/>
      </g>
     </g>
     <g id="text_13">
      <!-- 1600 -->
      <g transform="translate(28.3625 53.874351) scale(0.1 -0.1)">
       <use xlink:href="#Helvetica-31"/>
       <use xlink:href="#Helvetica-36" x="55.599991"/>
       <use xlink:href="#Helvetica-30" x="111.199982"/>
       <use xlink:href="#Helvetica-30" x="166.799973"/>
      </g>
     </g>
    </g>
    <g id="text_14">
     <!-- Count of Flight Numbers -->
     <g transform="translate(22.1625 228.70925) rotate(-90) scale(0.1 -0.1)">
      <defs>
       <path id="Helvetica-75" d="M 3130 0 
L 3130 3347 
L 2566 3347 
L 2566 1504 
C 2566 1018 2355 390 1645 390 
C 1280 390 998 576 998 1126 
L 998 3347 
L 435 3347 
L 435 941 
C 435 141 1030 -96 1523 -96 
C 2061 -96 2349 109 2586 499 
L 2598 486 
L 2598 0 
L 3130 0 
z
" transform="scale(0.015625)"/>
       <path id="Helvetica-74" d="M 1645 2880 
L 1645 3347 
L 1107 3347 
L 1107 4282 
L 544 4282 
L 544 3347 
L 90 3347 
L 90 2880 
L 544 2880 
L 544 672 
C 544 269 666 -45 1222 -45 
C 1280 -45 1440 -19 1645 0 
L 1645 442 
L 1446 442 
C 1331 442 1107 442 1107 704 
L 1107 2880 
L 1645 2880 
z
" transform="scale(0.015625)"/>
       <path id="Helvetica-66" d="M 1677 2880 
L 1677 3347 
L 1114 3347 
L 1114 3763 
C 1114 4032 1203 4154 1446 4154 
C 1517 4154 1606 4147 1677 4141 
L 1677 4646 
C 1587 4653 1504 4659 1421 4659 
C 870 4659 550 4429 550 3923 
L 550 3347 
L 90 3347 
L 90 2880 
L 550 2880 
L 550 0 
L 1114 0 
L 1114 2880 
L 1677 2880 
z
" transform="scale(0.015625)"/>
       <path id="Helvetica-46" d="M 1171 2086 
L 3424 2086 
L 3424 2637 
L 1171 2637 
L 1171 4045 
L 3731 4045 
L 3731 4595 
L 550 4595 
L 550 0 
L 1171 0 
L 1171 2086 
z
" transform="scale(0.015625)"/>
       <path id="Helvetica-67" d="M 838 1683 
C 838 2112 883 2938 1754 2938 
C 2566 2938 2656 2061 2656 1517 
C 2656 627 2099 390 1741 390 
C 1126 390 838 947 838 1683 
z
M 3194 3347 
L 2662 3347 
L 2662 2874 
L 2650 2874 
C 2515 3066 2259 3443 1651 3443 
C 762 3443 256 2714 256 1773 
C 256 973 589 -96 1728 -96 
C 2176 -96 2470 115 2618 352 
L 2618 378 
L 2630 378 
L 2630 237 
C 2630 -160 2650 -941 1677 -941 
C 1542 -941 1024 -941 922 -410 
L 358 -410 
C 467 -1299 1242 -1408 1638 -1408 
C 3187 -1408 3194 -205 3194 275 
L 3194 3347 
z
" transform="scale(0.015625)"/>
       <path id="Helvetica-68" d="M 3142 2278 
C 3142 3232 2490 3443 1971 3443 
C 1434 3443 1152 3110 992 2899 
L 979 2899 
L 979 4595 
L 416 4595 
L 416 0 
L 979 0 
L 979 1824 
C 979 2669 1453 2938 1914 2938 
C 2451 2938 2579 2643 2579 2189 
L 2579 0 
L 3142 0 
L 3142 2278 
z
" transform="scale(0.015625)"/>
       <path id="Helvetica-6d" d="M 416 0 
L 979 0 
L 979 1824 
C 979 2733 1542 2938 1862 2938 
C 2278 2938 2387 2598 2387 2317 
L 2387 0 
L 2950 0 
L 2950 2042 
C 2950 2490 3264 2938 3738 2938 
C 4218 2938 4358 2624 4358 2163 
L 4358 0 
L 4922 0 
L 4922 2317 
C 4922 3258 4243 3443 3885 3443 
C 3366 3443 3142 3213 2861 2899 
C 2765 3078 2573 3443 1971 3443 
C 1370 3443 1082 3053 960 2874 
L 947 2874 
L 947 3347 
L 416 3347 
L 416 0 
z
" transform="scale(0.015625)"/>
       <path id="Helvetica-62" d="M 902 0 
L 902 416 
L 915 416 
C 1030 230 1267 -96 1837 -96 
C 2976 -96 3309 973 3309 1773 
C 3309 2714 2803 3443 1914 3443 
C 1523 3437 1190 3277 947 2925 
L 934 2925 
L 934 4595 
L 371 4595 
L 371 0 
L 902 0 
z
M 2726 1683 
C 2726 947 2438 390 1824 390 
C 1466 390 909 627 909 1517 
C 909 2061 998 2938 1811 2938 
C 2682 2938 2726 2112 2726 1683 
z
" transform="scale(0.015625)"/>
       <path id="Helvetica-73" d="M 2861 2394 
C 2861 2560 2778 3443 1581 3443 
C 922 3443 314 3110 314 2374 
C 314 1914 621 1677 1088 1562 
L 1741 1402 
C 2221 1280 2406 1190 2406 922 
C 2406 550 2042 390 1638 390 
C 845 390 768 813 749 1075 
L 205 1075 
C 224 672 320 -96 1645 -96 
C 2400 -96 2970 320 2970 1011 
C 2970 1466 2726 1722 2029 1894 
L 1466 2035 
C 1030 2144 858 2208 858 2483 
C 858 2899 1350 2957 1523 2957 
C 2234 2957 2310 2605 2317 2394 
L 2861 2394 
z
" transform="scale(0.015625)"/>
      </defs>
      <use xlink:href="#Helvetica-43"/>
      <use xlink:href="#Helvetica-6f" x="72.199982"/>
      <use xlink:href="#Helvetica-75" x="127.799973"/>
      <use xlink:href="#Helvetica-6e" x="183.399963"/>
      <use xlink:href="#Helvetica-74" x="238.999954"/>
      <use xlink:href="#Helvetica-20" x="266.799942"/>
      <use xlink:href="#Helvetica-6f" x="294.59993"/>
      <use xlink:href="#Helvetica-66" x="350.199921"/>
      <use xlink:href="#Helvetica-20" x="377.999908"/>
      <use xlink:href="#Helvetica-46" x="405.799896"/>
      <use xlink:href="#Helvetica-6c" x="466.899887"/>
      <use xlink:href="#Helvetica-69" x="489.099884"/>
      <use xlink:href="#Helvetica-67" x="511.299881"/>
      <use xlink:href="#Helvetica-68" x="566.899872"/>
      <use xlink:href="#Helvetica-74" x="622.499863"/>
      <use xlink:href="#Helvetica-20" x="650.29985"/>
      <use xlink:href="#Helvetica-4e" x="678.099838"/>
      <use xlink:href="#Helvetica-75" x="750.29982"/>
      <use xlink:href="#Helvetica-6d" x="805.899811"/>
      <use xlink:href="#Helvetica-62" x="889.199799"/>
      <use xlink:href="#Helvetica-65" x="944.799789"/>
      <use xlink:href="#Helvetica-72" x="1000.39978"/>
      <use xlink:href="#Helvetica-73" x="1033.699768"/>
     </g>
    </g>
   </g>
   <g id="line2d_13">
    <path clip-path="url(#pf906a835f3)" style="fill: none; stroke: #424242; stroke-width: 2.25; stroke-linecap: square"/>
   </g>
   <g id="line2d_14">
    <path clip-path="url(#pf906a835f3)" style="fill: none; stroke: #424242; stroke-width: 2.25; stroke-linecap: square"/>
   </g>
   <g id="line2d_15">
    <path clip-path="url(#pf906a835f3)" style="fill: none; stroke: #424242; stroke-width: 2.25; stroke-linecap: square"/>
   </g>
   <g id="patch_6">
    <path d="M 57.6 307.584 
L 57.6 41.472 
" style="fill: none; stroke: #000000; stroke-width: 0.8; stroke-linejoin: miter; stroke-linecap: square"/>
   </g>
   <g id="patch_7">
    <path d="M 414.72 307.584 
L 414.72 41.472 
" style="fill: none; stroke: #000000; stroke-width: 0.8; stroke-linejoin: miter; stroke-linecap: square"/>
   </g>
   <g id="patch_8">
    <path d="M 57.6 307.584 
L 414.72 307.584 
" style="fill: none; stroke: #000000; stroke-width: 0.8; stroke-linejoin: miter; stroke-linecap: square"/>
   </g>
   <g id="patch_9">
    <path d="M 57.6 41.472 
L 414.72 41.472 
" style="fill: none; stroke: #000000; stroke-width: 0.8; stroke-linejoin: miter; stroke-linecap: square"/>
   </g>
   <g id="text_15">
    <!-- Count of flight numbers by airline -->
    <g transform="translate(156.156094 35.472) scale(0.1 -0.1)">
     <defs>
      <path id="HelveticaCE-Bold-43" d="M 4378 3091 
C 4326 3770 3770 4717 2394 4717 
C 1210 4717 282 3898 282 2291 
C 282 704 1158 -122 2381 -122 
C 3533 -122 4186 576 4378 1574 
L 3418 1574 
C 3302 1011 2931 710 2400 710 
C 1587 710 1261 1453 1261 2278 
C 1261 3578 1939 3885 2400 3885 
C 3194 3885 3341 3366 3418 3091 
L 4378 3091 
z
" transform="scale(0.015625)"/>
      <path id="HelveticaCE-Bold-6f" d="M 3699 1702 
C 3699 2931 2874 3494 1958 3494 
C 1043 3494 218 2931 218 1702 
C 218 474 1043 -90 1958 -90 
C 2874 -90 3699 474 3699 1702 
z
M 2778 1702 
C 2778 1267 2650 666 1958 666 
C 1267 666 1139 1267 1139 1702 
C 1139 2138 1267 2739 1958 2739 
C 2650 2739 2778 2138 2778 1702 
z
" transform="scale(0.015625)"/>
      <path id="HelveticaCE-Bold-75" d="M 3488 3405 
L 2592 3405 
L 2592 1440 
C 2592 832 2195 666 1901 666 
C 1626 666 1318 768 1318 1293 
L 1318 3405 
L 422 3405 
L 422 1165 
C 422 294 909 -90 1581 -90 
C 2054 -90 2413 115 2618 480 
L 2630 480 
L 2630 0 
L 3488 0 
L 3488 3405 
z
" transform="scale(0.015625)"/>
      <path id="HelveticaCE-Bold-6e" d="M 3494 2355 
C 3494 3104 2976 3494 2310 3494 
C 1664 3494 1408 3110 1286 2906 
L 1274 2906 
L 1274 3405 
L 416 3405 
L 416 0 
L 1312 0 
L 1312 1952 
C 1312 2470 1619 2739 2016 2739 
C 2586 2739 2598 2317 2598 2067 
L 2598 0 
L 3494 0 
L 3494 2355 
z
" transform="scale(0.015625)"/>
      <path id="HelveticaCE-Bold-74" d="M 1421 4326 
L 525 4326 
L 525 3405 
L 64 3405 
L 64 2765 
L 525 2765 
L 525 698 
C 525 256 666 -38 1440 -38 
L 1555 -38 
C 1696 -38 1837 -32 1978 -26 
L 1978 653 
C 1914 646 1850 640 1792 640 
C 1427 640 1421 717 1421 915 
L 1421 2765 
L 1978 2765 
L 1978 3405 
L 1421 3405 
L 1421 4326 
z
" transform="scale(0.015625)"/>
      <path id="HelveticaCE-Bold-20" transform="scale(0.015625)"/>
      <path id="HelveticaCE-Bold-66" d="M 1453 2765 
L 2035 2765 
L 2035 3405 
L 1453 3405 
L 1453 3539 
C 1453 3821 1459 3917 1766 3917 
L 2016 3917 
L 2016 4640 
C 1939 4646 1818 4653 1555 4653 
C 941 4653 557 4384 557 3680 
L 557 3405 
L 64 3405 
L 64 2765 
L 557 2765 
L 557 0 
L 1453 0 
L 1453 2765 
z
" transform="scale(0.015625)"/>
      <path id="HelveticaCE-Bold-6c" d="M 1338 4595 
L 442 4595 
L 442 0 
L 1338 0 
L 1338 4595 
z
" transform="scale(0.015625)"/>
      <path id="HelveticaCE-Bold-69" d="M 442 3405 
L 442 0 
L 1338 0 
L 1338 3405 
L 442 3405 
z
M 1338 4640 
L 442 4640 
L 442 3808 
L 1338 3808 
L 1338 4640 
z
" transform="scale(0.015625)"/>
      <path id="HelveticaCE-Bold-67" d="M 2682 3405 
L 2682 2899 
L 2669 2899 
C 2560 3123 2304 3494 1670 3494 
C 922 3494 256 2918 256 1741 
C 256 550 902 -19 1722 -19 
C 2259 -19 2483 230 2630 493 
L 2643 480 
L 2643 70 
C 2643 -480 2413 -710 1933 -710 
C 1414 -710 1344 -538 1306 -365 
L 333 -365 
C 371 -1088 1114 -1389 1818 -1389 
C 3494 -1389 3539 -410 3539 179 
L 3539 3405 
L 2682 3405 
z
M 1178 1683 
C 1178 2477 1549 2720 1882 2720 
C 2381 2720 2650 2272 2650 1722 
C 2650 1254 2496 736 1888 736 
C 1357 736 1178 1248 1178 1683 
z
" transform="scale(0.015625)"/>
      <path id="HelveticaCE-Bold-68" d="M 3494 2355 
C 3494 3104 2976 3494 2310 3494 
C 1824 3494 1440 3245 1325 2963 
L 1312 2963 
L 1312 4595 
L 416 4595 
L 416 0 
L 1312 0 
L 1312 1952 
C 1312 2470 1619 2739 2016 2739 
C 2586 2739 2598 2317 2598 2067 
L 2598 0 
L 3494 0 
L 3494 2355 
z
" transform="scale(0.015625)"/>
      <path id="HelveticaCE-Bold-6d" d="M 5286 2355 
C 5286 3104 4768 3494 4102 3494 
C 3558 3494 3309 3117 3194 2950 
C 2963 3315 2739 3494 2246 3494 
C 1645 3494 1395 3130 1280 2906 
L 1267 2906 
L 1267 3405 
L 410 3405 
L 410 0 
L 1306 0 
L 1306 2074 
C 1306 2445 1440 2739 1862 2739 
C 2400 2739 2400 2336 2400 2048 
L 2400 0 
L 3296 0 
L 3296 2042 
C 3296 2445 3456 2739 3904 2739 
C 4166 2739 4390 2573 4390 2067 
L 4390 0 
L 5286 0 
L 5286 2355 
z
" transform="scale(0.015625)"/>
      <path id="HelveticaCE-Bold-62" d="M 2778 1677 
C 2778 1274 2618 646 2042 646 
C 1472 646 1248 1120 1248 1626 
C 1248 2170 1402 2720 2016 2720 
C 2586 2720 2778 2214 2778 1677 
z
M 1286 4595 
L 390 4595 
L 390 0 
L 1267 0 
L 1267 429 
L 1280 429 
C 1498 45 1894 -90 2266 -90 
C 3277 -90 3699 806 3699 1741 
C 3699 2918 3034 3494 2285 3494 
C 1709 3494 1440 3181 1299 2963 
L 1286 2963 
L 1286 4595 
z
" transform="scale(0.015625)"/>
      <path id="HelveticaCE-Bold-65" d="M 2419 998 
C 2349 755 2093 627 1843 627 
C 1120 627 1069 1203 1043 1459 
L 3379 1459 
L 3379 1619 
C 3379 3174 2451 3494 1779 3494 
C 288 3494 147 2182 147 1773 
C 147 371 883 -90 1843 -90 
C 2426 -90 3104 179 3341 998 
L 2419 998 
z
M 1069 2042 
C 1120 2490 1344 2758 1766 2758 
C 2054 2758 2406 2592 2458 2042 
L 1069 2042 
z
" transform="scale(0.015625)"/>
      <path id="HelveticaCE-Bold-72" d="M 410 0 
L 1306 0 
L 1306 1773 
C 1306 2150 1434 2586 2131 2586 
C 2214 2586 2310 2586 2387 2573 
L 2387 3482 
C 2330 3488 2272 3494 2214 3494 
C 1670 3494 1466 3162 1280 2816 
L 1267 2816 
L 1267 3405 
L 410 3405 
L 410 0 
z
" transform="scale(0.015625)"/>
      <path id="HelveticaCE-Bold-73" d="M 3219 2368 
C 3149 3328 2355 3494 1690 3494 
C 627 3494 314 2854 314 2355 
C 314 1082 2426 1510 2426 941 
C 2426 813 2317 589 1856 589 
C 1293 589 1114 800 1114 1088 
L 192 1088 
C 218 179 1056 -90 1830 -90 
C 2362 -90 3322 90 3322 1082 
C 3322 2336 1190 1946 1190 2483 
C 1190 2630 1254 2816 1741 2816 
C 2227 2816 2304 2586 2342 2368 
L 3219 2368 
z
" transform="scale(0.015625)"/>
      <path id="HelveticaCE-Bold-79" d="M 3450 3405 
L 2502 3405 
L 1805 896 
L 1792 896 
L 1062 3405 
L 64 3405 
L 1318 -141 
C 1235 -608 1056 -653 730 -653 
C 653 -653 595 -646 557 -640 
L 557 -1357 
C 685 -1363 838 -1370 960 -1370 
C 1741 -1370 1856 -1203 2278 58 
L 3450 3405 
z
" transform="scale(0.015625)"/>
      <path id="HelveticaCE-Bold-61" d="M 3174 2509 
C 3174 3347 2298 3494 1818 3494 
C 1120 3494 397 3347 294 2304 
L 1158 2304 
C 1184 2502 1261 2778 1709 2778 
C 1939 2778 2298 2758 2298 2381 
C 2298 2189 2125 2131 1984 2112 
L 1178 1990 
C 608 1907 186 1568 186 902 
C 186 198 710 -90 1222 -90 
C 1830 -90 2118 192 2323 403 
C 2342 211 2355 160 2406 0 
L 3373 0 
L 3373 134 
C 3264 173 3174 262 3174 666 
L 3174 2509 
z
M 2298 1222 
C 2298 806 1894 550 1498 550 
C 1325 550 1082 646 1082 960 
C 1082 1331 1357 1414 1690 1472 
C 2061 1530 2208 1587 2298 1658 
L 2298 1222 
z
" transform="scale(0.015625)"/>
     </defs>
     <use xlink:href="#HelveticaCE-Bold-43"/>
     <use xlink:href="#HelveticaCE-Bold-6f" x="72.199982"/>
     <use xlink:href="#HelveticaCE-Bold-75" x="133.299973"/>
     <use xlink:href="#HelveticaCE-Bold-6e" x="194.399963"/>
     <use xlink:href="#HelveticaCE-Bold-74" x="255.499954"/>
     <use xlink:href="#HelveticaCE-Bold-20" x="288.799942"/>
     <use xlink:href="#HelveticaCE-Bold-6f" x="316.59993"/>
     <use xlink:href="#HelveticaCE-Bold-66" x="377.699921"/>
     <use xlink:href="#HelveticaCE-Bold-20" x="410.999908"/>
     <use xlink:href="#HelveticaCE-Bold-66" x="438.799896"/>
     <use xlink:href="#HelveticaCE-Bold-6c" x="472.099884"/>
     <use xlink:href="#HelveticaCE-Bold-69" x="499.899872"/>
     <use xlink:href="#HelveticaCE-Bold-67" x="527.69986"/>
     <use xlink:href="#HelveticaCE-Bold-68" x="588.79985"/>
     <use xlink:href="#HelveticaCE-Bold-74" x="649.899841"/>
     <use xlink:href="#HelveticaCE-Bold-20" x="683.199829"/>
     <use xlink:href="#HelveticaCE-Bold-6e" x="710.999817"/>
     <use xlink:href="#HelveticaCE-Bold-75" x="772.099808"/>
     <use xlink:href="#HelveticaCE-Bold-6d" x="833.199799"/>
     <use xlink:href="#HelveticaCE-Bold-62" x="922.099792"/>
     <use xlink:href="#HelveticaCE-Bold-65" x="983.199783"/>
     <use xlink:href="#HelveticaCE-Bold-72" x="1038.799774"/>
     <use xlink:href="#HelveticaCE-Bold-73" x="1077.699768"/>
     <use xlink:href="#HelveticaCE-Bold-20" x="1133.299759"/>
     <use xlink:href="#HelveticaCE-Bold-62" x="1161.099747"/>
     <use xlink:href="#HelveticaCE-Bold-79" x="1222.199738"/>
     <use xlink:href="#HelveticaCE-Bold-20" x="1277.799728"/>
     <use xlink:href="#HelveticaCE-Bold-61" x="1305.599716"/>
     <use xlink:href="#HelveticaCE-Bold-69" x="1361.199707"/>
     <use xlink:href="#HelveticaCE-Bold-72" x="1388.999695"/>
     <use xlink:href="#HelveticaCE-Bold-6c" x="1427.899689"/>
     <use xlink:href="#HelveticaCE-Bold-69" x="1455.699677"/>
     <use xlink:href="#HelveticaCE-Bold-6e" x="1483.499664"/>
     <use xlink:href="#HelveticaCE-Bold-65" x="1544.599655"/>
    </g>
   </g>
  </g>
 </g>
 <defs>
  <clipPath id="pf906a835f3">
   <rect x="57.6" y="41.472" width="357.12" height="266.112"/>
  </clipPath>
 </defs>
</svg>
