<?xml version="1.0" encoding="utf-8" standalone="no"?>
<!DOCTYPE svg PUBLIC "-//W3C//DTD SVG 1.1//EN"
  "http://www.w3.org/Graphics/SVG/1.1/DTD/svg11.dtd">
<svg xmlns:xlink="http://www.w3.org/1999/xlink" width="460.8pt" height="345.6pt" viewBox="0 0 460.8 345.6" xmlns="http://www.w3.org/2000/svg" version="1.1">
 <metadata>
  <rdf:RDF xmlns:dc="http://purl.org/dc/elements/1.1/" xmlns:cc="http://creativecommons.org/ns#" xmlns:rdf="http://www.w3.org/1999/02/22-rdf-syntax-ns#">
   <cc:Work>
    <dc:type rdf:resource="http://purl.org/dc/dcmitype/StillImage"/>
    <dc:date>2024-07-13T18:55:30.016592</dc:date>
    <dc:format>image/svg+xml</dc:format>
    <dc:creator>
     <cc:Agent>
      <dc:title>Matplotlib v3.8.4, https://matplotlib.org/</dc:title>
     </cc:Agent>
    </dc:creator>
   </cc:Work>
  </rdf:RDF>
 </metadata>
 <defs>
  <style type="text/css">*{stroke-linejoin: round; stroke-linecap: butt}</style>
 </defs>
 <g id="figure_1">
  <g id="patch_1">
   <path d="M 0 345.6 
L 460.8 345.6 
L 460.8 0 
L 0 0 
z
" style="fill: #ffffff"/>
  </g>
  <g id="axes_1">
   <g id="patch_2">
    <path d="M 43.31 303.64 
L 450 303.64 
L 450 24.72 
L 43.31 24.72 
z
" style="fill: #ffffff"/>
   </g>
   <g id="patch_3">
    <path d="M 56.866333 119.037989 
L 165.317 119.037989 
L 165.317 290.961818 
L 56.866333 290.961818 
z
" clip-path="url(#padf76796e3)" style="fill: #3470a3"/>
   </g>
   <g id="patch_4">
    <path d="M 192.429667 119.037989 
L 300.880333 119.037989 
L 300.880333 37.398182 
L 192.429667 37.398182 
z
" clip-path="url(#padf76796e3)" style="fill: #79abc9"/>
   </g>
   <g id="patch_5">
    <path d="M 327.993 119.037989 
L 436.443667 119.037989 
L 436.443667 120.63877 
L 327.993 120.63877 
z
" clip-path="url(#padf76796e3)" style="fill: #ccdbea"/>
   </g>
   <g id="matplotlib.axis_1">
    <g id="xtick_1">
     <g id="line2d_1">
      <defs>
       <path id="mf99f5660e6" d="M 0 0 
L 0 3.5 
" style="stroke: #000000; stroke-width: 0.8"/>
      </defs>
      <g>
       <use xlink:href="#mf99f5660e6" x="111.091667" y="303.64" style="stroke: #000000; stroke-width: 0.8"/>
      </g>
     </g>
     <g id="text_1">
      <!-- AB -->
      <g transform="translate(104.421354 317.819687) scale(0.1 -0.1)">
       <defs>
        <path id="Helvetica-41" d="M 3053 1338 
L 3507 0 
L 4186 0 
L 2522 4595 
L 1818 4595 
L 90 0 
L 730 0 
L 1210 1338 
L 3053 1338 
z
M 1402 1888 
L 2138 3910 
L 2150 3910 
L 2829 1888 
L 1402 1888 
z
" transform="scale(0.015625)"/>
        <path id="Helvetica-42" d="M 1094 4064 
L 2221 4064 
C 2912 4064 3174 3821 3174 3392 
C 3174 2829 2810 2650 2214 2650 
L 1094 2650 
L 1094 4064 
z
M 474 0 
L 2451 0 
C 3469 0 4013 621 4013 1357 
C 4013 2144 3482 2355 3181 2477 
C 3686 2714 3795 3136 3795 3437 
C 3795 4064 3354 4595 2496 4595 
L 474 4595 
L 474 0 
z
M 1094 2144 
L 2317 2144 
C 2822 2144 3392 2016 3392 1370 
C 3392 858 3066 531 2419 531 
L 1094 531 
L 1094 2144 
z
" transform="scale(0.015625)"/>
       </defs>
       <use xlink:href="#Helvetica-41"/>
       <use xlink:href="#Helvetica-42" x="66.699997"/>
      </g>
     </g>
    </g>
    <g id="xtick_2">
     <g id="line2d_2">
      <g>
       <use xlink:href="#mf99f5660e6" x="246.655" y="303.64" style="stroke: #000000; stroke-width: 0.8"/>
      </g>
     </g>
     <g id="text_2">
      <!-- MN -->
      <g transform="translate(238.88 317.819687) scale(0.1 -0.1)">
       <defs>
        <path id="Helvetica-4d" d="M 4870 0 
L 4870 4595 
L 3987 4595 
L 2682 710 
L 2669 710 
L 1357 4595 
L 467 4595 
L 467 0 
L 1069 0 
L 1069 2714 
C 1069 2848 1056 3430 1056 3853 
L 1069 3853 
L 2362 0 
L 2976 0 
L 4269 3859 
L 4282 3859 
C 4282 3430 4269 2848 4269 2714 
L 4269 0 
L 4870 0 
z
" transform="scale(0.015625)"/>
        <path id="Helvetica-4e" d="M 3533 883 
L 3520 883 
L 1222 4595 
L 486 4595 
L 486 0 
L 1088 0 
L 1088 3712 
L 1101 3712 
L 3437 0 
L 4134 0 
L 4134 4595 
L 3533 4595 
L 3533 883 
z
" transform="scale(0.015625)"/>
       </defs>
       <use xlink:href="#Helvetica-4d"/>
       <use xlink:href="#Helvetica-4e" x="83.299988"/>
      </g>
     </g>
    </g>
    <g id="xtick_3">
     <g id="line2d_3">
      <g>
       <use xlink:href="#mf99f5660e6" x="382.218333" y="303.64" style="stroke: #000000; stroke-width: 0.8"/>
      </g>
     </g>
     <g id="text_3">
      <!-- ZY -->
      <g transform="translate(375.82849 317.819687) scale(0.1 -0.1)">
       <defs>
        <path id="Helvetica-5a" d="M 3763 550 
L 934 550 
L 3763 4058 
L 3763 4595 
L 358 4595 
L 358 4045 
L 2963 4045 
L 147 518 
L 147 0 
L 3763 0 
L 3763 550 
z
" transform="scale(0.015625)"/>
        <path id="Helvetica-59" d="M 2445 1850 
L 4179 4595 
L 3450 4595 
L 2131 2387 
L 813 4595 
L 90 4595 
L 1824 1850 
L 1824 0 
L 2445 0 
L 2445 1850 
z
" transform="scale(0.015625)"/>
       </defs>
       <use xlink:href="#Helvetica-5a"/>
       <use xlink:href="#Helvetica-59" x="61.099991"/>
      </g>
     </g>
    </g>
    <g id="text_4">
     <!-- Airline Code -->
     <g transform="translate(219.426094 331.069687) scale(0.1 -0.1)">
      <defs>
       <path id="Helvetica-69" d="M 992 3347 
L 429 3347 
L 429 0 
L 992 0 
L 992 3347 
z
M 992 3955 
L 992 4595 
L 429 4595 
L 429 3955 
L 992 3955 
z
" transform="scale(0.015625)"/>
       <path id="Helvetica-72" d="M 1056 1946 
C 1056 2432 1389 2842 1914 2842 
L 2125 2842 
L 2125 3424 
C 2080 3437 2048 3443 1978 3443 
C 1555 3443 1261 3181 1037 2790 
L 1024 2790 
L 1024 3347 
L 493 3347 
L 493 0 
L 1056 0 
L 1056 1946 
z
" transform="scale(0.015625)"/>
       <path id="Helvetica-6c" d="M 992 4595 
L 429 4595 
L 429 0 
L 992 0 
L 992 4595 
z
" transform="scale(0.015625)"/>
       <path id="Helvetica-6e" d="M 3142 2278 
C 3142 3232 2490 3443 1971 3443 
C 1395 3443 1082 3053 960 2874 
L 947 2874 
L 947 3347 
L 416 3347 
L 416 0 
L 979 0 
L 979 1824 
C 979 2733 1542 2938 1862 2938 
C 2413 2938 2579 2643 2579 2061 
L 2579 0 
L 3142 0 
L 3142 2278 
z
" transform="scale(0.015625)"/>
       <path id="Helvetica-65" d="M 2694 1050 
C 2675 800 2362 390 1830 390 
C 1184 390 858 794 858 1491 
L 3302 1491 
C 3302 2675 2829 3443 1862 3443 
C 755 3443 256 2618 256 1581 
C 256 614 813 -96 1754 -96 
C 2291 -96 2509 32 2662 134 
C 3085 416 3238 890 3258 1050 
L 2694 1050 
z
M 858 1939 
C 858 2458 1267 2938 1786 2938 
C 2470 2938 2688 2458 2720 1939 
L 858 1939 
z
" transform="scale(0.015625)"/>
       <path id="Helvetica-20" transform="scale(0.015625)"/>
       <path id="Helvetica-43" d="M 4314 3213 
C 4224 3981 3610 4717 2426 4717 
C 1088 4717 282 3738 282 2323 
C 282 557 1306 -122 2349 -122 
C 2694 -122 4102 -45 4358 1690 
L 3757 1690 
C 3546 621 2848 429 2445 429 
C 1306 429 922 1261 922 2342 
C 922 3552 1594 4166 2426 4166 
C 2867 4166 3539 4019 3712 3213 
L 4314 3213 
z
" transform="scale(0.015625)"/>
       <path id="Helvetica-6f" d="M 224 1677 
C 224 813 710 -90 1779 -90 
C 2848 -90 3334 813 3334 1677 
C 3334 2541 2848 3443 1779 3443 
C 710 3443 224 2541 224 1677 
z
M 806 1677 
C 806 2125 973 2957 1779 2957 
C 2586 2957 2752 2125 2752 1677 
C 2752 1229 2586 397 1779 397 
C 973 397 806 1229 806 1677 
z
" transform="scale(0.015625)"/>
       <path id="Helvetica-64" d="M 3194 4595 
L 2630 4595 
L 2630 2918 
L 2618 2874 
C 2483 3066 2227 3443 1619 3443 
C 730 3443 224 2714 224 1773 
C 224 973 557 -96 1696 -96 
C 2022 -96 2406 6 2650 461 
L 2662 461 
L 2662 0 
L 3194 0 
L 3194 4595 
z
M 806 1683 
C 806 2112 851 2938 1722 2938 
C 2534 2938 2624 2061 2624 1517 
C 2624 627 2067 390 1709 390 
C 1094 390 806 947 806 1683 
z
" transform="scale(0.015625)"/>
      </defs>
      <use xlink:href="#Helvetica-41"/>
      <use xlink:href="#Helvetica-69" x="66.699997"/>
      <use xlink:href="#Helvetica-72" x="88.899994"/>
      <use xlink:href="#Helvetica-6c" x="122.199982"/>
      <use xlink:href="#Helvetica-69" x="144.399979"/>
      <use xlink:href="#Helvetica-6e" x="166.599976"/>
      <use xlink:href="#Helvetica-65" x="222.199966"/>
      <use xlink:href="#Helvetica-20" x="277.799957"/>
      <use xlink:href="#Helvetica-43" x="305.599945"/>
      <use xlink:href="#Helvetica-6f" x="377.799927"/>
      <use xlink:href="#Helvetica-64" x="433.399918"/>
      <use xlink:href="#Helvetica-65" x="488.999908"/>
     </g>
    </g>
   </g>
   <g id="matplotlib.axis_2">
    <g id="ytick_1">
     <g id="line2d_4">
      <defs>
       <path id="m8b4d83ab2f" d="M 0 0 
L -3.5 0 
" style="stroke: #000000; stroke-width: 0.8"/>
      </defs>
      <g>
       <use xlink:href="#m8b4d83ab2f" x="43.31" y="279.116042" style="stroke: #000000; stroke-width: 0.8"/>
      </g>
     </g>
     <g id="text_5">
      <!-- −5 -->
      <g transform="translate(24.91 282.705886) scale(0.1 -0.1)">
       <defs>
        <path id="Helvetica-2212" d="M 3488 1382 
L 3488 1850 
L 250 1850 
L 250 1382 
L 3488 1382 
z
" transform="scale(0.015625)"/>
        <path id="Helvetica-35" d="M 1133 3853 
L 3040 3853 
L 3040 4403 
L 710 4403 
L 371 1990 
L 858 1965 
C 1069 2240 1363 2394 1690 2394 
C 2246 2394 2688 2042 2688 1395 
C 2688 832 2323 365 1741 365 
C 1235 365 845 595 787 1120 
L 205 1120 
C 314 115 1069 -122 1658 -122 
C 3066 -122 3290 960 3290 1459 
C 3290 2387 2541 2899 1811 2899 
C 1408 2899 1133 2765 941 2618 
L 1133 3853 
z
" transform="scale(0.015625)"/>
       </defs>
       <use xlink:href="#Helvetica-2212"/>
       <use xlink:href="#Helvetica-35" x="58.399994"/>
      </g>
     </g>
    </g>
    <g id="ytick_2">
     <g id="line2d_5">
      <g>
       <use xlink:href="#m8b4d83ab2f" x="43.31" y="247.100432" style="stroke: #000000; stroke-width: 0.8"/>
      </g>
     </g>
     <g id="text_6">
      <!-- −4 -->
      <g transform="translate(24.91 250.690275) scale(0.1 -0.1)">
       <defs>
        <path id="Helvetica-34" d="M 3347 1094 
L 3347 1581 
L 2688 1581 
L 2688 4499 
L 2221 4499 
L 160 1645 
L 160 1094 
L 2125 1094 
L 2125 0 
L 2688 0 
L 2688 1094 
L 3347 1094 
z
M 2112 3622 
L 2125 3622 
L 2125 1581 
L 678 1581 
L 2112 3622 
z
" transform="scale(0.015625)"/>
       </defs>
       <use xlink:href="#Helvetica-2212"/>
       <use xlink:href="#Helvetica-34" x="58.399994"/>
      </g>
     </g>
    </g>
    <g id="ytick_3">
     <g id="line2d_6">
      <g>
       <use xlink:href="#m8b4d83ab2f" x="43.31" y="215.084821" style="stroke: #000000; stroke-width: 0.8"/>
      </g>
     </g>
     <g id="text_7">
      <!-- −3 -->
      <g transform="translate(24.91 218.674665) scale(0.1 -0.1)">
       <defs>
        <path id="Helvetica-33" d="M 1434 2074 
C 1517 2074 1606 2080 1690 2080 
C 2074 2080 2739 2010 2739 1254 
C 2739 736 2336 384 1760 384 
C 922 384 819 954 800 1376 
L 218 1376 
C 256 858 390 339 890 77 
C 1107 -38 1389 -122 1722 -122 
C 2867 -122 3341 589 3341 1325 
C 3341 1926 3027 2234 2592 2374 
L 2592 2387 
C 2835 2464 3168 2739 3168 3315 
C 3168 4000 2650 4499 1779 4499 
C 595 4499 326 3686 326 3027 
L 877 3027 
C 902 3341 954 3994 1754 3994 
C 2426 3994 2586 3552 2586 3283 
C 2586 2720 2163 2547 1728 2547 
C 1632 2547 1530 2554 1434 2560 
L 1434 2074 
z
" transform="scale(0.015625)"/>
       </defs>
       <use xlink:href="#Helvetica-2212"/>
       <use xlink:href="#Helvetica-33" x="58.399994"/>
      </g>
     </g>
    </g>
    <g id="ytick_4">
     <g id="line2d_7">
      <g>
       <use xlink:href="#m8b4d83ab2f" x="43.31" y="183.06921" style="stroke: #000000; stroke-width: 0.8"/>
      </g>
     </g>
     <g id="text_8">
      <!-- −2 -->
      <g transform="translate(24.91 186.659054) scale(0.1 -0.1)">
       <defs>
        <path id="Helvetica-32" d="M 845 2886 
C 864 3200 902 3994 1754 3994 
C 2413 3994 2643 3539 2643 3181 
C 2643 2592 2298 2406 1818 2131 
L 1222 1786 
C 621 1434 198 934 166 0 
L 3245 0 
L 3245 531 
L 800 531 
C 826 704 960 1056 1574 1395 
L 2042 1651 
C 2714 2010 3245 2349 3245 3155 
C 3245 3994 2618 4499 1837 4499 
C 1350 4499 282 4352 282 2886 
L 845 2886 
z
" transform="scale(0.015625)"/>
       </defs>
       <use xlink:href="#Helvetica-2212"/>
       <use xlink:href="#Helvetica-32" x="58.399994"/>
      </g>
     </g>
    </g>
    <g id="ytick_5">
     <g id="line2d_8">
      <g>
       <use xlink:href="#m8b4d83ab2f" x="43.31" y="151.0536" style="stroke: #000000; stroke-width: 0.8"/>
      </g>
     </g>
     <g id="text_9">
      <!-- −1 -->
      <g transform="translate(24.91 154.643443) scale(0.1 -0.1)">
       <defs>
        <path id="Helvetica-31" d="M 2298 4499 
L 1856 4499 
C 1677 3763 1376 3693 646 3642 
L 646 3194 
L 1696 3194 
L 1696 0 
L 2298 0 
L 2298 4499 
z
" transform="scale(0.015625)"/>
       </defs>
       <use xlink:href="#Helvetica-2212"/>
       <use xlink:href="#Helvetica-31" x="58.399994"/>
      </g>
     </g>
    </g>
    <g id="ytick_6">
     <g id="line2d_9">
      <g>
       <use xlink:href="#m8b4d83ab2f" x="43.31" y="119.037989" style="stroke: #000000; stroke-width: 0.8"/>
      </g>
     </g>
     <g id="text_10">
      <!-- 0 -->
      <g transform="translate(30.750625 122.627833) scale(0.1 -0.1)">
       <defs>
        <path id="Helvetica-30" d="M 2720 2189 
C 2720 1062 2426 384 1779 384 
C 1133 384 838 1062 838 2189 
C 838 3315 1133 3994 1779 3994 
C 2426 3994 2720 3315 2720 2189 
z
M 3322 2189 
C 3322 3123 3072 4499 1779 4499 
C 486 4499 237 3123 237 2189 
C 237 1254 486 -122 1779 -122 
C 3072 -122 3322 1254 3322 2189 
z
" transform="scale(0.015625)"/>
       </defs>
       <use xlink:href="#Helvetica-30"/>
      </g>
     </g>
    </g>
    <g id="ytick_7">
     <g id="line2d_10">
      <g>
       <use xlink:href="#m8b4d83ab2f" x="43.31" y="87.022378" style="stroke: #000000; stroke-width: 0.8"/>
      </g>
     </g>
     <g id="text_11">
      <!-- 1 -->
      <g transform="translate(30.750625 90.612222) scale(0.1 -0.1)">
       <use xlink:href="#Helvetica-31"/>
      </g>
     </g>
    </g>
    <g id="ytick_8">
     <g id="line2d_11">
      <g>
       <use xlink:href="#m8b4d83ab2f" x="43.31" y="55.006768" style="stroke: #000000; stroke-width: 0.8"/>
      </g>
     </g>
     <g id="text_12">
      <!-- 2 -->
      <g transform="translate(30.750625 58.596611) scale(0.1 -0.1)">
       <use xlink:href="#Helvetica-32"/>
      </g>
     </g>
    </g>
    <g id="text_13">
     <!-- Difference in % -->
     <g transform="translate(18.839688 198.078437) rotate(-90) scale(0.1 -0.1)">
      <defs>
       <path id="Helvetica-44" d="M 518 0 
L 2355 0 
C 3866 0 4314 1331 4314 2362 
C 4314 3686 3578 4595 2381 4595 
L 518 4595 
L 518 0 
z
M 1139 4064 
L 2298 4064 
C 3142 4064 3674 3482 3674 2323 
C 3674 1165 3149 531 2342 531 
L 1139 531 
L 1139 4064 
z
" transform="scale(0.015625)"/>
       <path id="Helvetica-66" d="M 1677 2880 
L 1677 3347 
L 1114 3347 
L 1114 3763 
C 1114 4032 1203 4154 1446 4154 
C 1517 4154 1606 4147 1677 4141 
L 1677 4646 
C 1587 4653 1504 4659 1421 4659 
C 870 4659 550 4429 550 3923 
L 550 3347 
L 90 3347 
L 90 2880 
L 550 2880 
L 550 0 
L 1114 0 
L 1114 2880 
L 1677 2880 
z
" transform="scale(0.015625)"/>
       <path id="Helvetica-63" d="M 3053 2221 
C 3008 2803 2675 3443 1798 3443 
C 691 3443 192 2618 192 1581 
C 192 614 749 -96 1690 -96 
C 2669 -96 2995 653 3053 1184 
L 2509 1184 
C 2413 672 2086 390 1709 390 
C 934 390 794 1101 794 1677 
C 794 2272 1018 2938 1715 2938 
C 2189 2938 2438 2669 2509 2221 
L 3053 2221 
z
" transform="scale(0.015625)"/>
       <path id="Helvetica-25" d="M 250 3366 
C 250 2752 742 2272 1344 2272 
C 1946 2272 2432 2765 2432 3366 
C 2432 3968 1939 4448 1344 4448 
C 742 4448 250 3974 250 3366 
z
M 698 3366 
C 698 3712 979 4000 1344 4000 
C 1696 4000 1984 3725 1984 3366 
C 1984 3014 1709 2720 1338 2720 
C 998 2720 698 2970 698 3366 
z
M 3258 1050 
C 3258 435 3750 -45 4352 -45 
C 4954 -45 5440 448 5440 1050 
C 5440 1651 4947 2131 4352 2131 
C 3750 2131 3258 1658 3258 1050 
z
M 3706 1050 
C 3706 1395 3987 1683 4352 1683 
C 4704 1683 4992 1408 4992 1050 
C 4992 698 4717 403 4346 403 
C 4006 403 3706 653 3706 1050 
z
M 4282 4499 
L 3930 4499 
L 1402 -122 
L 1747 -122 
L 4282 4499 
z
" transform="scale(0.015625)"/>
      </defs>
      <use xlink:href="#Helvetica-44"/>
      <use xlink:href="#Helvetica-69" x="72.199982"/>
      <use xlink:href="#Helvetica-66" x="94.399979"/>
      <use xlink:href="#Helvetica-66" x="122.199966"/>
      <use xlink:href="#Helvetica-65" x="149.999954"/>
      <use xlink:href="#Helvetica-72" x="205.599945"/>
      <use xlink:href="#Helvetica-65" x="238.899933"/>
      <use xlink:href="#Helvetica-6e" x="294.499924"/>
      <use xlink:href="#Helvetica-63" x="350.099915"/>
      <use xlink:href="#Helvetica-65" x="400.099899"/>
      <use xlink:href="#Helvetica-20" x="455.69989"/>
      <use xlink:href="#Helvetica-69" x="483.499878"/>
      <use xlink:href="#Helvetica-6e" x="505.699875"/>
      <use xlink:href="#Helvetica-20" x="561.299866"/>
      <use xlink:href="#Helvetica-25" x="589.099854"/>
     </g>
    </g>
   </g>
   <g id="line2d_12">
    <path clip-path="url(#padf76796e3)" style="fill: none; stroke: #424242; stroke-width: 2.25; stroke-linecap: square"/>
   </g>
   <g id="line2d_13">
    <path clip-path="url(#padf76796e3)" style="fill: none; stroke: #424242; stroke-width: 2.25; stroke-linecap: square"/>
   </g>
   <g id="line2d_14">
    <path clip-path="url(#padf76796e3)" style="fill: none; stroke: #424242; stroke-width: 2.25; stroke-linecap: square"/>
   </g>
   <g id="patch_6">
    <path d="M 43.31 303.64 
L 43.31 24.72 
" style="fill: none; stroke: #000000; stroke-width: 0.8; stroke-linejoin: miter; stroke-linecap: square"/>
   </g>
   <g id="patch_7">
    <path d="M 450 303.64 
L 450 24.72 
" style="fill: none; stroke: #000000; stroke-width: 0.8; stroke-linejoin: miter; stroke-linecap: square"/>
   </g>
   <g id="patch_8">
    <path d="M 43.31 303.64 
L 450 303.64 
" style="fill: none; stroke: #000000; stroke-width: 0.8; stroke-linejoin: miter; stroke-linecap: square"/>
   </g>
   <g id="patch_9">
    <path d="M 43.31 24.72 
L 450 24.72 
" style="fill: none; stroke: #000000; stroke-width: 0.8; stroke-linejoin: miter; stroke-linecap: square"/>
   </g>
   <g id="text_14">
    <!-- Difference between actual and estimated zfws by airline -->
    <g transform="translate(114.401094 18.72) scale(0.1 -0.1)">
     <defs>
      <path id="HelveticaCE-Bold-44" d="M 486 0 
L 2477 0 
C 3994 0 4384 1421 4384 2406 
C 4384 3277 4064 4595 2515 4595 
L 486 4595 
L 486 0 
z
M 1427 3802 
L 2349 3802 
C 2758 3802 3405 3693 3405 2336 
C 3405 1581 3142 794 2362 794 
L 1427 794 
L 1427 3802 
z
" transform="scale(0.015625)"/>
      <path id="HelveticaCE-Bold-69" d="M 442 3405 
L 442 0 
L 1338 0 
L 1338 3405 
L 442 3405 
z
M 1338 4640 
L 442 4640 
L 442 3808 
L 1338 3808 
L 1338 4640 
z
" transform="scale(0.015625)"/>
      <path id="HelveticaCE-Bold-66" d="M 1453 2765 
L 2035 2765 
L 2035 3405 
L 1453 3405 
L 1453 3539 
C 1453 3821 1459 3917 1766 3917 
L 2016 3917 
L 2016 4640 
C 1939 4646 1818 4653 1555 4653 
C 941 4653 557 4384 557 3680 
L 557 3405 
L 64 3405 
L 64 2765 
L 557 2765 
L 557 0 
L 1453 0 
L 1453 2765 
z
" transform="scale(0.015625)"/>
      <path id="HelveticaCE-Bold-65" d="M 2419 998 
C 2349 755 2093 627 1843 627 
C 1120 627 1069 1203 1043 1459 
L 3379 1459 
L 3379 1619 
C 3379 3174 2451 3494 1779 3494 
C 288 3494 147 2182 147 1773 
C 147 371 883 -90 1843 -90 
C 2426 -90 3104 179 3341 998 
L 2419 998 
z
M 1069 2042 
C 1120 2490 1344 2758 1766 2758 
C 2054 2758 2406 2592 2458 2042 
L 1069 2042 
z
" transform="scale(0.015625)"/>
      <path id="HelveticaCE-Bold-72" d="M 410 0 
L 1306 0 
L 1306 1773 
C 1306 2150 1434 2586 2131 2586 
C 2214 2586 2310 2586 2387 2573 
L 2387 3482 
C 2330 3488 2272 3494 2214 3494 
C 1670 3494 1466 3162 1280 2816 
L 1267 2816 
L 1267 3405 
L 410 3405 
L 410 0 
z
" transform="scale(0.015625)"/>
      <path id="HelveticaCE-Bold-6e" d="M 3494 2355 
C 3494 3104 2976 3494 2310 3494 
C 1664 3494 1408 3110 1286 2906 
L 1274 2906 
L 1274 3405 
L 416 3405 
L 416 0 
L 1312 0 
L 1312 1952 
C 1312 2470 1619 2739 2016 2739 
C 2586 2739 2598 2317 2598 2067 
L 2598 0 
L 3494 0 
L 3494 2355 
z
" transform="scale(0.015625)"/>
      <path id="HelveticaCE-Bold-63" d="M 2438 1242 
C 2438 1082 2285 646 1830 646 
C 1152 646 1139 1382 1139 1754 
C 1139 2176 1286 2739 1850 2739 
C 2266 2765 2406 2413 2445 2189 
L 3354 2189 
C 3270 3251 2387 3494 1850 3494 
C 698 3494 218 2707 218 1606 
C 218 890 512 -90 1792 -90 
C 3040 -90 3315 890 3347 1242 
L 2438 1242 
z
" transform="scale(0.015625)"/>
      <path id="HelveticaCE-Bold-20" transform="scale(0.015625)"/>
      <path id="HelveticaCE-Bold-62" d="M 2778 1677 
C 2778 1274 2618 646 2042 646 
C 1472 646 1248 1120 1248 1626 
C 1248 2170 1402 2720 2016 2720 
C 2586 2720 2778 2214 2778 1677 
z
M 1286 4595 
L 390 4595 
L 390 0 
L 1267 0 
L 1267 429 
L 1280 429 
C 1498 45 1894 -90 2266 -90 
C 3277 -90 3699 806 3699 1741 
C 3699 2918 3034 3494 2285 3494 
C 1709 3494 1440 3181 1299 2963 
L 1286 2963 
L 1286 4595 
z
" transform="scale(0.015625)"/>
      <path id="HelveticaCE-Bold-74" d="M 1421 4326 
L 525 4326 
L 525 3405 
L 64 3405 
L 64 2765 
L 525 2765 
L 525 698 
C 525 256 666 -38 1440 -38 
L 1555 -38 
C 1696 -38 1837 -32 1978 -26 
L 1978 653 
C 1914 646 1850 640 1792 640 
C 1427 640 1421 717 1421 915 
L 1421 2765 
L 1978 2765 
L 1978 3405 
L 1421 3405 
L 1421 4326 
z
" transform="scale(0.015625)"/>
      <path id="HelveticaCE-Bold-77" d="M 4922 3405 
L 4000 3405 
L 3469 960 
L 3456 960 
L 2944 3405 
L 2042 3405 
L 1562 960 
L 1549 960 
L 1018 3405 
L 64 3405 
L 1024 0 
L 1946 0 
L 2477 2483 
L 2490 2483 
L 3021 0 
L 3942 0 
L 4922 3405 
z
" transform="scale(0.015625)"/>
      <path id="HelveticaCE-Bold-61" d="M 3174 2509 
C 3174 3347 2298 3494 1818 3494 
C 1120 3494 397 3347 294 2304 
L 1158 2304 
C 1184 2502 1261 2778 1709 2778 
C 1939 2778 2298 2758 2298 2381 
C 2298 2189 2125 2131 1984 2112 
L 1178 1990 
C 608 1907 186 1568 186 902 
C 186 198 710 -90 1222 -90 
C 1830 -90 2118 192 2323 403 
C 2342 211 2355 160 2406 0 
L 3373 0 
L 3373 134 
C 3264 173 3174 262 3174 666 
L 3174 2509 
z
M 2298 1222 
C 2298 806 1894 550 1498 550 
C 1325 550 1082 646 1082 960 
C 1082 1331 1357 1414 1690 1472 
C 2061 1530 2208 1587 2298 1658 
L 2298 1222 
z
" transform="scale(0.015625)"/>
      <path id="HelveticaCE-Bold-75" d="M 3488 3405 
L 2592 3405 
L 2592 1440 
C 2592 832 2195 666 1901 666 
C 1626 666 1318 768 1318 1293 
L 1318 3405 
L 422 3405 
L 422 1165 
C 422 294 909 -90 1581 -90 
C 2054 -90 2413 115 2618 480 
L 2630 480 
L 2630 0 
L 3488 0 
L 3488 3405 
z
" transform="scale(0.015625)"/>
      <path id="HelveticaCE-Bold-6c" d="M 1338 4595 
L 442 4595 
L 442 0 
L 1338 0 
L 1338 4595 
z
" transform="scale(0.015625)"/>
      <path id="HelveticaCE-Bold-64" d="M 3526 4595 
L 2630 4595 
L 2630 2963 
L 2618 2963 
C 2477 3181 2208 3494 1632 3494 
C 883 3494 218 2918 218 1741 
C 218 806 640 -90 1651 -90 
C 2022 -90 2419 45 2637 429 
L 2650 429 
L 2650 0 
L 3526 0 
L 3526 4595 
z
M 1139 1677 
C 1139 2214 1331 2720 1901 2720 
C 2515 2720 2669 2170 2669 1626 
C 2669 1120 2445 646 1875 646 
C 1299 646 1139 1274 1139 1677 
z
" transform="scale(0.015625)"/>
      <path id="HelveticaCE-Bold-73" d="M 3219 2368 
C 3149 3328 2355 3494 1690 3494 
C 627 3494 314 2854 314 2355 
C 314 1082 2426 1510 2426 941 
C 2426 813 2317 589 1856 589 
C 1293 589 1114 800 1114 1088 
L 192 1088 
C 218 179 1056 -90 1830 -90 
C 2362 -90 3322 90 3322 1082 
C 3322 2336 1190 1946 1190 2483 
C 1190 2630 1254 2816 1741 2816 
C 2227 2816 2304 2586 2342 2368 
L 3219 2368 
z
" transform="scale(0.015625)"/>
      <path id="HelveticaCE-Bold-6d" d="M 5286 2355 
C 5286 3104 4768 3494 4102 3494 
C 3558 3494 3309 3117 3194 2950 
C 2963 3315 2739 3494 2246 3494 
C 1645 3494 1395 3130 1280 2906 
L 1267 2906 
L 1267 3405 
L 410 3405 
L 410 0 
L 1306 0 
L 1306 2074 
C 1306 2445 1440 2739 1862 2739 
C 2400 2739 2400 2336 2400 2048 
L 2400 0 
L 3296 0 
L 3296 2042 
C 3296 2445 3456 2739 3904 2739 
C 4166 2739 4390 2573 4390 2067 
L 4390 0 
L 5286 0 
L 5286 2355 
z
" transform="scale(0.015625)"/>
      <path id="HelveticaCE-Bold-7a" d="M 3008 2669 
L 3008 3405 
L 250 3405 
L 250 2688 
L 1875 2688 
L 128 698 
L 128 0 
L 3072 0 
L 3072 736 
L 1286 736 
L 3008 2669 
z
" transform="scale(0.015625)"/>
      <path id="HelveticaCE-Bold-79" d="M 3450 3405 
L 2502 3405 
L 1805 896 
L 1792 896 
L 1062 3405 
L 64 3405 
L 1318 -141 
C 1235 -608 1056 -653 730 -653 
C 653 -653 595 -646 557 -640 
L 557 -1357 
C 685 -1363 838 -1370 960 -1370 
C 1741 -1370 1856 -1203 2278 58 
L 3450 3405 
z
" transform="scale(0.015625)"/>
     </defs>
     <use xlink:href="#HelveticaCE-Bold-44"/>
     <use xlink:href="#HelveticaCE-Bold-69" x="72.199982"/>
     <use xlink:href="#HelveticaCE-Bold-66" x="99.999969"/>
     <use xlink:href="#HelveticaCE-Bold-66" x="133.299957"/>
     <use xlink:href="#HelveticaCE-Bold-65" x="166.599945"/>
     <use xlink:href="#HelveticaCE-Bold-72" x="222.199936"/>
     <use xlink:href="#HelveticaCE-Bold-65" x="261.09993"/>
     <use xlink:href="#HelveticaCE-Bold-6e" x="316.699921"/>
     <use xlink:href="#HelveticaCE-Bold-63" x="377.799911"/>
     <use xlink:href="#HelveticaCE-Bold-65" x="433.399902"/>
     <use xlink:href="#HelveticaCE-Bold-20" x="488.999893"/>
     <use xlink:href="#HelveticaCE-Bold-62" x="516.799881"/>
     <use xlink:href="#HelveticaCE-Bold-65" x="577.899872"/>
     <use xlink:href="#HelveticaCE-Bold-74" x="633.499863"/>
     <use xlink:href="#HelveticaCE-Bold-77" x="666.79985"/>
     <use xlink:href="#HelveticaCE-Bold-65" x="744.599838"/>
     <use xlink:href="#HelveticaCE-Bold-65" x="800.199829"/>
     <use xlink:href="#HelveticaCE-Bold-6e" x="855.79982"/>
     <use xlink:href="#HelveticaCE-Bold-20" x="916.899811"/>
     <use xlink:href="#HelveticaCE-Bold-61" x="944.699799"/>
     <use xlink:href="#HelveticaCE-Bold-63" x="1000.299789"/>
     <use xlink:href="#HelveticaCE-Bold-74" x="1055.89978"/>
     <use xlink:href="#HelveticaCE-Bold-75" x="1089.199768"/>
     <use xlink:href="#HelveticaCE-Bold-61" x="1150.299759"/>
     <use xlink:href="#HelveticaCE-Bold-6c" x="1205.89975"/>
     <use xlink:href="#HelveticaCE-Bold-20" x="1233.699738"/>
     <use xlink:href="#HelveticaCE-Bold-61" x="1261.499725"/>
     <use xlink:href="#HelveticaCE-Bold-6e" x="1317.099716"/>
     <use xlink:href="#HelveticaCE-Bold-64" x="1378.199707"/>
     <use xlink:href="#HelveticaCE-Bold-20" x="1439.299698"/>
     <use xlink:href="#HelveticaCE-Bold-65" x="1467.099686"/>
     <use xlink:href="#HelveticaCE-Bold-73" x="1522.699677"/>
     <use xlink:href="#HelveticaCE-Bold-74" x="1578.299667"/>
     <use xlink:href="#HelveticaCE-Bold-69" x="1611.599655"/>
     <use xlink:href="#HelveticaCE-Bold-6d" x="1639.399643"/>
     <use xlink:href="#HelveticaCE-Bold-61" x="1728.299637"/>
     <use xlink:href="#HelveticaCE-Bold-74" x="1783.899628"/>
     <use xlink:href="#HelveticaCE-Bold-65" x="1817.199615"/>
     <use xlink:href="#HelveticaCE-Bold-64" x="1872.799606"/>
     <use xlink:href="#HelveticaCE-Bold-20" x="1933.899597"/>
     <use xlink:href="#HelveticaCE-Bold-7a" x="1961.699585"/>
     <use xlink:href="#HelveticaCE-Bold-66" x="2011.69957"/>
     <use xlink:href="#HelveticaCE-Bold-77" x="2044.999557"/>
     <use xlink:href="#HelveticaCE-Bold-73" x="2122.799545"/>
     <use xlink:href="#HelveticaCE-Bold-20" x="2178.399536"/>
     <use xlink:href="#HelveticaCE-Bold-62" x="2206.199524"/>
     <use xlink:href="#HelveticaCE-Bold-79" x="2267.299515"/>
     <use xlink:href="#HelveticaCE-Bold-20" x="2322.899506"/>
     <use xlink:href="#HelveticaCE-Bold-61" x="2350.699493"/>
     <use xlink:href="#HelveticaCE-Bold-69" x="2406.299484"/>
     <use xlink:href="#HelveticaCE-Bold-72" x="2434.099472"/>
     <use xlink:href="#HelveticaCE-Bold-6c" x="2472.999466"/>
     <use xlink:href="#HelveticaCE-Bold-69" x="2500.799454"/>
     <use xlink:href="#HelveticaCE-Bold-6e" x="2528.599442"/>
     <use xlink:href="#HelveticaCE-Bold-65" x="2589.699432"/>
    </g>
   </g>
  </g>
 </g>
 <defs>
  <clipPath id="padf76796e3">
   <rect x="43.31" y="24.72" width="406.69" height="278.92"/>
  </clipPath>
 </defs>
</svg>
