<?xml version="1.0" encoding="utf-8" standalone="no"?>
<!DOCTYPE svg PUBLIC "-//W3C//DTD SVG 1.1//EN"
  "http://www.w3.org/Graphics/SVG/1.1/DTD/svg11.dtd">
<svg xmlns:xlink="http://www.w3.org/1999/xlink" width="460.8pt" height="345.6pt" viewBox="0 0 460.8 345.6" xmlns="http://www.w3.org/2000/svg" version="1.1">
 <metadata>
  <rdf:RDF xmlns:dc="http://purl.org/dc/elements/1.1/" xmlns:cc="http://creativecommons.org/ns#" xmlns:rdf="http://www.w3.org/1999/02/22-rdf-syntax-ns#">
   <cc:Work>
    <dc:type rdf:resource="http://purl.org/dc/dcmitype/StillImage"/>
    <dc:date>2024-07-13T16:56:55.083509</dc:date>
    <dc:format>image/svg+xml</dc:format>
    <dc:creator>
     <cc:Agent>
      <dc:title>Matplotlib v3.8.4, https://matplotlib.org/</dc:title>
     </cc:Agent>
    </dc:creator>
   </cc:Work>
  </rdf:RDF>
 </metadata>
 <defs>
  <style type="text/css">*{stroke-linejoin: round; stroke-linecap: butt}</style>
 </defs>
 <g id="figure_1">
  <g id="patch_1">
   <path d="M 0 345.6 
L 460.8 345.6 
L 460.8 0 
L 0 0 
z
" style="fill: #ffffff"/>
  </g>
  <g id="axes_1">
   <g id="patch_2">
    <path d="M 50.87 244.55325 
L 269.644 244.55325 
L 269.644 24.72 
L 50.87 24.72 
z
" style="fill: #ffffff"/>
   </g>
   <g id="patch_3">
    <path d="M 69.101167 244.55325 
L 70.758545 244.55325 
L 70.758545 35.18825 
L 69.101167 35.18825 
z
" clip-path="url(#pf7c5790092)" style="fill: #1f77b4"/>
   </g>
   <g id="patch_4">
    <path d="M 142.025833 244.55325 
L 143.683212 244.55325 
L 143.683212 35.18825 
L 142.025833 35.18825 
z
" clip-path="url(#pf7c5790092)" style="fill: #1f77b4"/>
   </g>
   <g id="patch_5">
    <path d="M 214.9505 244.55325 
L 216.607879 244.55325 
L 216.607879 35.18825 
L 214.9505 35.18825 
z
" clip-path="url(#pf7c5790092)" style="fill: #1f77b4"/>
   </g>
   <g id="patch_6">
    <path d="M 70.758545 244.55325 
L 72.415924 244.55325 
L 72.415924 175.680404 
L 70.758545 175.680404 
z
" clip-path="url(#pf7c5790092)" style="fill: #ff7f0e"/>
   </g>
   <g id="patch_7">
    <path d="M 143.683212 244.55325 
L 145.340591 244.55325 
L 145.340591 122.051011 
L 143.683212 122.051011 
z
" clip-path="url(#pf7c5790092)" style="fill: #ff7f0e"/>
   </g>
   <g id="patch_8">
    <path d="M 216.607879 244.55325 
L 218.265258 244.55325 
L 218.265258 131.73375 
L 216.607879 131.73375 
z
" clip-path="url(#pf7c5790092)" style="fill: #ff7f0e"/>
   </g>
   <g id="patch_9">
    <path d="M 72.415924 244.55325 
L 74.073303 244.55325 
L 74.073303 35.822049 
L 72.415924 35.822049 
z
" clip-path="url(#pf7c5790092)" style="fill: #2ca02c"/>
   </g>
   <g id="patch_10">
    <path d="M 145.340591 244.55325 
L 146.99797 244.55325 
L 146.99797 73.402444 
L 145.340591 73.402444 
z
" clip-path="url(#pf7c5790092)" style="fill: #2ca02c"/>
   </g>
   <g id="patch_11">
    <path d="M 218.265258 244.55325 
L 219.922636 244.55325 
L 219.922636 35.981607 
L 218.265258 35.981607 
z
" clip-path="url(#pf7c5790092)" style="fill: #2ca02c"/>
   </g>
   <g id="patch_12">
    <path d="M 74.073303 244.55325 
L 75.730682 244.55325 
L 75.730682 176.243781 
L 74.073303 176.243781 
z
" clip-path="url(#pf7c5790092)" style="fill: #d62728"/>
   </g>
   <g id="patch_13">
    <path d="M 146.99797 244.55325 
L 148.655348 244.55325 
L 148.655348 89.392781 
L 146.99797 89.392781 
z
" clip-path="url(#pf7c5790092)" style="fill: #d62728"/>
   </g>
   <g id="patch_14">
    <path d="M 219.922636 244.55325 
L 221.580015 244.55325 
L 221.580015 243.617495 
L 219.922636 243.617495 
z
" clip-path="url(#pf7c5790092)" style="fill: #d62728"/>
   </g>
   <g id="patch_15">
    <path d="M 75.730682 244.55325 
L 77.388061 244.55325 
L 77.388061 182.79304 
L 75.730682 182.79304 
z
" clip-path="url(#pf7c5790092)" style="fill: #9467bd"/>
   </g>
   <g id="patch_16">
    <path d="M 148.655348 244.55325 
L 150.312727 244.55325 
L 150.312727 89.663803 
L 148.655348 89.663803 
z
" clip-path="url(#pf7c5790092)" style="fill: #9467bd"/>
   </g>
   <g id="patch_17">
    <path d="M 221.580015 244.55325 
L 223.237394 244.55325 
L 223.237394 244.492223 
L 221.580015 244.492223 
z
" clip-path="url(#pf7c5790092)" style="fill: #9467bd"/>
   </g>
   <g id="patch_18">
    <path d="M 77.388061 244.55325 
L 79.045439 244.55325 
L 79.045439 178.8494 
L 77.388061 178.8494 
z
" clip-path="url(#pf7c5790092)" style="fill: #8c564b"/>
   </g>
   <g id="patch_19">
    <path d="M 150.312727 244.55325 
L 151.970106 244.55325 
L 151.970106 244.55325 
L 150.312727 244.55325 
z
" clip-path="url(#pf7c5790092)" style="fill: #8c564b"/>
   </g>
   <g id="patch_20">
    <path d="M 223.237394 244.55325 
L 224.894773 244.55325 
L 224.894773 244.55325 
L 223.237394 244.55325 
z
" clip-path="url(#pf7c5790092)" style="fill: #8c564b"/>
   </g>
   <g id="patch_21">
    <path d="M 79.045439 244.55325 
L 80.702818 244.55325 
L 80.702818 123.708871 
L 79.045439 123.708871 
z
" clip-path="url(#pf7c5790092)" style="fill: #e377c2"/>
   </g>
   <g id="patch_22">
    <path d="M 151.970106 244.55325 
L 153.627485 244.55325 
L 153.627485 93.322609 
L 151.970106 93.322609 
z
" clip-path="url(#pf7c5790092)" style="fill: #e377c2"/>
   </g>
   <g id="patch_23">
    <path d="M 224.894773 244.55325 
L 226.552152 244.55325 
L 226.552152 213.246144 
L 224.894773 213.246144 
z
" clip-path="url(#pf7c5790092)" style="fill: #e377c2"/>
   </g>
   <g id="patch_24">
    <path d="M 80.702818 244.55325 
L 82.360197 244.55325 
L 82.360197 123.708871 
L 80.702818 123.708871 
z
" clip-path="url(#pf7c5790092)" style="fill: #7f7f7f"/>
   </g>
   <g id="patch_25">
    <path d="M 153.627485 244.55325 
L 155.284864 244.55325 
L 155.284864 93.322609 
L 153.627485 93.322609 
z
" clip-path="url(#pf7c5790092)" style="fill: #7f7f7f"/>
   </g>
   <g id="patch_26">
    <path d="M 226.552152 244.55325 
L 228.20953 244.55325 
L 228.20953 213.205459 
L 226.552152 213.205459 
z
" clip-path="url(#pf7c5790092)" style="fill: #7f7f7f"/>
   </g>
   <g id="patch_27">
    <path d="M 82.360197 244.55325 
L 84.017576 244.55325 
L 84.017576 244.55325 
L 82.360197 244.55325 
z
" clip-path="url(#pf7c5790092)" style="fill: #bcbd22"/>
   </g>
   <g id="patch_28">
    <path d="M 155.284864 244.55325 
L 156.942242 244.55325 
L 156.942242 138.31237 
L 155.284864 138.31237 
z
" clip-path="url(#pf7c5790092)" style="fill: #bcbd22"/>
   </g>
   <g id="patch_29">
    <path d="M 228.20953 244.55325 
L 229.866909 244.55325 
L 229.866909 244.55325 
L 228.20953 244.55325 
z
" clip-path="url(#pf7c5790092)" style="fill: #bcbd22"/>
   </g>
   <g id="patch_30">
    <path d="M 84.017576 244.55325 
L 85.674955 244.55325 
L 85.674955 123.708871 
L 84.017576 123.708871 
z
" clip-path="url(#pf7c5790092)" style="fill: #17becf"/>
   </g>
   <g id="patch_31">
    <path d="M 156.942242 244.55325 
L 158.599621 244.55325 
L 158.599621 93.322609 
L 156.942242 93.322609 
z
" clip-path="url(#pf7c5790092)" style="fill: #17becf"/>
   </g>
   <g id="patch_32">
    <path d="M 229.866909 244.55325 
L 231.524288 244.55325 
L 231.524288 213.246144 
L 229.866909 213.246144 
z
" clip-path="url(#pf7c5790092)" style="fill: #17becf"/>
   </g>
   <g id="patch_33">
    <path d="M 85.674955 244.55325 
L 87.332333 244.55325 
L 87.332333 244.55325 
L 85.674955 244.55325 
z
" clip-path="url(#pf7c5790092)" style="fill: #1f77b4"/>
   </g>
   <g id="patch_34">
    <path d="M 158.599621 244.55325 
L 160.257 244.55325 
L 160.257 244.55325 
L 158.599621 244.55325 
z
" clip-path="url(#pf7c5790092)" style="fill: #1f77b4"/>
   </g>
   <g id="patch_35">
    <path d="M 231.524288 244.55325 
L 233.181667 244.55325 
L 233.181667 244.55325 
L 231.524288 244.55325 
z
" clip-path="url(#pf7c5790092)" style="fill: #1f77b4"/>
   </g>
   <g id="patch_36">
    <path d="M 87.332333 244.55325 
L 88.989712 244.55325 
L 88.989712 173.145208 
L 87.332333 173.145208 
z
" clip-path="url(#pf7c5790092)" style="fill: #ff7f0e"/>
   </g>
   <g id="patch_37">
    <path d="M 160.257 244.55325 
L 161.914379 244.55325 
L 161.914379 93.729143 
L 160.257 93.729143 
z
" clip-path="url(#pf7c5790092)" style="fill: #ff7f0e"/>
   </g>
   <g id="patch_38">
    <path d="M 233.181667 244.55325 
L 234.839045 244.55325 
L 234.839045 219.470949 
L 233.181667 219.470949 
z
" clip-path="url(#pf7c5790092)" style="fill: #ff7f0e"/>
   </g>
   <g id="patch_39">
    <path d="M 88.989712 244.55325 
L 90.647091 244.55325 
L 90.647091 173.145208 
L 88.989712 173.145208 
z
" clip-path="url(#pf7c5790092)" style="fill: #2ca02c"/>
   </g>
   <g id="patch_40">
    <path d="M 161.914379 244.55325 
L 163.571758 244.55325 
L 163.571758 93.729143 
L 161.914379 93.729143 
z
" clip-path="url(#pf7c5790092)" style="fill: #2ca02c"/>
   </g>
   <g id="patch_41">
    <path d="M 234.839045 244.55325 
L 236.496424 244.55325 
L 236.496424 219.470949 
L 234.839045 219.470949 
z
" clip-path="url(#pf7c5790092)" style="fill: #2ca02c"/>
   </g>
   <g id="patch_42">
    <path d="M 90.647091 244.55325 
L 92.30447 244.55325 
L 92.30447 123.708871 
L 90.647091 123.708871 
z
" clip-path="url(#pf7c5790092)" style="fill: #d62728"/>
   </g>
   <g id="patch_43">
    <path d="M 163.571758 244.55325 
L 165.229136 244.55325 
L 165.229136 93.322609 
L 163.571758 93.322609 
z
" clip-path="url(#pf7c5790092)" style="fill: #d62728"/>
   </g>
   <g id="patch_44">
    <path d="M 236.496424 244.55325 
L 238.153803 244.55325 
L 238.153803 213.205459 
L 236.496424 213.205459 
z
" clip-path="url(#pf7c5790092)" style="fill: #d62728"/>
   </g>
   <g id="patch_45">
    <path d="M 92.30447 244.55325 
L 93.961848 244.55325 
L 93.961848 123.708871 
L 92.30447 123.708871 
z
" clip-path="url(#pf7c5790092)" style="fill: #9467bd"/>
   </g>
   <g id="patch_46">
    <path d="M 165.229136 244.55325 
L 166.886515 244.55325 
L 166.886515 93.322609 
L 165.229136 93.322609 
z
" clip-path="url(#pf7c5790092)" style="fill: #9467bd"/>
   </g>
   <g id="patch_47">
    <path d="M 238.153803 244.55325 
L 239.811182 244.55325 
L 239.811182 213.205459 
L 238.153803 213.205459 
z
" clip-path="url(#pf7c5790092)" style="fill: #9467bd"/>
   </g>
   <g id="patch_48">
    <path d="M 93.961848 244.55325 
L 95.619227 244.55325 
L 95.619227 173.145208 
L 93.961848 173.145208 
z
" clip-path="url(#pf7c5790092)" style="fill: #8c564b"/>
   </g>
   <g id="patch_49">
    <path d="M 166.886515 244.55325 
L 168.543894 244.55325 
L 168.543894 93.729143 
L 166.886515 93.729143 
z
" clip-path="url(#pf7c5790092)" style="fill: #8c564b"/>
   </g>
   <g id="patch_50">
    <path d="M 239.811182 244.55325 
L 241.468561 244.55325 
L 241.468561 219.450606 
L 239.811182 219.450606 
z
" clip-path="url(#pf7c5790092)" style="fill: #8c564b"/>
   </g>
   <g id="patch_51">
    <path d="M 95.619227 244.55325 
L 97.276606 244.55325 
L 97.276606 173.145208 
L 95.619227 173.145208 
z
" clip-path="url(#pf7c5790092)" style="fill: #e377c2"/>
   </g>
   <g id="patch_52">
    <path d="M 168.543894 244.55325 
L 170.201273 244.55325 
L 170.201273 93.729143 
L 168.543894 93.729143 
z
" clip-path="url(#pf7c5790092)" style="fill: #e377c2"/>
   </g>
   <g id="patch_53">
    <path d="M 241.468561 244.55325 
L 243.125939 244.55325 
L 243.125939 219.470949 
L 241.468561 219.470949 
z
" clip-path="url(#pf7c5790092)" style="fill: #e377c2"/>
   </g>
   <g id="patch_54">
    <path d="M 97.276606 244.55325 
L 98.933985 244.55325 
L 98.933985 123.35676 
L 97.276606 123.35676 
z
" clip-path="url(#pf7c5790092)" style="fill: #7f7f7f"/>
   </g>
   <g id="patch_55">
    <path d="M 170.201273 244.55325 
L 171.858652 244.55325 
L 171.858652 96.574881 
L 170.201273 96.574881 
z
" clip-path="url(#pf7c5790092)" style="fill: #7f7f7f"/>
   </g>
   <g id="patch_56">
    <path d="M 243.125939 244.55325 
L 244.783318 244.55325 
L 244.783318 213.612309 
L 243.125939 213.612309 
z
" clip-path="url(#pf7c5790092)" style="fill: #7f7f7f"/>
   </g>
   <g id="patch_57">
    <path d="M 98.933985 244.55325 
L 100.591364 244.55325 
L 100.591364 123.35676 
L 98.933985 123.35676 
z
" clip-path="url(#pf7c5790092)" style="fill: #bcbd22"/>
   </g>
   <g id="patch_58">
    <path d="M 171.858652 244.55325 
L 173.51603 244.55325 
L 173.51603 96.574881 
L 171.858652 96.574881 
z
" clip-path="url(#pf7c5790092)" style="fill: #bcbd22"/>
   </g>
   <g id="patch_59">
    <path d="M 244.783318 244.55325 
L 246.440697 244.55325 
L 246.440697 213.612309 
L 244.783318 213.612309 
z
" clip-path="url(#pf7c5790092)" style="fill: #bcbd22"/>
   </g>
   <g id="patch_60">
    <path d="M 100.591364 244.55325 
L 102.248742 244.55325 
L 102.248742 123.35676 
L 100.591364 123.35676 
z
" clip-path="url(#pf7c5790092)" style="fill: #17becf"/>
   </g>
   <g id="patch_61">
    <path d="M 173.51603 244.55325 
L 175.173409 244.55325 
L 175.173409 96.574881 
L 173.51603 96.574881 
z
" clip-path="url(#pf7c5790092)" style="fill: #17becf"/>
   </g>
   <g id="patch_62">
    <path d="M 246.440697 244.55325 
L 248.098076 244.55325 
L 248.098076 213.205459 
L 246.440697 213.205459 
z
" clip-path="url(#pf7c5790092)" style="fill: #17becf"/>
   </g>
   <g id="patch_63">
    <path d="M 102.248742 244.55325 
L 103.906121 244.55325 
L 103.906121 123.35676 
L 102.248742 123.35676 
z
" clip-path="url(#pf7c5790092)" style="fill: #1f77b4"/>
   </g>
   <g id="patch_64">
    <path d="M 175.173409 244.55325 
L 176.830788 244.55325 
L 176.830788 96.574881 
L 175.173409 96.574881 
z
" clip-path="url(#pf7c5790092)" style="fill: #1f77b4"/>
   </g>
   <g id="patch_65">
    <path d="M 248.098076 244.55325 
L 249.755455 244.55325 
L 249.755455 213.205459 
L 248.098076 213.205459 
z
" clip-path="url(#pf7c5790092)" style="fill: #1f77b4"/>
   </g>
   <g id="patch_66">
    <path d="M 103.906121 244.55325 
L 105.5635 244.55325 
L 105.5635 35.18825 
L 103.906121 35.18825 
z
" clip-path="url(#pf7c5790092)" style="fill: #ff7f0e"/>
   </g>
   <g id="patch_67">
    <path d="M 176.830788 244.55325 
L 178.488167 244.55325 
L 178.488167 35.18825 
L 176.830788 35.18825 
z
" clip-path="url(#pf7c5790092)" style="fill: #ff7f0e"/>
   </g>
   <g id="patch_68">
    <path d="M 249.755455 244.55325 
L 251.412833 244.55325 
L 251.412833 35.18825 
L 249.755455 35.18825 
z
" clip-path="url(#pf7c5790092)" style="fill: #ff7f0e"/>
   </g>
   <g id="matplotlib.axis_1">
    <g id="xtick_1">
     <g id="line2d_1">
      <defs>
       <path id="m00ed36823c" d="M 0 0 
L 0 3.5 
" style="stroke: #000000; stroke-width: 0.8"/>
      </defs>
      <g>
       <use xlink:href="#m00ed36823c" x="87.332333" y="244.55325" style="stroke: #000000; stroke-width: 0.8"/>
      </g>
     </g>
     <g id="text_1">
      <!-- AB -->
      <g transform="translate(84.422147 266.063302) rotate(-45) scale(0.1 -0.1)">
       <defs>
        <path id="Helvetica-41" d="M 3053 1338 
L 3507 0 
L 4186 0 
L 2522 4595 
L 1818 4595 
L 90 0 
L 730 0 
L 1210 1338 
L 3053 1338 
z
M 1402 1888 
L 2138 3910 
L 2150 3910 
L 2829 1888 
L 1402 1888 
z
" transform="scale(0.015625)"/>
        <path id="Helvetica-42" d="M 1094 4064 
L 2221 4064 
C 2912 4064 3174 3821 3174 3392 
C 3174 2829 2810 2650 2214 2650 
L 1094 2650 
L 1094 4064 
z
M 474 0 
L 2451 0 
C 3469 0 4013 621 4013 1357 
C 4013 2144 3482 2355 3181 2477 
C 3686 2714 3795 3136 3795 3437 
C 3795 4064 3354 4595 2496 4595 
L 474 4595 
L 474 0 
z
M 1094 2144 
L 2317 2144 
C 2822 2144 3392 2016 3392 1370 
C 3392 858 3066 531 2419 531 
L 1094 531 
L 1094 2144 
z
" transform="scale(0.015625)"/>
       </defs>
       <use xlink:href="#Helvetica-41"/>
       <use xlink:href="#Helvetica-42" x="66.699997"/>
      </g>
     </g>
    </g>
    <g id="xtick_2">
     <g id="line2d_2">
      <g>
       <use xlink:href="#m00ed36823c" x="160.257" y="244.55325" style="stroke: #000000; stroke-width: 0.8"/>
      </g>
     </g>
     <g id="text_2">
      <!-- MN -->
      <g transform="translate(156.565682 267.625566) rotate(-45) scale(0.1 -0.1)">
       <defs>
        <path id="Helvetica-4d" d="M 4870 0 
L 4870 4595 
L 3987 4595 
L 2682 710 
L 2669 710 
L 1357 4595 
L 467 4595 
L 467 0 
L 1069 0 
L 1069 2714 
C 1069 2848 1056 3430 1056 3853 
L 1069 3853 
L 2362 0 
L 2976 0 
L 4269 3859 
L 4282 3859 
C 4282 3430 4269 2848 4269 2714 
L 4269 0 
L 4870 0 
z
" transform="scale(0.015625)"/>
        <path id="Helvetica-4e" d="M 3533 883 
L 3520 883 
L 1222 4595 
L 486 4595 
L 486 0 
L 1088 0 
L 1088 3712 
L 1101 3712 
L 3437 0 
L 4134 0 
L 4134 4595 
L 3533 4595 
L 3533 883 
z
" transform="scale(0.015625)"/>
       </defs>
       <use xlink:href="#Helvetica-4d"/>
       <use xlink:href="#Helvetica-4e" x="83.299988"/>
      </g>
     </g>
    </g>
    <g id="xtick_3">
     <g id="line2d_3">
      <g>
       <use xlink:href="#m00ed36823c" x="233.181667" y="244.55325" style="stroke: #000000; stroke-width: 0.8"/>
      </g>
     </g>
     <g id="text_3">
      <!-- ZY -->
      <g transform="translate(230.469802 265.666659) rotate(-45) scale(0.1 -0.1)">
       <defs>
        <path id="Helvetica-5a" d="M 3763 550 
L 934 550 
L 3763 4058 
L 3763 4595 
L 358 4595 
L 358 4045 
L 2963 4045 
L 147 518 
L 147 0 
L 3763 0 
L 3763 550 
z
" transform="scale(0.015625)"/>
        <path id="Helvetica-59" d="M 2445 1850 
L 4179 4595 
L 3450 4595 
L 2131 2387 
L 813 4595 
L 90 4595 
L 1824 1850 
L 1824 0 
L 2445 0 
L 2445 1850 
z
" transform="scale(0.015625)"/>
       </defs>
       <use xlink:href="#Helvetica-5a"/>
       <use xlink:href="#Helvetica-59" x="61.099991"/>
      </g>
     </g>
    </g>
    <g id="text_4">
     <!-- Airline Code -->
     <g transform="translate(133.028094 280.269186) scale(0.1 -0.1)">
      <defs>
       <path id="Helvetica-69" d="M 992 3347 
L 429 3347 
L 429 0 
L 992 0 
L 992 3347 
z
M 992 3955 
L 992 4595 
L 429 4595 
L 429 3955 
L 992 3955 
z
" transform="scale(0.015625)"/>
       <path id="Helvetica-72" d="M 1056 1946 
C 1056 2432 1389 2842 1914 2842 
L 2125 2842 
L 2125 3424 
C 2080 3437 2048 3443 1978 3443 
C 1555 3443 1261 3181 1037 2790 
L 1024 2790 
L 1024 3347 
L 493 3347 
L 493 0 
L 1056 0 
L 1056 1946 
z
" transform="scale(0.015625)"/>
       <path id="Helvetica-6c" d="M 992 4595 
L 429 4595 
L 429 0 
L 992 0 
L 992 4595 
z
" transform="scale(0.015625)"/>
       <path id="Helvetica-6e" d="M 3142 2278 
C 3142 3232 2490 3443 1971 3443 
C 1395 3443 1082 3053 960 2874 
L 947 2874 
L 947 3347 
L 416 3347 
L 416 0 
L 979 0 
L 979 1824 
C 979 2733 1542 2938 1862 2938 
C 2413 2938 2579 2643 2579 2061 
L 2579 0 
L 3142 0 
L 3142 2278 
z
" transform="scale(0.015625)"/>
       <path id="Helvetica-65" d="M 2694 1050 
C 2675 800 2362 390 1830 390 
C 1184 390 858 794 858 1491 
L 3302 1491 
C 3302 2675 2829 3443 1862 3443 
C 755 3443 256 2618 256 1581 
C 256 614 813 -96 1754 -96 
C 2291 -96 2509 32 2662 134 
C 3085 416 3238 890 3258 1050 
L 2694 1050 
z
M 858 1939 
C 858 2458 1267 2938 1786 2938 
C 2470 2938 2688 2458 2720 1939 
L 858 1939 
z
" transform="scale(0.015625)"/>
       <path id="Helvetica-20" transform="scale(0.015625)"/>
       <path id="Helvetica-43" d="M 4314 3213 
C 4224 3981 3610 4717 2426 4717 
C 1088 4717 282 3738 282 2323 
C 282 557 1306 -122 2349 -122 
C 2694 -122 4102 -45 4358 1690 
L 3757 1690 
C 3546 621 2848 429 2445 429 
C 1306 429 922 1261 922 2342 
C 922 3552 1594 4166 2426 4166 
C 2867 4166 3539 4019 3712 3213 
L 4314 3213 
z
" transform="scale(0.015625)"/>
       <path id="Helvetica-6f" d="M 224 1677 
C 224 813 710 -90 1779 -90 
C 2848 -90 3334 813 3334 1677 
C 3334 2541 2848 3443 1779 3443 
C 710 3443 224 2541 224 1677 
z
M 806 1677 
C 806 2125 973 2957 1779 2957 
C 2586 2957 2752 2125 2752 1677 
C 2752 1229 2586 397 1779 397 
C 973 397 806 1229 806 1677 
z
" transform="scale(0.015625)"/>
       <path id="Helvetica-64" d="M 3194 4595 
L 2630 4595 
L 2630 2918 
L 2618 2874 
C 2483 3066 2227 3443 1619 3443 
C 730 3443 224 2714 224 1773 
C 224 973 557 -96 1696 -96 
C 2022 -96 2406 6 2650 461 
L 2662 461 
L 2662 0 
L 3194 0 
L 3194 4595 
z
M 806 1683 
C 806 2112 851 2938 1722 2938 
C 2534 2938 2624 2061 2624 1517 
C 2624 627 2067 390 1709 390 
C 1094 390 806 947 806 1683 
z
" transform="scale(0.015625)"/>
      </defs>
      <use xlink:href="#Helvetica-41"/>
      <use xlink:href="#Helvetica-69" x="66.699997"/>
      <use xlink:href="#Helvetica-72" x="88.899994"/>
      <use xlink:href="#Helvetica-6c" x="122.199982"/>
      <use xlink:href="#Helvetica-69" x="144.399979"/>
      <use xlink:href="#Helvetica-6e" x="166.599976"/>
      <use xlink:href="#Helvetica-65" x="222.199966"/>
      <use xlink:href="#Helvetica-20" x="277.799957"/>
      <use xlink:href="#Helvetica-43" x="305.599945"/>
      <use xlink:href="#Helvetica-6f" x="377.799927"/>
      <use xlink:href="#Helvetica-64" x="433.399918"/>
      <use xlink:href="#Helvetica-65" x="488.999908"/>
     </g>
    </g>
   </g>
   <g id="matplotlib.axis_2">
    <g id="ytick_1">
     <g id="line2d_4">
      <defs>
       <path id="m5fe7fb543d" d="M 0 0 
L -3.5 0 
" style="stroke: #000000; stroke-width: 0.8"/>
      </defs>
      <g>
       <use xlink:href="#m5fe7fb543d" x="50.87" y="244.55325" style="stroke: #000000; stroke-width: 0.8"/>
      </g>
     </g>
     <g id="text_5">
      <!-- 0 -->
      <g transform="translate(37.5075 248.352469) scale(0.1 -0.1)">
       <defs>
        <path id="DejaVuSans-30" d="M 2034 4250 
Q 1547 4250 1301 3770 
Q 1056 3291 1056 2328 
Q 1056 1369 1301 889 
Q 1547 409 2034 409 
Q 2525 409 2770 889 
Q 3016 1369 3016 2328 
Q 3016 3291 2770 3770 
Q 2525 4250 2034 4250 
z
M 2034 4750 
Q 2819 4750 3233 4129 
Q 3647 3509 3647 2328 
Q 3647 1150 3233 529 
Q 2819 -91 2034 -91 
Q 1250 -91 836 529 
Q 422 1150 422 2328 
Q 422 3509 836 4129 
Q 1250 4750 2034 4750 
z
" transform="scale(0.015625)"/>
       </defs>
       <use xlink:href="#DejaVuSans-30"/>
      </g>
     </g>
    </g>
    <g id="ytick_2">
     <g id="line2d_5">
      <g>
       <use xlink:href="#m5fe7fb543d" x="50.87" y="202.68025" style="stroke: #000000; stroke-width: 0.8"/>
      </g>
     </g>
     <g id="text_6">
      <!-- 20 -->
      <g transform="translate(31.145 206.479469) scale(0.1 -0.1)">
       <defs>
        <path id="DejaVuSans-32" d="M 1228 531 
L 3431 531 
L 3431 0 
L 469 0 
L 469 531 
Q 828 903 1448 1529 
Q 2069 2156 2228 2338 
Q 2531 2678 2651 2914 
Q 2772 3150 2772 3378 
Q 2772 3750 2511 3984 
Q 2250 4219 1831 4219 
Q 1534 4219 1204 4116 
Q 875 4013 500 3803 
L 500 4441 
Q 881 4594 1212 4672 
Q 1544 4750 1819 4750 
Q 2544 4750 2975 4387 
Q 3406 4025 3406 3419 
Q 3406 3131 3298 2873 
Q 3191 2616 2906 2266 
Q 2828 2175 2409 1742 
Q 1991 1309 1228 531 
z
" transform="scale(0.015625)"/>
       </defs>
       <use xlink:href="#DejaVuSans-32"/>
       <use xlink:href="#DejaVuSans-30" x="63.623047"/>
      </g>
     </g>
    </g>
    <g id="ytick_3">
     <g id="line2d_6">
      <g>
       <use xlink:href="#m5fe7fb543d" x="50.87" y="160.80725" style="stroke: #000000; stroke-width: 0.8"/>
      </g>
     </g>
     <g id="text_7">
      <!-- 40 -->
      <g transform="translate(31.145 164.606469) scale(0.1 -0.1)">
       <defs>
        <path id="DejaVuSans-34" d="M 2419 4116 
L 825 1625 
L 2419 1625 
L 2419 4116 
z
M 2253 4666 
L 3047 4666 
L 3047 1625 
L 3713 1625 
L 3713 1100 
L 3047 1100 
L 3047 0 
L 2419 0 
L 2419 1100 
L 313 1100 
L 313 1709 
L 2253 4666 
z
" transform="scale(0.015625)"/>
       </defs>
       <use xlink:href="#DejaVuSans-34"/>
       <use xlink:href="#DejaVuSans-30" x="63.623047"/>
      </g>
     </g>
    </g>
    <g id="ytick_4">
     <g id="line2d_7">
      <g>
       <use xlink:href="#m5fe7fb543d" x="50.87" y="118.93425" style="stroke: #000000; stroke-width: 0.8"/>
      </g>
     </g>
     <g id="text_8">
      <!-- 60 -->
      <g transform="translate(31.145 122.733469) scale(0.1 -0.1)">
       <defs>
        <path id="DejaVuSans-36" d="M 2113 2584 
Q 1688 2584 1439 2293 
Q 1191 2003 1191 1497 
Q 1191 994 1439 701 
Q 1688 409 2113 409 
Q 2538 409 2786 701 
Q 3034 994 3034 1497 
Q 3034 2003 2786 2293 
Q 2538 2584 2113 2584 
z
M 3366 4563 
L 3366 3988 
Q 3128 4100 2886 4159 
Q 2644 4219 2406 4219 
Q 1781 4219 1451 3797 
Q 1122 3375 1075 2522 
Q 1259 2794 1537 2939 
Q 1816 3084 2150 3084 
Q 2853 3084 3261 2657 
Q 3669 2231 3669 1497 
Q 3669 778 3244 343 
Q 2819 -91 2113 -91 
Q 1303 -91 875 529 
Q 447 1150 447 2328 
Q 447 3434 972 4092 
Q 1497 4750 2381 4750 
Q 2619 4750 2861 4703 
Q 3103 4656 3366 4563 
z
" transform="scale(0.015625)"/>
       </defs>
       <use xlink:href="#DejaVuSans-36"/>
       <use xlink:href="#DejaVuSans-30" x="63.623047"/>
      </g>
     </g>
    </g>
    <g id="ytick_5">
     <g id="line2d_8">
      <g>
       <use xlink:href="#m5fe7fb543d" x="50.87" y="77.06125" style="stroke: #000000; stroke-width: 0.8"/>
      </g>
     </g>
     <g id="text_9">
      <!-- 80 -->
      <g transform="translate(31.145 80.860469) scale(0.1 -0.1)">
       <defs>
        <path id="DejaVuSans-38" d="M 2034 2216 
Q 1584 2216 1326 1975 
Q 1069 1734 1069 1313 
Q 1069 891 1326 650 
Q 1584 409 2034 409 
Q 2484 409 2743 651 
Q 3003 894 3003 1313 
Q 3003 1734 2745 1975 
Q 2488 2216 2034 2216 
z
M 1403 2484 
Q 997 2584 770 2862 
Q 544 3141 544 3541 
Q 544 4100 942 4425 
Q 1341 4750 2034 4750 
Q 2731 4750 3128 4425 
Q 3525 4100 3525 3541 
Q 3525 3141 3298 2862 
Q 3072 2584 2669 2484 
Q 3125 2378 3379 2068 
Q 3634 1759 3634 1313 
Q 3634 634 3220 271 
Q 2806 -91 2034 -91 
Q 1263 -91 848 271 
Q 434 634 434 1313 
Q 434 1759 690 2068 
Q 947 2378 1403 2484 
z
M 1172 3481 
Q 1172 3119 1398 2916 
Q 1625 2713 2034 2713 
Q 2441 2713 2670 2916 
Q 2900 3119 2900 3481 
Q 2900 3844 2670 4047 
Q 2441 4250 2034 4250 
Q 1625 4250 1398 4047 
Q 1172 3844 1172 3481 
z
" transform="scale(0.015625)"/>
       </defs>
       <use xlink:href="#DejaVuSans-38"/>
       <use xlink:href="#DejaVuSans-30" x="63.623047"/>
      </g>
     </g>
    </g>
    <g id="ytick_6">
     <g id="line2d_9">
      <g>
       <use xlink:href="#m5fe7fb543d" x="50.87" y="35.18825" style="stroke: #000000; stroke-width: 0.8"/>
      </g>
     </g>
     <g id="text_10">
      <!-- 100 -->
      <g transform="translate(24.7825 38.987469) scale(0.1 -0.1)">
       <defs>
        <path id="DejaVuSans-31" d="M 794 531 
L 1825 531 
L 1825 4091 
L 703 3866 
L 703 4441 
L 1819 4666 
L 2450 4666 
L 2450 531 
L 3481 531 
L 3481 0 
L 794 0 
L 794 531 
z
" transform="scale(0.015625)"/>
       </defs>
       <use xlink:href="#DejaVuSans-31"/>
       <use xlink:href="#DejaVuSans-30" x="63.623047"/>
       <use xlink:href="#DejaVuSans-30" x="127.246094"/>
      </g>
     </g>
    </g>
    <g id="text_11">
     <!-- Filled Percentage -->
     <g transform="translate(18.5825 173.538969) rotate(-90) scale(0.1 -0.1)">
      <defs>
       <path id="Helvetica-46" d="M 1171 2086 
L 3424 2086 
L 3424 2637 
L 1171 2637 
L 1171 4045 
L 3731 4045 
L 3731 4595 
L 550 4595 
L 550 0 
L 1171 0 
L 1171 2086 
z
" transform="scale(0.015625)"/>
       <path id="Helvetica-50" d="M 1171 4064 
L 2432 4064 
C 2944 4064 3341 3878 3341 3296 
C 3341 2675 2963 2470 2406 2470 
L 1171 2470 
L 1171 4064 
z
M 1171 1939 
L 2618 1939 
C 3616 1939 3981 2662 3981 3302 
C 3981 4045 3469 4595 2618 4595 
L 550 4595 
L 550 0 
L 1171 0 
L 1171 1939 
z
" transform="scale(0.015625)"/>
       <path id="Helvetica-63" d="M 3053 2221 
C 3008 2803 2675 3443 1798 3443 
C 691 3443 192 2618 192 1581 
C 192 614 749 -96 1690 -96 
C 2669 -96 2995 653 3053 1184 
L 2509 1184 
C 2413 672 2086 390 1709 390 
C 934 390 794 1101 794 1677 
C 794 2272 1018 2938 1715 2938 
C 2189 2938 2438 2669 2509 2221 
L 3053 2221 
z
" transform="scale(0.015625)"/>
       <path id="Helvetica-74" d="M 1645 2880 
L 1645 3347 
L 1107 3347 
L 1107 4282 
L 544 4282 
L 544 3347 
L 90 3347 
L 90 2880 
L 544 2880 
L 544 672 
C 544 269 666 -45 1222 -45 
C 1280 -45 1440 -19 1645 0 
L 1645 442 
L 1446 442 
C 1331 442 1107 442 1107 704 
L 1107 2880 
L 1645 2880 
z
" transform="scale(0.015625)"/>
       <path id="Helvetica-61" d="M 915 2330 
C 954 2586 1043 2976 1683 2976 
C 2214 2976 2470 2784 2470 2432 
C 2470 2099 2310 2048 2176 2035 
L 1248 1920 
C 314 1805 230 1152 230 870 
C 230 294 666 -96 1280 -96 
C 1933 -96 2272 211 2490 448 
C 2509 192 2586 -64 3085 -64 
C 3213 -64 3296 -26 3392 0 
L 3392 410 
C 3328 397 3258 384 3206 384 
C 3091 384 3021 442 3021 582 
L 3021 2509 
C 3021 3366 2048 3443 1779 3443 
C 954 3443 422 3130 397 2330 
L 915 2330 
z
M 2458 1158 
C 2458 710 1946 371 1421 371 
C 998 371 813 589 813 954 
C 813 1376 1254 1459 1530 1498 
C 2227 1587 2368 1638 2458 1709 
L 2458 1158 
z
" transform="scale(0.015625)"/>
       <path id="Helvetica-67" d="M 838 1683 
C 838 2112 883 2938 1754 2938 
C 2566 2938 2656 2061 2656 1517 
C 2656 627 2099 390 1741 390 
C 1126 390 838 947 838 1683 
z
M 3194 3347 
L 2662 3347 
L 2662 2874 
L 2650 2874 
C 2515 3066 2259 3443 1651 3443 
C 762 3443 256 2714 256 1773 
C 256 973 589 -96 1728 -96 
C 2176 -96 2470 115 2618 352 
L 2618 378 
L 2630 378 
L 2630 237 
C 2630 -160 2650 -941 1677 -941 
C 1542 -941 1024 -941 922 -410 
L 358 -410 
C 467 -1299 1242 -1408 1638 -1408 
C 3187 -1408 3194 -205 3194 275 
L 3194 3347 
z
" transform="scale(0.015625)"/>
      </defs>
      <use xlink:href="#Helvetica-46"/>
      <use xlink:href="#Helvetica-69" x="61.099991"/>
      <use xlink:href="#Helvetica-6c" x="83.299988"/>
      <use xlink:href="#Helvetica-6c" x="105.499985"/>
      <use xlink:href="#Helvetica-65" x="127.699982"/>
      <use xlink:href="#Helvetica-64" x="183.299973"/>
      <use xlink:href="#Helvetica-20" x="238.899963"/>
      <use xlink:href="#Helvetica-50" x="266.699951"/>
      <use xlink:href="#Helvetica-65" x="333.399948"/>
      <use xlink:href="#Helvetica-72" x="388.999939"/>
      <use xlink:href="#Helvetica-63" x="422.299927"/>
      <use xlink:href="#Helvetica-65" x="472.299911"/>
      <use xlink:href="#Helvetica-6e" x="527.899902"/>
      <use xlink:href="#Helvetica-74" x="583.499893"/>
      <use xlink:href="#Helvetica-61" x="611.299881"/>
      <use xlink:href="#Helvetica-67" x="666.899872"/>
      <use xlink:href="#Helvetica-65" x="722.499863"/>
     </g>
    </g>
   </g>
   <g id="patch_69">
    <path d="M 50.87 244.55325 
L 50.87 24.72 
" style="fill: none; stroke: #000000; stroke-width: 0.8; stroke-linejoin: miter; stroke-linecap: square"/>
   </g>
   <g id="patch_70">
    <path d="M 269.644 244.55325 
L 269.644 24.72 
" style="fill: none; stroke: #000000; stroke-width: 0.8; stroke-linejoin: miter; stroke-linecap: square"/>
   </g>
   <g id="patch_71">
    <path d="M 50.87 244.55325 
L 269.644 244.55325 
" style="fill: none; stroke: #000000; stroke-width: 0.8; stroke-linejoin: miter; stroke-linecap: square"/>
   </g>
   <g id="patch_72">
    <path d="M 50.87 24.72 
L 269.644 24.72 
" style="fill: none; stroke: #000000; stroke-width: 0.8; stroke-linejoin: miter; stroke-linecap: square"/>
   </g>
   <g id="text_12">
    <!-- Filled Percentage by Airline -->
    <g transform="translate(94.682 18.72) scale(0.1 -0.1)">
     <defs>
      <path id="HelveticaCE-Bold-46" d="M 1446 1933 
L 3469 1933 
L 3469 2746 
L 1446 2746 
L 1446 3782 
L 3757 3782 
L 3757 4595 
L 486 4595 
L 486 0 
L 1446 0 
L 1446 1933 
z
" transform="scale(0.015625)"/>
      <path id="HelveticaCE-Bold-69" d="M 442 3405 
L 442 0 
L 1338 0 
L 1338 3405 
L 442 3405 
z
M 1338 4640 
L 442 4640 
L 442 3808 
L 1338 3808 
L 1338 4640 
z
" transform="scale(0.015625)"/>
      <path id="HelveticaCE-Bold-6c" d="M 1338 4595 
L 442 4595 
L 442 0 
L 1338 0 
L 1338 4595 
z
" transform="scale(0.015625)"/>
      <path id="HelveticaCE-Bold-65" d="M 2419 998 
C 2349 755 2093 627 1843 627 
C 1120 627 1069 1203 1043 1459 
L 3379 1459 
L 3379 1619 
C 3379 3174 2451 3494 1779 3494 
C 288 3494 147 2182 147 1773 
C 147 371 883 -90 1843 -90 
C 2426 -90 3104 179 3341 998 
L 2419 998 
z
M 1069 2042 
C 1120 2490 1344 2758 1766 2758 
C 2054 2758 2406 2592 2458 2042 
L 1069 2042 
z
" transform="scale(0.015625)"/>
      <path id="HelveticaCE-Bold-64" d="M 3526 4595 
L 2630 4595 
L 2630 2963 
L 2618 2963 
C 2477 3181 2208 3494 1632 3494 
C 883 3494 218 2918 218 1741 
C 218 806 640 -90 1651 -90 
C 2022 -90 2419 45 2637 429 
L 2650 429 
L 2650 0 
L 3526 0 
L 3526 4595 
z
M 1139 1677 
C 1139 2214 1331 2720 1901 2720 
C 2515 2720 2669 2170 2669 1626 
C 2669 1120 2445 646 1875 646 
C 1299 646 1139 1274 1139 1677 
z
" transform="scale(0.015625)"/>
      <path id="HelveticaCE-Bold-20" transform="scale(0.015625)"/>
      <path id="HelveticaCE-Bold-50" d="M 1446 1658 
L 2547 1658 
C 3782 1658 4013 2707 4013 3123 
C 4013 4026 3475 4595 2586 4595 
L 486 4595 
L 486 0 
L 1446 0 
L 1446 1658 
z
M 1446 2451 
L 1446 3802 
L 2208 3802 
C 2803 3802 3053 3616 3053 3168 
C 3053 2963 3053 2451 2336 2451 
L 1446 2451 
z
" transform="scale(0.015625)"/>
      <path id="HelveticaCE-Bold-72" d="M 410 0 
L 1306 0 
L 1306 1773 
C 1306 2150 1434 2586 2131 2586 
C 2214 2586 2310 2586 2387 2573 
L 2387 3482 
C 2330 3488 2272 3494 2214 3494 
C 1670 3494 1466 3162 1280 2816 
L 1267 2816 
L 1267 3405 
L 410 3405 
L 410 0 
z
" transform="scale(0.015625)"/>
      <path id="HelveticaCE-Bold-63" d="M 2438 1242 
C 2438 1082 2285 646 1830 646 
C 1152 646 1139 1382 1139 1754 
C 1139 2176 1286 2739 1850 2739 
C 2266 2765 2406 2413 2445 2189 
L 3354 2189 
C 3270 3251 2387 3494 1850 3494 
C 698 3494 218 2707 218 1606 
C 218 890 512 -90 1792 -90 
C 3040 -90 3315 890 3347 1242 
L 2438 1242 
z
" transform="scale(0.015625)"/>
      <path id="HelveticaCE-Bold-6e" d="M 3494 2355 
C 3494 3104 2976 3494 2310 3494 
C 1664 3494 1408 3110 1286 2906 
L 1274 2906 
L 1274 3405 
L 416 3405 
L 416 0 
L 1312 0 
L 1312 1952 
C 1312 2470 1619 2739 2016 2739 
C 2586 2739 2598 2317 2598 2067 
L 2598 0 
L 3494 0 
L 3494 2355 
z
" transform="scale(0.015625)"/>
      <path id="HelveticaCE-Bold-74" d="M 1421 4326 
L 525 4326 
L 525 3405 
L 64 3405 
L 64 2765 
L 525 2765 
L 525 698 
C 525 256 666 -38 1440 -38 
L 1555 -38 
C 1696 -38 1837 -32 1978 -26 
L 1978 653 
C 1914 646 1850 640 1792 640 
C 1427 640 1421 717 1421 915 
L 1421 2765 
L 1978 2765 
L 1978 3405 
L 1421 3405 
L 1421 4326 
z
" transform="scale(0.015625)"/>
      <path id="HelveticaCE-Bold-61" d="M 3174 2509 
C 3174 3347 2298 3494 1818 3494 
C 1120 3494 397 3347 294 2304 
L 1158 2304 
C 1184 2502 1261 2778 1709 2778 
C 1939 2778 2298 2758 2298 2381 
C 2298 2189 2125 2131 1984 2112 
L 1178 1990 
C 608 1907 186 1568 186 902 
C 186 198 710 -90 1222 -90 
C 1830 -90 2118 192 2323 403 
C 2342 211 2355 160 2406 0 
L 3373 0 
L 3373 134 
C 3264 173 3174 262 3174 666 
L 3174 2509 
z
M 2298 1222 
C 2298 806 1894 550 1498 550 
C 1325 550 1082 646 1082 960 
C 1082 1331 1357 1414 1690 1472 
C 2061 1530 2208 1587 2298 1658 
L 2298 1222 
z
" transform="scale(0.015625)"/>
      <path id="HelveticaCE-Bold-67" d="M 2682 3405 
L 2682 2899 
L 2669 2899 
C 2560 3123 2304 3494 1670 3494 
C 922 3494 256 2918 256 1741 
C 256 550 902 -19 1722 -19 
C 2259 -19 2483 230 2630 493 
L 2643 480 
L 2643 70 
C 2643 -480 2413 -710 1933 -710 
C 1414 -710 1344 -538 1306 -365 
L 333 -365 
C 371 -1088 1114 -1389 1818 -1389 
C 3494 -1389 3539 -410 3539 179 
L 3539 3405 
L 2682 3405 
z
M 1178 1683 
C 1178 2477 1549 2720 1882 2720 
C 2381 2720 2650 2272 2650 1722 
C 2650 1254 2496 736 1888 736 
C 1357 736 1178 1248 1178 1683 
z
" transform="scale(0.015625)"/>
      <path id="HelveticaCE-Bold-62" d="M 2778 1677 
C 2778 1274 2618 646 2042 646 
C 1472 646 1248 1120 1248 1626 
C 1248 2170 1402 2720 2016 2720 
C 2586 2720 2778 2214 2778 1677 
z
M 1286 4595 
L 390 4595 
L 390 0 
L 1267 0 
L 1267 429 
L 1280 429 
C 1498 45 1894 -90 2266 -90 
C 3277 -90 3699 806 3699 1741 
C 3699 2918 3034 3494 2285 3494 
C 1709 3494 1440 3181 1299 2963 
L 1286 2963 
L 1286 4595 
z
" transform="scale(0.015625)"/>
      <path id="HelveticaCE-Bold-79" d="M 3450 3405 
L 2502 3405 
L 1805 896 
L 1792 896 
L 1062 3405 
L 64 3405 
L 1318 -141 
C 1235 -608 1056 -653 730 -653 
C 653 -653 595 -646 557 -640 
L 557 -1357 
C 685 -1363 838 -1370 960 -1370 
C 1741 -1370 1856 -1203 2278 58 
L 3450 3405 
z
" transform="scale(0.015625)"/>
      <path id="HelveticaCE-Bold-41" d="M 1459 947 
L 3155 947 
L 3450 0 
L 4493 0 
L 2874 4595 
L 1766 4595 
L 128 0 
L 1139 0 
L 1459 947 
z
M 2304 3558 
L 2317 3558 
L 2886 1741 
L 1715 1741 
L 2304 3558 
z
" transform="scale(0.015625)"/>
     </defs>
     <use xlink:href="#HelveticaCE-Bold-46"/>
     <use xlink:href="#HelveticaCE-Bold-69" x="61.099991"/>
     <use xlink:href="#HelveticaCE-Bold-6c" x="88.899979"/>
     <use xlink:href="#HelveticaCE-Bold-6c" x="116.699966"/>
     <use xlink:href="#HelveticaCE-Bold-65" x="144.499954"/>
     <use xlink:href="#HelveticaCE-Bold-64" x="200.099945"/>
     <use xlink:href="#HelveticaCE-Bold-20" x="261.199936"/>
     <use xlink:href="#HelveticaCE-Bold-50" x="288.999924"/>
     <use xlink:href="#HelveticaCE-Bold-65" x="355.699921"/>
     <use xlink:href="#HelveticaCE-Bold-72" x="411.299911"/>
     <use xlink:href="#HelveticaCE-Bold-63" x="450.199905"/>
     <use xlink:href="#HelveticaCE-Bold-65" x="505.799896"/>
     <use xlink:href="#HelveticaCE-Bold-6e" x="561.399887"/>
     <use xlink:href="#HelveticaCE-Bold-74" x="622.499878"/>
     <use xlink:href="#HelveticaCE-Bold-61" x="655.799866"/>
     <use xlink:href="#HelveticaCE-Bold-67" x="711.399857"/>
     <use xlink:href="#HelveticaCE-Bold-65" x="772.499847"/>
     <use xlink:href="#HelveticaCE-Bold-20" x="828.099838"/>
     <use xlink:href="#HelveticaCE-Bold-62" x="855.899826"/>
     <use xlink:href="#HelveticaCE-Bold-79" x="916.999817"/>
     <use xlink:href="#HelveticaCE-Bold-20" x="972.599808"/>
     <use xlink:href="#HelveticaCE-Bold-41" x="1000.399796"/>
     <use xlink:href="#HelveticaCE-Bold-69" x="1072.599777"/>
     <use xlink:href="#HelveticaCE-Bold-72" x="1100.399765"/>
     <use xlink:href="#HelveticaCE-Bold-6c" x="1139.299759"/>
     <use xlink:href="#HelveticaCE-Bold-69" x="1167.099747"/>
     <use xlink:href="#HelveticaCE-Bold-6e" x="1194.899734"/>
     <use xlink:href="#HelveticaCE-Bold-65" x="1255.999725"/>
    </g>
   </g>
   <g id="legend_1">
    <g id="patch_73">
     <path d="M 287.5827 374.48875 
L 440.823325 374.48875 
Q 442.823325 374.48875 442.823325 372.48875 
L 442.823325 31.72 
Q 442.823325 29.72 440.823325 29.72 
L 287.5827 29.72 
Q 285.5827 29.72 285.5827 31.72 
L 285.5827 372.48875 
Q 285.5827 374.48875 287.5827 374.48875 
z
" style="fill: #ffffff; opacity: 0.8; stroke: #cccccc; stroke-linejoin: miter"/>
    </g>
    <g id="text_13">
     <!-- Column -->
     <g transform="translate(345.055356 41.318437) scale(0.1 -0.1)">
      <defs>
       <path id="DejaVuSans-43" d="M 4122 4306 
L 4122 3641 
Q 3803 3938 3442 4084 
Q 3081 4231 2675 4231 
Q 1875 4231 1450 3742 
Q 1025 3253 1025 2328 
Q 1025 1406 1450 917 
Q 1875 428 2675 428 
Q 3081 428 3442 575 
Q 3803 722 4122 1019 
L 4122 359 
Q 3791 134 3420 21 
Q 3050 -91 2638 -91 
Q 1578 -91 968 557 
Q 359 1206 359 2328 
Q 359 3453 968 4101 
Q 1578 4750 2638 4750 
Q 3056 4750 3426 4639 
Q 3797 4528 4122 4306 
z
" transform="scale(0.015625)"/>
       <path id="DejaVuSans-6f" d="M 1959 3097 
Q 1497 3097 1228 2736 
Q 959 2375 959 1747 
Q 959 1119 1226 758 
Q 1494 397 1959 397 
Q 2419 397 2687 759 
Q 2956 1122 2956 1747 
Q 2956 2369 2687 2733 
Q 2419 3097 1959 3097 
z
M 1959 3584 
Q 2709 3584 3137 3096 
Q 3566 2609 3566 1747 
Q 3566 888 3137 398 
Q 2709 -91 1959 -91 
Q 1206 -91 779 398 
Q 353 888 353 1747 
Q 353 2609 779 3096 
Q 1206 3584 1959 3584 
z
" transform="scale(0.015625)"/>
       <path id="DejaVuSans-6c" d="M 603 4863 
L 1178 4863 
L 1178 0 
L 603 0 
L 603 4863 
z
" transform="scale(0.015625)"/>
       <path id="DejaVuSans-75" d="M 544 1381 
L 544 3500 
L 1119 3500 
L 1119 1403 
Q 1119 906 1312 657 
Q 1506 409 1894 409 
Q 2359 409 2629 706 
Q 2900 1003 2900 1516 
L 2900 3500 
L 3475 3500 
L 3475 0 
L 2900 0 
L 2900 538 
Q 2691 219 2414 64 
Q 2138 -91 1772 -91 
Q 1169 -91 856 284 
Q 544 659 544 1381 
z
M 1991 3584 
L 1991 3584 
z
" transform="scale(0.015625)"/>
       <path id="DejaVuSans-6d" d="M 3328 2828 
Q 3544 3216 3844 3400 
Q 4144 3584 4550 3584 
Q 5097 3584 5394 3201 
Q 5691 2819 5691 2113 
L 5691 0 
L 5113 0 
L 5113 2094 
Q 5113 2597 4934 2840 
Q 4756 3084 4391 3084 
Q 3944 3084 3684 2787 
Q 3425 2491 3425 1978 
L 3425 0 
L 2847 0 
L 2847 2094 
Q 2847 2600 2669 2842 
Q 2491 3084 2119 3084 
Q 1678 3084 1418 2786 
Q 1159 2488 1159 1978 
L 1159 0 
L 581 0 
L 581 3500 
L 1159 3500 
L 1159 2956 
Q 1356 3278 1631 3431 
Q 1906 3584 2284 3584 
Q 2666 3584 2933 3390 
Q 3200 3197 3328 2828 
z
" transform="scale(0.015625)"/>
       <path id="DejaVuSans-6e" d="M 3513 2113 
L 3513 0 
L 2938 0 
L 2938 2094 
Q 2938 2591 2744 2837 
Q 2550 3084 2163 3084 
Q 1697 3084 1428 2787 
Q 1159 2491 1159 1978 
L 1159 0 
L 581 0 
L 581 3500 
L 1159 3500 
L 1159 2956 
Q 1366 3272 1645 3428 
Q 1925 3584 2291 3584 
Q 2894 3584 3203 3211 
Q 3513 2838 3513 2113 
z
" transform="scale(0.015625)"/>
      </defs>
      <use xlink:href="#DejaVuSans-43"/>
      <use xlink:href="#DejaVuSans-6f" x="69.824219"/>
      <use xlink:href="#DejaVuSans-6c" x="131.005859"/>
      <use xlink:href="#DejaVuSans-75" x="158.789062"/>
      <use xlink:href="#DejaVuSans-6d" x="222.167969"/>
      <use xlink:href="#DejaVuSans-6e" x="319.580078"/>
     </g>
    </g>
    <g id="patch_74">
     <path d="M 289.5827 55.996562 
L 309.5827 55.996562 
L 309.5827 48.996562 
L 289.5827 48.996562 
z
" style="fill: #1f77b4"/>
    </g>
    <g id="text_14">
     <!-- flight_id -->
     <g transform="translate(317.5827 55.996562) scale(0.1 -0.1)">
      <defs>
       <path id="DejaVuSans-66" d="M 2375 4863 
L 2375 4384 
L 1825 4384 
Q 1516 4384 1395 4259 
Q 1275 4134 1275 3809 
L 1275 3500 
L 2222 3500 
L 2222 3053 
L 1275 3053 
L 1275 0 
L 697 0 
L 697 3053 
L 147 3053 
L 147 3500 
L 697 3500 
L 697 3744 
Q 697 4328 969 4595 
Q 1241 4863 1831 4863 
L 2375 4863 
z
" transform="scale(0.015625)"/>
       <path id="DejaVuSans-69" d="M 603 3500 
L 1178 3500 
L 1178 0 
L 603 0 
L 603 3500 
z
M 603 4863 
L 1178 4863 
L 1178 4134 
L 603 4134 
L 603 4863 
z
" transform="scale(0.015625)"/>
       <path id="DejaVuSans-67" d="M 2906 1791 
Q 2906 2416 2648 2759 
Q 2391 3103 1925 3103 
Q 1463 3103 1205 2759 
Q 947 2416 947 1791 
Q 947 1169 1205 825 
Q 1463 481 1925 481 
Q 2391 481 2648 825 
Q 2906 1169 2906 1791 
z
M 3481 434 
Q 3481 -459 3084 -895 
Q 2688 -1331 1869 -1331 
Q 1566 -1331 1297 -1286 
Q 1028 -1241 775 -1147 
L 775 -588 
Q 1028 -725 1275 -790 
Q 1522 -856 1778 -856 
Q 2344 -856 2625 -561 
Q 2906 -266 2906 331 
L 2906 616 
Q 2728 306 2450 153 
Q 2172 0 1784 0 
Q 1141 0 747 490 
Q 353 981 353 1791 
Q 353 2603 747 3093 
Q 1141 3584 1784 3584 
Q 2172 3584 2450 3431 
Q 2728 3278 2906 2969 
L 2906 3500 
L 3481 3500 
L 3481 434 
z
" transform="scale(0.015625)"/>
       <path id="DejaVuSans-68" d="M 3513 2113 
L 3513 0 
L 2938 0 
L 2938 2094 
Q 2938 2591 2744 2837 
Q 2550 3084 2163 3084 
Q 1697 3084 1428 2787 
Q 1159 2491 1159 1978 
L 1159 0 
L 581 0 
L 581 4863 
L 1159 4863 
L 1159 2956 
Q 1366 3272 1645 3428 
Q 1925 3584 2291 3584 
Q 2894 3584 3203 3211 
Q 3513 2838 3513 2113 
z
" transform="scale(0.015625)"/>
       <path id="DejaVuSans-74" d="M 1172 4494 
L 1172 3500 
L 2356 3500 
L 2356 3053 
L 1172 3053 
L 1172 1153 
Q 1172 725 1289 603 
Q 1406 481 1766 481 
L 2356 481 
L 2356 0 
L 1766 0 
Q 1100 0 847 248 
Q 594 497 594 1153 
L 594 3053 
L 172 3053 
L 172 3500 
L 594 3500 
L 594 4494 
L 1172 4494 
z
" transform="scale(0.015625)"/>
       <path id="DejaVuSans-5f" d="M 3263 -1063 
L 3263 -1509 
L -63 -1509 
L -63 -1063 
L 3263 -1063 
z
" transform="scale(0.015625)"/>
       <path id="DejaVuSans-64" d="M 2906 2969 
L 2906 4863 
L 3481 4863 
L 3481 0 
L 2906 0 
L 2906 525 
Q 2725 213 2448 61 
Q 2172 -91 1784 -91 
Q 1150 -91 751 415 
Q 353 922 353 1747 
Q 353 2572 751 3078 
Q 1150 3584 1784 3584 
Q 2172 3584 2448 3432 
Q 2725 3281 2906 2969 
z
M 947 1747 
Q 947 1113 1208 752 
Q 1469 391 1925 391 
Q 2381 391 2643 752 
Q 2906 1113 2906 1747 
Q 2906 2381 2643 2742 
Q 2381 3103 1925 3103 
Q 1469 3103 1208 2742 
Q 947 2381 947 1747 
z
" transform="scale(0.015625)"/>
      </defs>
      <use xlink:href="#DejaVuSans-66"/>
      <use xlink:href="#DejaVuSans-6c" x="35.205078"/>
      <use xlink:href="#DejaVuSans-69" x="62.988281"/>
      <use xlink:href="#DejaVuSans-67" x="90.771484"/>
      <use xlink:href="#DejaVuSans-68" x="154.248047"/>
      <use xlink:href="#DejaVuSans-74" x="217.626953"/>
      <use xlink:href="#DejaVuSans-5f" x="256.835938"/>
      <use xlink:href="#DejaVuSans-69" x="306.835938"/>
      <use xlink:href="#DejaVuSans-64" x="334.619141"/>
     </g>
    </g>
    <g id="patch_75">
     <path d="M 289.5827 70.952812 
L 309.5827 70.952812 
L 309.5827 63.952812 
L 289.5827 63.952812 
z
" style="fill: #ff7f0e"/>
    </g>
    <g id="text_15">
     <!-- estimated_zfws -->
     <g transform="translate(317.5827 70.952812) scale(0.1 -0.1)">
      <defs>
       <path id="DejaVuSans-65" d="M 3597 1894 
L 3597 1613 
L 953 1613 
Q 991 1019 1311 708 
Q 1631 397 2203 397 
Q 2534 397 2845 478 
Q 3156 559 3463 722 
L 3463 178 
Q 3153 47 2828 -22 
Q 2503 -91 2169 -91 
Q 1331 -91 842 396 
Q 353 884 353 1716 
Q 353 2575 817 3079 
Q 1281 3584 2069 3584 
Q 2775 3584 3186 3129 
Q 3597 2675 3597 1894 
z
M 3022 2063 
Q 3016 2534 2758 2815 
Q 2500 3097 2075 3097 
Q 1594 3097 1305 2825 
Q 1016 2553 972 2059 
L 3022 2063 
z
" transform="scale(0.015625)"/>
       <path id="DejaVuSans-73" d="M 2834 3397 
L 2834 2853 
Q 2591 2978 2328 3040 
Q 2066 3103 1784 3103 
Q 1356 3103 1142 2972 
Q 928 2841 928 2578 
Q 928 2378 1081 2264 
Q 1234 2150 1697 2047 
L 1894 2003 
Q 2506 1872 2764 1633 
Q 3022 1394 3022 966 
Q 3022 478 2636 193 
Q 2250 -91 1575 -91 
Q 1294 -91 989 -36 
Q 684 19 347 128 
L 347 722 
Q 666 556 975 473 
Q 1284 391 1588 391 
Q 1994 391 2212 530 
Q 2431 669 2431 922 
Q 2431 1156 2273 1281 
Q 2116 1406 1581 1522 
L 1381 1569 
Q 847 1681 609 1914 
Q 372 2147 372 2553 
Q 372 3047 722 3315 
Q 1072 3584 1716 3584 
Q 2034 3584 2315 3537 
Q 2597 3491 2834 3397 
z
" transform="scale(0.015625)"/>
       <path id="DejaVuSans-61" d="M 2194 1759 
Q 1497 1759 1228 1600 
Q 959 1441 959 1056 
Q 959 750 1161 570 
Q 1363 391 1709 391 
Q 2188 391 2477 730 
Q 2766 1069 2766 1631 
L 2766 1759 
L 2194 1759 
z
M 3341 1997 
L 3341 0 
L 2766 0 
L 2766 531 
Q 2569 213 2275 61 
Q 1981 -91 1556 -91 
Q 1019 -91 701 211 
Q 384 513 384 1019 
Q 384 1609 779 1909 
Q 1175 2209 1959 2209 
L 2766 2209 
L 2766 2266 
Q 2766 2663 2505 2880 
Q 2244 3097 1772 3097 
Q 1472 3097 1187 3025 
Q 903 2953 641 2809 
L 641 3341 
Q 956 3463 1253 3523 
Q 1550 3584 1831 3584 
Q 2591 3584 2966 3190 
Q 3341 2797 3341 1997 
z
" transform="scale(0.015625)"/>
       <path id="DejaVuSans-7a" d="M 353 3500 
L 3084 3500 
L 3084 2975 
L 922 459 
L 3084 459 
L 3084 0 
L 275 0 
L 275 525 
L 2438 3041 
L 353 3041 
L 353 3500 
z
" transform="scale(0.015625)"/>
       <path id="DejaVuSans-77" d="M 269 3500 
L 844 3500 
L 1563 769 
L 2278 3500 
L 2956 3500 
L 3675 769 
L 4391 3500 
L 4966 3500 
L 4050 0 
L 3372 0 
L 2619 2869 
L 1863 0 
L 1184 0 
L 269 3500 
z
" transform="scale(0.015625)"/>
      </defs>
      <use xlink:href="#DejaVuSans-65"/>
      <use xlink:href="#DejaVuSans-73" x="61.523438"/>
      <use xlink:href="#DejaVuSans-74" x="113.623047"/>
      <use xlink:href="#DejaVuSans-69" x="152.832031"/>
      <use xlink:href="#DejaVuSans-6d" x="180.615234"/>
      <use xlink:href="#DejaVuSans-61" x="278.027344"/>
      <use xlink:href="#DejaVuSans-74" x="339.306641"/>
      <use xlink:href="#DejaVuSans-65" x="378.515625"/>
      <use xlink:href="#DejaVuSans-64" x="440.039062"/>
      <use xlink:href="#DejaVuSans-5f" x="503.515625"/>
      <use xlink:href="#DejaVuSans-7a" x="553.515625"/>
      <use xlink:href="#DejaVuSans-66" x="606.005859"/>
      <use xlink:href="#DejaVuSans-77" x="639.460938"/>
      <use xlink:href="#DejaVuSans-73" x="721.248047"/>
     </g>
    </g>
    <g id="patch_76">
     <path d="M 289.5827 85.909063 
L 309.5827 85.909063 
L 309.5827 78.909063 
L 289.5827 78.909063 
z
" style="fill: #2ca02c"/>
    </g>
    <g id="text_16">
     <!-- actual_zfws -->
     <g transform="translate(317.5827 85.909063) scale(0.1 -0.1)">
      <defs>
       <path id="DejaVuSans-63" d="M 3122 3366 
L 3122 2828 
Q 2878 2963 2633 3030 
Q 2388 3097 2138 3097 
Q 1578 3097 1268 2742 
Q 959 2388 959 1747 
Q 959 1106 1268 751 
Q 1578 397 2138 397 
Q 2388 397 2633 464 
Q 2878 531 3122 666 
L 3122 134 
Q 2881 22 2623 -34 
Q 2366 -91 2075 -91 
Q 1284 -91 818 406 
Q 353 903 353 1747 
Q 353 2603 823 3093 
Q 1294 3584 2113 3584 
Q 2378 3584 2631 3529 
Q 2884 3475 3122 3366 
z
" transform="scale(0.015625)"/>
      </defs>
      <use xlink:href="#DejaVuSans-61"/>
      <use xlink:href="#DejaVuSans-63" x="61.279297"/>
      <use xlink:href="#DejaVuSans-74" x="116.259766"/>
      <use xlink:href="#DejaVuSans-75" x="155.46875"/>
      <use xlink:href="#DejaVuSans-61" x="218.847656"/>
      <use xlink:href="#DejaVuSans-6c" x="280.126953"/>
      <use xlink:href="#DejaVuSans-5f" x="307.910156"/>
      <use xlink:href="#DejaVuSans-7a" x="357.910156"/>
      <use xlink:href="#DejaVuSans-66" x="410.400391"/>
      <use xlink:href="#DejaVuSans-77" x="443.855469"/>
      <use xlink:href="#DejaVuSans-73" x="525.642578"/>
     </g>
    </g>
    <g id="patch_77">
     <path d="M 289.5827 100.865313 
L 309.5827 100.865313 
L 309.5827 93.865313 
L 289.5827 93.865313 
z
" style="fill: #d62728"/>
    </g>
    <g id="text_17">
     <!-- actual_take_off_fuels -->
     <g transform="translate(317.5827 100.865313) scale(0.1 -0.1)">
      <defs>
       <path id="DejaVuSans-6b" d="M 581 4863 
L 1159 4863 
L 1159 1991 
L 2875 3500 
L 3609 3500 
L 1753 1863 
L 3688 0 
L 2938 0 
L 1159 1709 
L 1159 0 
L 581 0 
L 581 4863 
z
" transform="scale(0.015625)"/>
      </defs>
      <use xlink:href="#DejaVuSans-61"/>
      <use xlink:href="#DejaVuSans-63" x="61.279297"/>
      <use xlink:href="#DejaVuSans-74" x="116.259766"/>
      <use xlink:href="#DejaVuSans-75" x="155.46875"/>
      <use xlink:href="#DejaVuSans-61" x="218.847656"/>
      <use xlink:href="#DejaVuSans-6c" x="280.126953"/>
      <use xlink:href="#DejaVuSans-5f" x="307.910156"/>
      <use xlink:href="#DejaVuSans-74" x="357.910156"/>
      <use xlink:href="#DejaVuSans-61" x="397.119141"/>
      <use xlink:href="#DejaVuSans-6b" x="458.398438"/>
      <use xlink:href="#DejaVuSans-65" x="512.683594"/>
      <use xlink:href="#DejaVuSans-5f" x="574.207031"/>
      <use xlink:href="#DejaVuSans-6f" x="624.207031"/>
      <use xlink:href="#DejaVuSans-66" x="685.388672"/>
      <use xlink:href="#DejaVuSans-66" x="720.59375"/>
      <use xlink:href="#DejaVuSans-5f" x="755.798828"/>
      <use xlink:href="#DejaVuSans-66" x="805.798828"/>
      <use xlink:href="#DejaVuSans-75" x="841.003906"/>
      <use xlink:href="#DejaVuSans-65" x="904.382812"/>
      <use xlink:href="#DejaVuSans-6c" x="965.90625"/>
      <use xlink:href="#DejaVuSans-73" x="993.689453"/>
     </g>
    </g>
    <g id="patch_78">
     <path d="M 289.5827 115.821562 
L 309.5827 115.821562 
L 309.5827 108.821562 
L 289.5827 108.821562 
z
" style="fill: #9467bd"/>
    </g>
    <g id="text_18">
     <!-- minimum_take_off_fuels -->
     <g transform="translate(317.5827 115.821562) scale(0.1 -0.1)">
      <use xlink:href="#DejaVuSans-6d"/>
      <use xlink:href="#DejaVuSans-69" x="97.412109"/>
      <use xlink:href="#DejaVuSans-6e" x="125.195312"/>
      <use xlink:href="#DejaVuSans-69" x="188.574219"/>
      <use xlink:href="#DejaVuSans-6d" x="216.357422"/>
      <use xlink:href="#DejaVuSans-75" x="313.769531"/>
      <use xlink:href="#DejaVuSans-6d" x="377.148438"/>
      <use xlink:href="#DejaVuSans-5f" x="474.560547"/>
      <use xlink:href="#DejaVuSans-74" x="524.560547"/>
      <use xlink:href="#DejaVuSans-61" x="563.769531"/>
      <use xlink:href="#DejaVuSans-6b" x="625.048828"/>
      <use xlink:href="#DejaVuSans-65" x="679.333984"/>
      <use xlink:href="#DejaVuSans-5f" x="740.857422"/>
      <use xlink:href="#DejaVuSans-6f" x="790.857422"/>
      <use xlink:href="#DejaVuSans-66" x="852.039062"/>
      <use xlink:href="#DejaVuSans-66" x="887.244141"/>
      <use xlink:href="#DejaVuSans-5f" x="922.449219"/>
      <use xlink:href="#DejaVuSans-66" x="972.449219"/>
      <use xlink:href="#DejaVuSans-75" x="1007.654297"/>
      <use xlink:href="#DejaVuSans-65" x="1071.033203"/>
      <use xlink:href="#DejaVuSans-6c" x="1132.556641"/>
      <use xlink:href="#DejaVuSans-73" x="1160.339844"/>
     </g>
    </g>
    <g id="patch_79">
     <path d="M 289.5827 130.777812 
L 309.5827 130.777812 
L 309.5827 123.777812 
L 289.5827 123.777812 
z
" style="fill: #8c564b"/>
    </g>
    <g id="text_19">
     <!-- actual_tows -->
     <g transform="translate(317.5827 130.777812) scale(0.1 -0.1)">
      <use xlink:href="#DejaVuSans-61"/>
      <use xlink:href="#DejaVuSans-63" x="61.279297"/>
      <use xlink:href="#DejaVuSans-74" x="116.259766"/>
      <use xlink:href="#DejaVuSans-75" x="155.46875"/>
      <use xlink:href="#DejaVuSans-61" x="218.847656"/>
      <use xlink:href="#DejaVuSans-6c" x="280.126953"/>
      <use xlink:href="#DejaVuSans-5f" x="307.910156"/>
      <use xlink:href="#DejaVuSans-74" x="357.910156"/>
      <use xlink:href="#DejaVuSans-6f" x="397.119141"/>
      <use xlink:href="#DejaVuSans-77" x="458.300781"/>
      <use xlink:href="#DejaVuSans-73" x="540.087891"/>
     </g>
    </g>
    <g id="patch_80">
     <path d="M 289.5827 145.734062 
L 309.5827 145.734062 
L 309.5827 138.734062 
L 289.5827 138.734062 
z
" style="fill: #e377c2"/>
    </g>
    <g id="text_20">
     <!-- total_pax -->
     <g transform="translate(317.5827 145.734062) scale(0.1 -0.1)">
      <defs>
       <path id="DejaVuSans-70" d="M 1159 525 
L 1159 -1331 
L 581 -1331 
L 581 3500 
L 1159 3500 
L 1159 2969 
Q 1341 3281 1617 3432 
Q 1894 3584 2278 3584 
Q 2916 3584 3314 3078 
Q 3713 2572 3713 1747 
Q 3713 922 3314 415 
Q 2916 -91 2278 -91 
Q 1894 -91 1617 61 
Q 1341 213 1159 525 
z
M 3116 1747 
Q 3116 2381 2855 2742 
Q 2594 3103 2138 3103 
Q 1681 3103 1420 2742 
Q 1159 2381 1159 1747 
Q 1159 1113 1420 752 
Q 1681 391 2138 391 
Q 2594 391 2855 752 
Q 3116 1113 3116 1747 
z
" transform="scale(0.015625)"/>
       <path id="DejaVuSans-78" d="M 3513 3500 
L 2247 1797 
L 3578 0 
L 2900 0 
L 1881 1375 
L 863 0 
L 184 0 
L 1544 1831 
L 300 3500 
L 978 3500 
L 1906 2253 
L 2834 3500 
L 3513 3500 
z
" transform="scale(0.015625)"/>
      </defs>
      <use xlink:href="#DejaVuSans-74"/>
      <use xlink:href="#DejaVuSans-6f" x="39.208984"/>
      <use xlink:href="#DejaVuSans-74" x="100.390625"/>
      <use xlink:href="#DejaVuSans-61" x="139.599609"/>
      <use xlink:href="#DejaVuSans-6c" x="200.878906"/>
      <use xlink:href="#DejaVuSans-5f" x="228.662109"/>
      <use xlink:href="#DejaVuSans-70" x="278.662109"/>
      <use xlink:href="#DejaVuSans-61" x="342.138672"/>
      <use xlink:href="#DejaVuSans-78" x="403.417969"/>
     </g>
    </g>
    <g id="patch_81">
     <path d="M 289.5827 160.690313 
L 309.5827 160.690313 
L 309.5827 153.690313 
L 289.5827 153.690313 
z
" style="fill: #7f7f7f"/>
    </g>
    <g id="text_21">
     <!-- economy -->
     <g transform="translate(317.5827 160.690313) scale(0.1 -0.1)">
      <defs>
       <path id="DejaVuSans-79" d="M 2059 -325 
Q 1816 -950 1584 -1140 
Q 1353 -1331 966 -1331 
L 506 -1331 
L 506 -850 
L 844 -850 
Q 1081 -850 1212 -737 
Q 1344 -625 1503 -206 
L 1606 56 
L 191 3500 
L 800 3500 
L 1894 763 
L 2988 3500 
L 3597 3500 
L 2059 -325 
z
" transform="scale(0.015625)"/>
      </defs>
      <use xlink:href="#DejaVuSans-65"/>
      <use xlink:href="#DejaVuSans-63" x="61.523438"/>
      <use xlink:href="#DejaVuSans-6f" x="116.503906"/>
      <use xlink:href="#DejaVuSans-6e" x="177.685547"/>
      <use xlink:href="#DejaVuSans-6f" x="241.064453"/>
      <use xlink:href="#DejaVuSans-6d" x="302.246094"/>
      <use xlink:href="#DejaVuSans-79" x="399.658203"/>
     </g>
    </g>
    <g id="patch_82">
     <path d="M 289.5827 175.368437 
L 309.5827 175.368437 
L 309.5827 168.368437 
L 289.5827 168.368437 
z
" style="fill: #bcbd22"/>
    </g>
    <g id="text_22">
     <!-- business -->
     <g transform="translate(317.5827 175.368437) scale(0.1 -0.1)">
      <defs>
       <path id="DejaVuSans-62" d="M 3116 1747 
Q 3116 2381 2855 2742 
Q 2594 3103 2138 3103 
Q 1681 3103 1420 2742 
Q 1159 2381 1159 1747 
Q 1159 1113 1420 752 
Q 1681 391 2138 391 
Q 2594 391 2855 752 
Q 3116 1113 3116 1747 
z
M 1159 2969 
Q 1341 3281 1617 3432 
Q 1894 3584 2278 3584 
Q 2916 3584 3314 3078 
Q 3713 2572 3713 1747 
Q 3713 922 3314 415 
Q 2916 -91 2278 -91 
Q 1894 -91 1617 61 
Q 1341 213 1159 525 
L 1159 0 
L 581 0 
L 581 4863 
L 1159 4863 
L 1159 2969 
z
" transform="scale(0.015625)"/>
      </defs>
      <use xlink:href="#DejaVuSans-62"/>
      <use xlink:href="#DejaVuSans-75" x="63.476562"/>
      <use xlink:href="#DejaVuSans-73" x="126.855469"/>
      <use xlink:href="#DejaVuSans-69" x="178.955078"/>
      <use xlink:href="#DejaVuSans-6e" x="206.738281"/>
      <use xlink:href="#DejaVuSans-65" x="270.117188"/>
      <use xlink:href="#DejaVuSans-73" x="331.640625"/>
      <use xlink:href="#DejaVuSans-73" x="383.740234"/>
     </g>
    </g>
    <g id="patch_83">
     <path d="M 289.5827 190.046562 
L 309.5827 190.046562 
L 309.5827 183.046562 
L 289.5827 183.046562 
z
" style="fill: #17becf"/>
    </g>
    <g id="text_23">
     <!-- jump_seats -->
     <g transform="translate(317.5827 190.046562) scale(0.1 -0.1)">
      <defs>
       <path id="DejaVuSans-6a" d="M 603 3500 
L 1178 3500 
L 1178 -63 
Q 1178 -731 923 -1031 
Q 669 -1331 103 -1331 
L -116 -1331 
L -116 -844 
L 38 -844 
Q 366 -844 484 -692 
Q 603 -541 603 -63 
L 603 3500 
z
M 603 4863 
L 1178 4863 
L 1178 4134 
L 603 4134 
L 603 4863 
z
" transform="scale(0.015625)"/>
      </defs>
      <use xlink:href="#DejaVuSans-6a"/>
      <use xlink:href="#DejaVuSans-75" x="27.783203"/>
      <use xlink:href="#DejaVuSans-6d" x="91.162109"/>
      <use xlink:href="#DejaVuSans-70" x="188.574219"/>
      <use xlink:href="#DejaVuSans-5f" x="252.050781"/>
      <use xlink:href="#DejaVuSans-73" x="302.050781"/>
      <use xlink:href="#DejaVuSans-65" x="354.150391"/>
      <use xlink:href="#DejaVuSans-61" x="415.673828"/>
      <use xlink:href="#DejaVuSans-74" x="476.953125"/>
      <use xlink:href="#DejaVuSans-73" x="516.162109"/>
     </g>
    </g>
    <g id="patch_84">
     <path d="M 289.5827 205.002812 
L 309.5827 205.002812 
L 309.5827 198.002812 
L 289.5827 198.002812 
z
" style="fill: #1f77b4"/>
    </g>
    <g id="text_24">
     <!-- standbys -->
     <g transform="translate(317.5827 205.002812) scale(0.1 -0.1)">
      <use xlink:href="#DejaVuSans-73"/>
      <use xlink:href="#DejaVuSans-74" x="52.099609"/>
      <use xlink:href="#DejaVuSans-61" x="91.308594"/>
      <use xlink:href="#DejaVuSans-6e" x="152.587891"/>
      <use xlink:href="#DejaVuSans-64" x="215.966797"/>
      <use xlink:href="#DejaVuSans-62" x="279.443359"/>
      <use xlink:href="#DejaVuSans-79" x="342.919922"/>
      <use xlink:href="#DejaVuSans-73" x="402.099609"/>
     </g>
    </g>
    <g id="patch_85">
     <path d="M 289.5827 219.680937 
L 309.5827 219.680937 
L 309.5827 212.680937 
L 289.5827 212.680937 
z
" style="fill: #ff7f0e"/>
    </g>
    <g id="text_25">
     <!-- children -->
     <g transform="translate(317.5827 219.680937) scale(0.1 -0.1)">
      <defs>
       <path id="DejaVuSans-72" d="M 2631 2963 
Q 2534 3019 2420 3045 
Q 2306 3072 2169 3072 
Q 1681 3072 1420 2755 
Q 1159 2438 1159 1844 
L 1159 0 
L 581 0 
L 581 3500 
L 1159 3500 
L 1159 2956 
Q 1341 3275 1631 3429 
Q 1922 3584 2338 3584 
Q 2397 3584 2469 3576 
Q 2541 3569 2628 3553 
L 2631 2963 
z
" transform="scale(0.015625)"/>
      </defs>
      <use xlink:href="#DejaVuSans-63"/>
      <use xlink:href="#DejaVuSans-68" x="54.980469"/>
      <use xlink:href="#DejaVuSans-69" x="118.359375"/>
      <use xlink:href="#DejaVuSans-6c" x="146.142578"/>
      <use xlink:href="#DejaVuSans-64" x="173.925781"/>
      <use xlink:href="#DejaVuSans-72" x="237.402344"/>
      <use xlink:href="#DejaVuSans-65" x="276.265625"/>
      <use xlink:href="#DejaVuSans-6e" x="337.789062"/>
     </g>
    </g>
    <g id="patch_86">
     <path d="M 289.5827 234.359062 
L 309.5827 234.359062 
L 309.5827 227.359062 
L 289.5827 227.359062 
z
" style="fill: #2ca02c"/>
    </g>
    <g id="text_26">
     <!-- infants -->
     <g transform="translate(317.5827 234.359062) scale(0.1 -0.1)">
      <use xlink:href="#DejaVuSans-69"/>
      <use xlink:href="#DejaVuSans-6e" x="27.783203"/>
      <use xlink:href="#DejaVuSans-66" x="91.162109"/>
      <use xlink:href="#DejaVuSans-61" x="126.367188"/>
      <use xlink:href="#DejaVuSans-6e" x="187.646484"/>
      <use xlink:href="#DejaVuSans-74" x="251.025391"/>
      <use xlink:href="#DejaVuSans-73" x="290.234375"/>
     </g>
    </g>
    <g id="patch_87">
     <path d="M 289.5827 249.037187 
L 309.5827 249.037187 
L 309.5827 242.037187 
L 289.5827 242.037187 
z
" style="fill: #d62728"/>
    </g>
    <g id="text_27">
     <!-- total_bags -->
     <g transform="translate(317.5827 249.037187) scale(0.1 -0.1)">
      <use xlink:href="#DejaVuSans-74"/>
      <use xlink:href="#DejaVuSans-6f" x="39.208984"/>
      <use xlink:href="#DejaVuSans-74" x="100.390625"/>
      <use xlink:href="#DejaVuSans-61" x="139.599609"/>
      <use xlink:href="#DejaVuSans-6c" x="200.878906"/>
      <use xlink:href="#DejaVuSans-5f" x="228.662109"/>
      <use xlink:href="#DejaVuSans-62" x="278.662109"/>
      <use xlink:href="#DejaVuSans-61" x="342.138672"/>
      <use xlink:href="#DejaVuSans-67" x="403.417969"/>
      <use xlink:href="#DejaVuSans-73" x="466.894531"/>
     </g>
    </g>
    <g id="patch_88">
     <path d="M 289.5827 263.993437 
L 309.5827 263.993437 
L 309.5827 256.993437 
L 289.5827 256.993437 
z
" style="fill: #9467bd"/>
    </g>
    <g id="text_28">
     <!-- total_bag_weights -->
     <g transform="translate(317.5827 263.993437) scale(0.1 -0.1)">
      <use xlink:href="#DejaVuSans-74"/>
      <use xlink:href="#DejaVuSans-6f" x="39.208984"/>
      <use xlink:href="#DejaVuSans-74" x="100.390625"/>
      <use xlink:href="#DejaVuSans-61" x="139.599609"/>
      <use xlink:href="#DejaVuSans-6c" x="200.878906"/>
      <use xlink:href="#DejaVuSans-5f" x="228.662109"/>
      <use xlink:href="#DejaVuSans-62" x="278.662109"/>
      <use xlink:href="#DejaVuSans-61" x="342.138672"/>
      <use xlink:href="#DejaVuSans-67" x="403.417969"/>
      <use xlink:href="#DejaVuSans-5f" x="466.894531"/>
      <use xlink:href="#DejaVuSans-77" x="516.894531"/>
      <use xlink:href="#DejaVuSans-65" x="598.681641"/>
      <use xlink:href="#DejaVuSans-69" x="660.205078"/>
      <use xlink:href="#DejaVuSans-67" x="687.988281"/>
      <use xlink:href="#DejaVuSans-68" x="751.464844"/>
      <use xlink:href="#DejaVuSans-74" x="814.84375"/>
      <use xlink:href="#DejaVuSans-73" x="854.052734"/>
     </g>
    </g>
    <g id="patch_89">
     <path d="M 289.5827 278.949687 
L 309.5827 278.949687 
L 309.5827 271.949687 
L 289.5827 271.949687 
z
" style="fill: #8c564b"/>
    </g>
    <g id="text_29">
     <!-- males -->
     <g transform="translate(317.5827 278.949687) scale(0.1 -0.1)">
      <use xlink:href="#DejaVuSans-6d"/>
      <use xlink:href="#DejaVuSans-61" x="97.412109"/>
      <use xlink:href="#DejaVuSans-6c" x="158.691406"/>
      <use xlink:href="#DejaVuSans-65" x="186.474609"/>
      <use xlink:href="#DejaVuSans-73" x="247.998047"/>
     </g>
    </g>
    <g id="patch_90">
     <path d="M 289.5827 293.627813 
L 309.5827 293.627813 
L 309.5827 286.627813 
L 289.5827 286.627813 
z
" style="fill: #e377c2"/>
    </g>
    <g id="text_30">
     <!-- females -->
     <g transform="translate(317.5827 293.627813) scale(0.1 -0.1)">
      <use xlink:href="#DejaVuSans-66"/>
      <use xlink:href="#DejaVuSans-65" x="35.205078"/>
      <use xlink:href="#DejaVuSans-6d" x="96.728516"/>
      <use xlink:href="#DejaVuSans-61" x="194.140625"/>
      <use xlink:href="#DejaVuSans-6c" x="255.419922"/>
      <use xlink:href="#DejaVuSans-65" x="283.203125"/>
      <use xlink:href="#DejaVuSans-73" x="344.726562"/>
     </g>
    </g>
    <g id="patch_91">
     <path d="M 289.5827 308.305937 
L 309.5827 308.305937 
L 309.5827 301.305937 
L 289.5827 301.305937 
z
" style="fill: #7f7f7f"/>
    </g>
    <g id="text_31">
     <!-- j_distributions -->
     <g transform="translate(317.5827 308.305937) scale(0.1 -0.1)">
      <use xlink:href="#DejaVuSans-6a"/>
      <use xlink:href="#DejaVuSans-5f" x="27.783203"/>
      <use xlink:href="#DejaVuSans-64" x="77.783203"/>
      <use xlink:href="#DejaVuSans-69" x="141.259766"/>
      <use xlink:href="#DejaVuSans-73" x="169.042969"/>
      <use xlink:href="#DejaVuSans-74" x="221.142578"/>
      <use xlink:href="#DejaVuSans-72" x="260.351562"/>
      <use xlink:href="#DejaVuSans-69" x="301.464844"/>
      <use xlink:href="#DejaVuSans-62" x="329.248047"/>
      <use xlink:href="#DejaVuSans-75" x="392.724609"/>
      <use xlink:href="#DejaVuSans-74" x="456.103516"/>
      <use xlink:href="#DejaVuSans-69" x="495.3125"/>
      <use xlink:href="#DejaVuSans-6f" x="523.095703"/>
      <use xlink:href="#DejaVuSans-6e" x="584.277344"/>
      <use xlink:href="#DejaVuSans-73" x="647.65625"/>
     </g>
    </g>
    <g id="patch_92">
     <path d="M 289.5827 323.262187 
L 309.5827 323.262187 
L 309.5827 316.262187 
L 289.5827 316.262187 
z
" style="fill: #bcbd22"/>
    </g>
    <g id="text_32">
     <!-- y_distributions -->
     <g transform="translate(317.5827 323.262187) scale(0.1 -0.1)">
      <use xlink:href="#DejaVuSans-79"/>
      <use xlink:href="#DejaVuSans-5f" x="59.179688"/>
      <use xlink:href="#DejaVuSans-64" x="109.179688"/>
      <use xlink:href="#DejaVuSans-69" x="172.65625"/>
      <use xlink:href="#DejaVuSans-73" x="200.439453"/>
      <use xlink:href="#DejaVuSans-74" x="252.539062"/>
      <use xlink:href="#DejaVuSans-72" x="291.748047"/>
      <use xlink:href="#DejaVuSans-69" x="332.861328"/>
      <use xlink:href="#DejaVuSans-62" x="360.644531"/>
      <use xlink:href="#DejaVuSans-75" x="424.121094"/>
      <use xlink:href="#DejaVuSans-74" x="487.5"/>
      <use xlink:href="#DejaVuSans-69" x="526.708984"/>
      <use xlink:href="#DejaVuSans-6f" x="554.492188"/>
      <use xlink:href="#DejaVuSans-6e" x="615.673828"/>
      <use xlink:href="#DejaVuSans-73" x="679.052734"/>
     </g>
    </g>
    <g id="patch_93">
     <path d="M 289.5827 338.218437 
L 309.5827 338.218437 
L 309.5827 331.218437 
L 289.5827 331.218437 
z
" style="fill: #17becf"/>
    </g>
    <g id="text_33">
     <!-- j_capacities -->
     <g transform="translate(317.5827 338.218437) scale(0.1 -0.1)">
      <use xlink:href="#DejaVuSans-6a"/>
      <use xlink:href="#DejaVuSans-5f" x="27.783203"/>
      <use xlink:href="#DejaVuSans-63" x="77.783203"/>
      <use xlink:href="#DejaVuSans-61" x="132.763672"/>
      <use xlink:href="#DejaVuSans-70" x="194.042969"/>
      <use xlink:href="#DejaVuSans-61" x="257.519531"/>
      <use xlink:href="#DejaVuSans-63" x="318.798828"/>
      <use xlink:href="#DejaVuSans-69" x="373.779297"/>
      <use xlink:href="#DejaVuSans-74" x="401.5625"/>
      <use xlink:href="#DejaVuSans-69" x="440.771484"/>
      <use xlink:href="#DejaVuSans-65" x="468.554688"/>
      <use xlink:href="#DejaVuSans-73" x="530.078125"/>
     </g>
    </g>
    <g id="patch_94">
     <path d="M 289.5827 353.174688 
L 309.5827 353.174688 
L 309.5827 346.174688 
L 289.5827 346.174688 
z
" style="fill: #1f77b4"/>
    </g>
    <g id="text_34">
     <!-- y_capacities -->
     <g transform="translate(317.5827 353.174688) scale(0.1 -0.1)">
      <use xlink:href="#DejaVuSans-79"/>
      <use xlink:href="#DejaVuSans-5f" x="59.179688"/>
      <use xlink:href="#DejaVuSans-63" x="109.179688"/>
      <use xlink:href="#DejaVuSans-61" x="164.160156"/>
      <use xlink:href="#DejaVuSans-70" x="225.439453"/>
      <use xlink:href="#DejaVuSans-61" x="288.916016"/>
      <use xlink:href="#DejaVuSans-63" x="350.195312"/>
      <use xlink:href="#DejaVuSans-69" x="405.175781"/>
      <use xlink:href="#DejaVuSans-74" x="432.958984"/>
      <use xlink:href="#DejaVuSans-69" x="472.167969"/>
      <use xlink:href="#DejaVuSans-65" x="499.951172"/>
      <use xlink:href="#DejaVuSans-73" x="561.474609"/>
     </g>
    </g>
    <g id="patch_95">
     <path d="M 289.5827 368.130938 
L 309.5827 368.130938 
L 309.5827 361.130938 
L 289.5827 361.130938 
z
" style="fill: #ff7f0e"/>
    </g>
    <g id="text_35">
     <!-- flight_number -->
     <g transform="translate(317.5827 368.130938) scale(0.1 -0.1)">
      <use xlink:href="#DejaVuSans-66"/>
      <use xlink:href="#DejaVuSans-6c" x="35.205078"/>
      <use xlink:href="#DejaVuSans-69" x="62.988281"/>
      <use xlink:href="#DejaVuSans-67" x="90.771484"/>
      <use xlink:href="#DejaVuSans-68" x="154.248047"/>
      <use xlink:href="#DejaVuSans-74" x="217.626953"/>
      <use xlink:href="#DejaVuSans-5f" x="256.835938"/>
      <use xlink:href="#DejaVuSans-6e" x="306.835938"/>
      <use xlink:href="#DejaVuSans-75" x="370.214844"/>
      <use xlink:href="#DejaVuSans-6d" x="433.59375"/>
      <use xlink:href="#DejaVuSans-62" x="531.005859"/>
      <use xlink:href="#DejaVuSans-65" x="594.482422"/>
      <use xlink:href="#DejaVuSans-72" x="656.005859"/>
     </g>
    </g>
   </g>
  </g>
 </g>
 <defs>
  <clipPath id="pf7c5790092">
   <rect x="50.87" y="24.72" width="218.774" height="219.83325"/>
  </clipPath>
 </defs>
</svg>
