<?xml version="1.0" encoding="utf-8" standalone="no"?>
<!DOCTYPE svg PUBLIC "-//W3C//DTD SVG 1.1//EN"
  "http://www.w3.org/Graphics/SVG/1.1/DTD/svg11.dtd">
<svg xmlns:xlink="http://www.w3.org/1999/xlink" width="720pt" height="432pt" viewBox="0 0 720 432" xmlns="http://www.w3.org/2000/svg" version="1.1">
 <metadata>
  <rdf:RDF xmlns:dc="http://purl.org/dc/elements/1.1/" xmlns:cc="http://creativecommons.org/ns#" xmlns:rdf="http://www.w3.org/1999/02/22-rdf-syntax-ns#">
   <cc:Work>
    <dc:type rdf:resource="http://purl.org/dc/dcmitype/StillImage"/>
    <dc:date>2024-07-13T12:21:54.015774</dc:date>
    <dc:format>image/svg+xml</dc:format>
    <dc:creator>
     <cc:Agent>
      <dc:title>Matplotlib v3.8.4, https://matplotlib.org/</dc:title>
     </cc:Agent>
    </dc:creator>
   </cc:Work>
  </rdf:RDF>
 </metadata>
 <defs>
  <style type="text/css">*{stroke-linejoin: round; stroke-linecap: butt}</style>
 </defs>
 <g id="figure_1">
  <g id="patch_1">
   <path d="M 0 432 
L 720 432 
L 720 0 
L 0 0 
z
" style="fill: #ffffff"/>
  </g>
  <g id="axes_1">
   <g id="patch_2">
    <path d="M 54.09 383.94 
L 707.04 383.94 
L 707.04 27.6 
L 54.09 27.6 
z
" style="fill: #ffffff"/>
   </g>
   <g id="matplotlib.axis_1">
    <g id="xtick_1">
     <g id="text_1">
      <!-- MN -->
      <g style="fill: #262626" transform="translate(207.9975 402.055625) scale(0.12 -0.12)">
       <defs>
        <path id="Helvetica-4d" d="M 4870 0 
L 4870 4595 
L 3987 4595 
L 2682 710 
L 2669 710 
L 1357 4595 
L 467 4595 
L 467 0 
L 1069 0 
L 1069 2714 
C 1069 2848 1056 3430 1056 3853 
L 1069 3853 
L 2362 0 
L 2976 0 
L 4269 3859 
L 4282 3859 
C 4282 3430 4269 2848 4269 2714 
L 4269 0 
L 4870 0 
z
" transform="scale(0.015625)"/>
        <path id="Helvetica-4e" d="M 3533 883 
L 3520 883 
L 1222 4595 
L 486 4595 
L 486 0 
L 1088 0 
L 1088 3712 
L 1101 3712 
L 3437 0 
L 4134 0 
L 4134 4595 
L 3533 4595 
L 3533 883 
z
" transform="scale(0.015625)"/>
       </defs>
       <use xlink:href="#Helvetica-4d"/>
       <use xlink:href="#Helvetica-4e" x="83.299988"/>
      </g>
     </g>
    </g>
    <g id="xtick_2">
     <g id="text_2">
      <!-- All -->
      <g style="fill: #262626" transform="translate(537.135937 402.055625) scale(0.12 -0.12)">
       <defs>
        <path id="Helvetica-41" d="M 3053 1338 
L 3507 0 
L 4186 0 
L 2522 4595 
L 1818 4595 
L 90 0 
L 730 0 
L 1210 1338 
L 3053 1338 
z
M 1402 1888 
L 2138 3910 
L 2150 3910 
L 2829 1888 
L 1402 1888 
z
" transform="scale(0.015625)"/>
        <path id="Helvetica-6c" d="M 992 4595 
L 429 4595 
L 429 0 
L 992 0 
L 992 4595 
z
" transform="scale(0.015625)"/>
       </defs>
       <use xlink:href="#Helvetica-41"/>
       <use xlink:href="#Helvetica-6c" x="66.699997"/>
       <use xlink:href="#Helvetica-6c" x="88.899994"/>
      </g>
     </g>
    </g>
    <g id="text_3">
     <!-- Airline Code -->
     <g style="fill: #262626" transform="translate(347.890312 417.155625) scale(0.12 -0.12)">
      <defs>
       <path id="Helvetica-69" d="M 992 3347 
L 429 3347 
L 429 0 
L 992 0 
L 992 3347 
z
M 992 3955 
L 992 4595 
L 429 4595 
L 429 3955 
L 992 3955 
z
" transform="scale(0.015625)"/>
       <path id="Helvetica-72" d="M 1056 1946 
C 1056 2432 1389 2842 1914 2842 
L 2125 2842 
L 2125 3424 
C 2080 3437 2048 3443 1978 3443 
C 1555 3443 1261 3181 1037 2790 
L 1024 2790 
L 1024 3347 
L 493 3347 
L 493 0 
L 1056 0 
L 1056 1946 
z
" transform="scale(0.015625)"/>
       <path id="Helvetica-6e" d="M 3142 2278 
C 3142 3232 2490 3443 1971 3443 
C 1395 3443 1082 3053 960 2874 
L 947 2874 
L 947 3347 
L 416 3347 
L 416 0 
L 979 0 
L 979 1824 
C 979 2733 1542 2938 1862 2938 
C 2413 2938 2579 2643 2579 2061 
L 2579 0 
L 3142 0 
L 3142 2278 
z
" transform="scale(0.015625)"/>
       <path id="Helvetica-65" d="M 2694 1050 
C 2675 800 2362 390 1830 390 
C 1184 390 858 794 858 1491 
L 3302 1491 
C 3302 2675 2829 3443 1862 3443 
C 755 3443 256 2618 256 1581 
C 256 614 813 -96 1754 -96 
C 2291 -96 2509 32 2662 134 
C 3085 416 3238 890 3258 1050 
L 2694 1050 
z
M 858 1939 
C 858 2458 1267 2938 1786 2938 
C 2470 2938 2688 2458 2720 1939 
L 858 1939 
z
" transform="scale(0.015625)"/>
       <path id="Helvetica-20" transform="scale(0.015625)"/>
       <path id="Helvetica-43" d="M 4314 3213 
C 4224 3981 3610 4717 2426 4717 
C 1088 4717 282 3738 282 2323 
C 282 557 1306 -122 2349 -122 
C 2694 -122 4102 -45 4358 1690 
L 3757 1690 
C 3546 621 2848 429 2445 429 
C 1306 429 922 1261 922 2342 
C 922 3552 1594 4166 2426 4166 
C 2867 4166 3539 4019 3712 3213 
L 4314 3213 
z
" transform="scale(0.015625)"/>
       <path id="Helvetica-6f" d="M 224 1677 
C 224 813 710 -90 1779 -90 
C 2848 -90 3334 813 3334 1677 
C 3334 2541 2848 3443 1779 3443 
C 710 3443 224 2541 224 1677 
z
M 806 1677 
C 806 2125 973 2957 1779 2957 
C 2586 2957 2752 2125 2752 1677 
C 2752 1229 2586 397 1779 397 
C 973 397 806 1229 806 1677 
z
" transform="scale(0.015625)"/>
       <path id="Helvetica-64" d="M 3194 4595 
L 2630 4595 
L 2630 2918 
L 2618 2874 
C 2483 3066 2227 3443 1619 3443 
C 730 3443 224 2714 224 1773 
C 224 973 557 -96 1696 -96 
C 2022 -96 2406 6 2650 461 
L 2662 461 
L 2662 0 
L 3194 0 
L 3194 4595 
z
M 806 1683 
C 806 2112 851 2938 1722 2938 
C 2534 2938 2624 2061 2624 1517 
C 2624 627 2067 390 1709 390 
C 1094 390 806 947 806 1683 
z
" transform="scale(0.015625)"/>
      </defs>
      <use xlink:href="#Helvetica-41"/>
      <use xlink:href="#Helvetica-69" x="66.699997"/>
      <use xlink:href="#Helvetica-72" x="88.899994"/>
      <use xlink:href="#Helvetica-6c" x="122.199982"/>
      <use xlink:href="#Helvetica-69" x="144.399979"/>
      <use xlink:href="#Helvetica-6e" x="166.599976"/>
      <use xlink:href="#Helvetica-65" x="222.199966"/>
      <use xlink:href="#Helvetica-20" x="277.799957"/>
      <use xlink:href="#Helvetica-43" x="305.599945"/>
      <use xlink:href="#Helvetica-6f" x="377.799927"/>
      <use xlink:href="#Helvetica-64" x="433.399918"/>
      <use xlink:href="#Helvetica-65" x="488.999908"/>
     </g>
    </g>
   </g>
   <g id="matplotlib.axis_2">
    <g id="ytick_1">
     <g id="line2d_1">
      <path d="M 54.09 383.94 
L 707.04 383.94 
" clip-path="url(#p02c9157731)" style="fill: none; stroke: #cccccc; stroke-linecap: round"/>
     </g>
     <g id="text_4">
      <!-- 0.0 -->
      <g style="fill: #262626" transform="translate(27.911875 388.247812) scale(0.12 -0.12)">
       <defs>
        <path id="Helvetica-30" d="M 2720 2189 
C 2720 1062 2426 384 1779 384 
C 1133 384 838 1062 838 2189 
C 838 3315 1133 3994 1779 3994 
C 2426 3994 2720 3315 2720 2189 
z
M 3322 2189 
C 3322 3123 3072 4499 1779 4499 
C 486 4499 237 3123 237 2189 
C 237 1254 486 -122 1779 -122 
C 3072 -122 3322 1254 3322 2189 
z
" transform="scale(0.015625)"/>
        <path id="Helvetica-2e" d="M 1222 678 
L 557 678 
L 557 0 
L 1222 0 
L 1222 678 
z
" transform="scale(0.015625)"/>
       </defs>
       <use xlink:href="#Helvetica-30"/>
       <use xlink:href="#Helvetica-2e" x="55.599991"/>
       <use xlink:href="#Helvetica-30" x="83.399979"/>
      </g>
     </g>
    </g>
    <g id="ytick_2">
     <g id="line2d_2">
      <path d="M 54.09 313.179889 
L 707.04 313.179889 
" clip-path="url(#p02c9157731)" style="fill: none; stroke: #cccccc; stroke-linecap: round"/>
     </g>
     <g id="text_5">
      <!-- 0.2 -->
      <g style="fill: #262626" transform="translate(27.911875 317.487701) scale(0.12 -0.12)">
       <defs>
        <path id="Helvetica-32" d="M 845 2886 
C 864 3200 902 3994 1754 3994 
C 2413 3994 2643 3539 2643 3181 
C 2643 2592 2298 2406 1818 2131 
L 1222 1786 
C 621 1434 198 934 166 0 
L 3245 0 
L 3245 531 
L 800 531 
C 826 704 960 1056 1574 1395 
L 2042 1651 
C 2714 2010 3245 2349 3245 3155 
C 3245 3994 2618 4499 1837 4499 
C 1350 4499 282 4352 282 2886 
L 845 2886 
z
" transform="scale(0.015625)"/>
       </defs>
       <use xlink:href="#Helvetica-30"/>
       <use xlink:href="#Helvetica-2e" x="55.599991"/>
       <use xlink:href="#Helvetica-32" x="83.399979"/>
      </g>
     </g>
    </g>
    <g id="ytick_3">
     <g id="line2d_3">
      <path d="M 54.09 242.419778 
L 707.04 242.419778 
" clip-path="url(#p02c9157731)" style="fill: none; stroke: #cccccc; stroke-linecap: round"/>
     </g>
     <g id="text_6">
      <!-- 0.4 -->
      <g style="fill: #262626" transform="translate(27.911875 246.72759) scale(0.12 -0.12)">
       <defs>
        <path id="Helvetica-34" d="M 3347 1094 
L 3347 1581 
L 2688 1581 
L 2688 4499 
L 2221 4499 
L 160 1645 
L 160 1094 
L 2125 1094 
L 2125 0 
L 2688 0 
L 2688 1094 
L 3347 1094 
z
M 2112 3622 
L 2125 3622 
L 2125 1581 
L 678 1581 
L 2112 3622 
z
" transform="scale(0.015625)"/>
       </defs>
       <use xlink:href="#Helvetica-30"/>
       <use xlink:href="#Helvetica-2e" x="55.599991"/>
       <use xlink:href="#Helvetica-34" x="83.399979"/>
      </g>
     </g>
    </g>
    <g id="ytick_4">
     <g id="line2d_4">
      <path d="M 54.09 171.659667 
L 707.04 171.659667 
" clip-path="url(#p02c9157731)" style="fill: none; stroke: #cccccc; stroke-linecap: round"/>
     </g>
     <g id="text_7">
      <!-- 0.6 -->
      <g style="fill: #262626" transform="translate(27.911875 175.967479) scale(0.12 -0.12)">
       <defs>
        <path id="Helvetica-36" d="M 3219 3302 
C 3162 4218 2426 4499 1907 4499 
C 563 4499 243 3078 243 2093 
C 243 1504 320 954 589 531 
C 909 32 1402 -122 1747 -122 
C 2381 -122 2650 51 2886 314 
C 3194 646 3315 979 3315 1440 
C 3315 2515 2458 2867 1907 2867 
C 1293 2867 979 2560 838 2317 
L 826 2330 
C 826 2803 1011 3994 1894 3994 
C 2381 3994 2598 3699 2669 3302 
L 3219 3302 
z
M 902 1382 
C 902 1914 1203 2362 1824 2362 
C 2522 2362 2733 1811 2733 1414 
C 2733 806 2387 384 1850 384 
C 1190 384 902 902 902 1382 
z
" transform="scale(0.015625)"/>
       </defs>
       <use xlink:href="#Helvetica-30"/>
       <use xlink:href="#Helvetica-2e" x="55.599991"/>
       <use xlink:href="#Helvetica-36" x="83.399979"/>
      </g>
     </g>
    </g>
    <g id="ytick_5">
     <g id="line2d_5">
      <path d="M 54.09 100.899556 
L 707.04 100.899556 
" clip-path="url(#p02c9157731)" style="fill: none; stroke: #cccccc; stroke-linecap: round"/>
     </g>
     <g id="text_8">
      <!-- 0.8 -->
      <g style="fill: #262626" transform="translate(27.911875 105.207368) scale(0.12 -0.12)">
       <defs>
        <path id="Helvetica-38" d="M 3149 3341 
C 3149 3866 2758 4499 1760 4499 
C 685 4499 397 3731 397 3264 
C 397 2842 621 2534 1005 2387 
C 531 2195 243 1843 243 1293 
C 243 1075 243 589 704 224 
C 1062 -58 1536 -122 1786 -122 
C 2848 -122 3309 576 3309 1299 
C 3309 1638 3181 2138 2573 2394 
C 2771 2496 3149 2694 3149 3341 
z
M 1773 2112 
C 2285 2112 2707 1843 2707 1235 
C 2707 531 2214 384 1805 384 
C 1024 384 845 922 845 1280 
C 845 1696 1139 2112 1773 2112 
z
M 1766 2598 
C 1357 2598 979 2861 979 3290 
C 979 3578 1126 3994 1728 3994 
C 2387 3994 2566 3597 2566 3322 
C 2566 2912 2253 2598 1766 2598 
z
" transform="scale(0.015625)"/>
       </defs>
       <use xlink:href="#Helvetica-30"/>
       <use xlink:href="#Helvetica-2e" x="55.599991"/>
       <use xlink:href="#Helvetica-38" x="83.399979"/>
      </g>
     </g>
    </g>
    <g id="ytick_6">
     <g id="line2d_6">
      <path d="M 54.09 30.139445 
L 707.04 30.139445 
" clip-path="url(#p02c9157731)" style="fill: none; stroke: #cccccc; stroke-linecap: round"/>
     </g>
     <g id="text_9">
      <!-- 1.0 -->
      <g style="fill: #262626" transform="translate(27.911875 34.447257) scale(0.12 -0.12)">
       <defs>
        <path id="Helvetica-31" d="M 2298 4499 
L 1856 4499 
C 1677 3763 1376 3693 646 3642 
L 646 3194 
L 1696 3194 
L 1696 0 
L 2298 0 
L 2298 4499 
z
" transform="scale(0.015625)"/>
       </defs>
       <use xlink:href="#Helvetica-31"/>
       <use xlink:href="#Helvetica-2e" x="55.599991"/>
       <use xlink:href="#Helvetica-30" x="83.399979"/>
      </g>
     </g>
    </g>
    <g id="text_10">
     <!-- Ratio -->
     <g style="fill: #262626" transform="translate(21.4275 219.773438) rotate(-90) scale(0.12 -0.12)">
      <defs>
       <path id="Helvetica-52" d="M 1184 1971 
L 2688 1971 
C 3430 1971 3507 1530 3507 1152 
C 3507 979 3526 282 3616 0 
L 4378 0 
L 4378 102 
C 4186 211 4154 307 4147 563 
L 4109 1395 
C 4083 2035 3821 2150 3558 2259 
C 3853 2432 4198 2682 4198 3360 
C 4198 4333 3443 4595 2688 4595 
L 563 4595 
L 563 0 
L 1184 0 
L 1184 1971 
z
M 1184 4064 
L 2733 4064 
C 3040 4064 3558 4006 3558 3296 
C 3558 2618 3078 2502 2624 2502 
L 1184 2502 
L 1184 4064 
z
" transform="scale(0.015625)"/>
       <path id="Helvetica-61" d="M 915 2330 
C 954 2586 1043 2976 1683 2976 
C 2214 2976 2470 2784 2470 2432 
C 2470 2099 2310 2048 2176 2035 
L 1248 1920 
C 314 1805 230 1152 230 870 
C 230 294 666 -96 1280 -96 
C 1933 -96 2272 211 2490 448 
C 2509 192 2586 -64 3085 -64 
C 3213 -64 3296 -26 3392 0 
L 3392 410 
C 3328 397 3258 384 3206 384 
C 3091 384 3021 442 3021 582 
L 3021 2509 
C 3021 3366 2048 3443 1779 3443 
C 954 3443 422 3130 397 2330 
L 915 2330 
z
M 2458 1158 
C 2458 710 1946 371 1421 371 
C 998 371 813 589 813 954 
C 813 1376 1254 1459 1530 1498 
C 2227 1587 2368 1638 2458 1709 
L 2458 1158 
z
" transform="scale(0.015625)"/>
       <path id="Helvetica-74" d="M 1645 2880 
L 1645 3347 
L 1107 3347 
L 1107 4282 
L 544 4282 
L 544 3347 
L 90 3347 
L 90 2880 
L 544 2880 
L 544 672 
C 544 269 666 -45 1222 -45 
C 1280 -45 1440 -19 1645 0 
L 1645 442 
L 1446 442 
C 1331 442 1107 442 1107 704 
L 1107 2880 
L 1645 2880 
z
" transform="scale(0.015625)"/>
      </defs>
      <use xlink:href="#Helvetica-52"/>
      <use xlink:href="#Helvetica-61" x="72.199982"/>
      <use xlink:href="#Helvetica-74" x="127.799973"/>
      <use xlink:href="#Helvetica-69" x="155.59996"/>
      <use xlink:href="#Helvetica-6f" x="177.799957"/>
     </g>
    </g>
   </g>
   <g id="patch_3">
    <path d="M 86.7375 383.94 
L 217.3275 383.94 
L 217.3275 369.510874 
L 86.7375 369.510874 
z
" clip-path="url(#p02c9157731)" style="fill: #4884af; stroke: #ffffff; stroke-linejoin: miter"/>
   </g>
   <g id="patch_4">
    <path d="M 413.2125 383.94 
L 543.8025 383.94 
L 543.8025 369.510874 
L 413.2125 369.510874 
z
" clip-path="url(#p02c9157731)" style="fill: #4884af; stroke: #ffffff; stroke-linejoin: miter"/>
   </g>
   <g id="patch_5">
    <path d="M 217.3275 383.94 
L 347.9175 383.94 
L 347.9175 44.568571 
L 217.3275 44.568571 
z
" clip-path="url(#p02c9157731)" style="fill: #b3cede; stroke: #ffffff; stroke-linejoin: miter"/>
   </g>
   <g id="patch_6">
    <path d="M 543.8025 383.94 
L 674.3925 383.94 
L 674.3925 44.568571 
L 543.8025 44.568571 
z
" clip-path="url(#p02c9157731)" style="fill: #b3cede; stroke: #ffffff; stroke-linejoin: miter"/>
   </g>
   <g id="patch_7">
    <path d="M 217.3275 383.94 
L 217.3275 383.94 
L 217.3275 383.94 
L 217.3275 383.94 
z
" clip-path="url(#p02c9157731)" style="fill: #4884af; stroke: #ffffff; stroke-linejoin: miter"/>
   </g>
   <g id="patch_8">
    <path d="M 217.3275 383.94 
L 217.3275 383.94 
L 217.3275 383.94 
L 217.3275 383.94 
z
" clip-path="url(#p02c9157731)" style="fill: #b3cede; stroke: #ffffff; stroke-linejoin: miter"/>
   </g>
   <g id="line2d_7">
    <path clip-path="url(#p02c9157731)" style="fill: none; stroke: #424242; stroke-width: 2.25; stroke-linecap: round"/>
   </g>
   <g id="line2d_8">
    <path clip-path="url(#p02c9157731)" style="fill: none; stroke: #424242; stroke-width: 2.25; stroke-linecap: round"/>
   </g>
   <g id="line2d_9">
    <path clip-path="url(#p02c9157731)" style="fill: none; stroke: #424242; stroke-width: 2.25; stroke-linecap: round"/>
   </g>
   <g id="line2d_10">
    <path clip-path="url(#p02c9157731)" style="fill: none; stroke: #424242; stroke-width: 2.25; stroke-linecap: round"/>
   </g>
   <g id="patch_9">
    <path d="M 54.09 383.94 
L 54.09 27.6 
" style="fill: none; stroke: #cccccc; stroke-width: 1.25; stroke-linejoin: miter; stroke-linecap: square"/>
   </g>
   <g id="patch_10">
    <path d="M 707.04 383.94 
L 707.04 27.6 
" style="fill: none; stroke: #cccccc; stroke-width: 1.25; stroke-linejoin: miter; stroke-linecap: square"/>
   </g>
   <g id="patch_11">
    <path d="M 54.09 383.94 
L 707.04 383.94 
" style="fill: none; stroke: #cccccc; stroke-width: 1.25; stroke-linejoin: miter; stroke-linecap: square"/>
   </g>
   <g id="patch_12">
    <path d="M 54.09 27.6 
L 707.04 27.6 
" style="fill: none; stroke: #cccccc; stroke-width: 1.25; stroke-linejoin: miter; stroke-linecap: square"/>
   </g>
   <g id="text_11">
    <!-- Ratio to distribution Utilization by Airline Code -->
    <g style="fill: #262626" transform="translate(247.560937 21.6) scale(0.12 -0.12)">
     <defs>
      <path id="HelveticaCE-Bold-52" d="M 486 0 
L 1427 0 
L 1427 1798 
L 2419 1798 
C 3130 1798 3168 1555 3168 928 
C 3168 454 3206 218 3270 0 
L 4333 0 
L 4333 122 
C 4128 198 4128 365 4128 1037 
C 4128 1894 3923 2035 3546 2202 
C 4000 2355 4256 2790 4256 3296 
C 4256 3693 4032 4595 2810 4595 
L 486 4595 
L 486 0 
z
M 1427 2573 
L 1427 3802 
L 2624 3802 
C 3187 3802 3296 3443 3296 3200 
C 3296 2746 3053 2573 2554 2573 
L 1427 2573 
z
" transform="scale(0.015625)"/>
      <path id="HelveticaCE-Bold-61" d="M 3174 2509 
C 3174 3347 2298 3494 1818 3494 
C 1120 3494 397 3347 294 2304 
L 1158 2304 
C 1184 2502 1261 2778 1709 2778 
C 1939 2778 2298 2758 2298 2381 
C 2298 2189 2125 2131 1984 2112 
L 1178 1990 
C 608 1907 186 1568 186 902 
C 186 198 710 -90 1222 -90 
C 1830 -90 2118 192 2323 403 
C 2342 211 2355 160 2406 0 
L 3373 0 
L 3373 134 
C 3264 173 3174 262 3174 666 
L 3174 2509 
z
M 2298 1222 
C 2298 806 1894 550 1498 550 
C 1325 550 1082 646 1082 960 
C 1082 1331 1357 1414 1690 1472 
C 2061 1530 2208 1587 2298 1658 
L 2298 1222 
z
" transform="scale(0.015625)"/>
      <path id="HelveticaCE-Bold-74" d="M 1421 4326 
L 525 4326 
L 525 3405 
L 64 3405 
L 64 2765 
L 525 2765 
L 525 698 
C 525 256 666 -38 1440 -38 
L 1555 -38 
C 1696 -38 1837 -32 1978 -26 
L 1978 653 
C 1914 646 1850 640 1792 640 
C 1427 640 1421 717 1421 915 
L 1421 2765 
L 1978 2765 
L 1978 3405 
L 1421 3405 
L 1421 4326 
z
" transform="scale(0.015625)"/>
      <path id="HelveticaCE-Bold-69" d="M 442 3405 
L 442 0 
L 1338 0 
L 1338 3405 
L 442 3405 
z
M 1338 4640 
L 442 4640 
L 442 3808 
L 1338 3808 
L 1338 4640 
z
" transform="scale(0.015625)"/>
      <path id="HelveticaCE-Bold-6f" d="M 3699 1702 
C 3699 2931 2874 3494 1958 3494 
C 1043 3494 218 2931 218 1702 
C 218 474 1043 -90 1958 -90 
C 2874 -90 3699 474 3699 1702 
z
M 2778 1702 
C 2778 1267 2650 666 1958 666 
C 1267 666 1139 1267 1139 1702 
C 1139 2138 1267 2739 1958 2739 
C 2650 2739 2778 2138 2778 1702 
z
" transform="scale(0.015625)"/>
      <path id="HelveticaCE-Bold-20" transform="scale(0.015625)"/>
      <path id="HelveticaCE-Bold-64" d="M 3526 4595 
L 2630 4595 
L 2630 2963 
L 2618 2963 
C 2477 3181 2208 3494 1632 3494 
C 883 3494 218 2918 218 1741 
C 218 806 640 -90 1651 -90 
C 2022 -90 2419 45 2637 429 
L 2650 429 
L 2650 0 
L 3526 0 
L 3526 4595 
z
M 1139 1677 
C 1139 2214 1331 2720 1901 2720 
C 2515 2720 2669 2170 2669 1626 
C 2669 1120 2445 646 1875 646 
C 1299 646 1139 1274 1139 1677 
z
" transform="scale(0.015625)"/>
      <path id="HelveticaCE-Bold-73" d="M 3219 2368 
C 3149 3328 2355 3494 1690 3494 
C 627 3494 314 2854 314 2355 
C 314 1082 2426 1510 2426 941 
C 2426 813 2317 589 1856 589 
C 1293 589 1114 800 1114 1088 
L 192 1088 
C 218 179 1056 -90 1830 -90 
C 2362 -90 3322 90 3322 1082 
C 3322 2336 1190 1946 1190 2483 
C 1190 2630 1254 2816 1741 2816 
C 2227 2816 2304 2586 2342 2368 
L 3219 2368 
z
" transform="scale(0.015625)"/>
      <path id="HelveticaCE-Bold-72" d="M 410 0 
L 1306 0 
L 1306 1773 
C 1306 2150 1434 2586 2131 2586 
C 2214 2586 2310 2586 2387 2573 
L 2387 3482 
C 2330 3488 2272 3494 2214 3494 
C 1670 3494 1466 3162 1280 2816 
L 1267 2816 
L 1267 3405 
L 410 3405 
L 410 0 
z
" transform="scale(0.015625)"/>
      <path id="HelveticaCE-Bold-62" d="M 2778 1677 
C 2778 1274 2618 646 2042 646 
C 1472 646 1248 1120 1248 1626 
C 1248 2170 1402 2720 2016 2720 
C 2586 2720 2778 2214 2778 1677 
z
M 1286 4595 
L 390 4595 
L 390 0 
L 1267 0 
L 1267 429 
L 1280 429 
C 1498 45 1894 -90 2266 -90 
C 3277 -90 3699 806 3699 1741 
C 3699 2918 3034 3494 2285 3494 
C 1709 3494 1440 3181 1299 2963 
L 1286 2963 
L 1286 4595 
z
" transform="scale(0.015625)"/>
      <path id="HelveticaCE-Bold-75" d="M 3488 3405 
L 2592 3405 
L 2592 1440 
C 2592 832 2195 666 1901 666 
C 1626 666 1318 768 1318 1293 
L 1318 3405 
L 422 3405 
L 422 1165 
C 422 294 909 -90 1581 -90 
C 2054 -90 2413 115 2618 480 
L 2630 480 
L 2630 0 
L 3488 0 
L 3488 3405 
z
" transform="scale(0.015625)"/>
      <path id="HelveticaCE-Bold-6e" d="M 3494 2355 
C 3494 3104 2976 3494 2310 3494 
C 1664 3494 1408 3110 1286 2906 
L 1274 2906 
L 1274 3405 
L 416 3405 
L 416 0 
L 1312 0 
L 1312 1952 
C 1312 2470 1619 2739 2016 2739 
C 2586 2739 2598 2317 2598 2067 
L 2598 0 
L 3494 0 
L 3494 2355 
z
" transform="scale(0.015625)"/>
      <path id="HelveticaCE-Bold-55" d="M 4166 4595 
L 3187 4595 
L 3187 1568 
C 3187 1011 2918 691 2259 691 
C 1811 691 1440 973 1440 1613 
L 1440 4595 
L 461 4595 
L 461 1549 
C 474 1088 570 717 819 435 
C 1229 -19 1856 -122 2278 -122 
C 3437 -122 4166 397 4166 1606 
L 4166 4595 
z
" transform="scale(0.015625)"/>
      <path id="HelveticaCE-Bold-6c" d="M 1338 4595 
L 442 4595 
L 442 0 
L 1338 0 
L 1338 4595 
z
" transform="scale(0.015625)"/>
      <path id="HelveticaCE-Bold-7a" d="M 3008 2669 
L 3008 3405 
L 250 3405 
L 250 2688 
L 1875 2688 
L 128 698 
L 128 0 
L 3072 0 
L 3072 736 
L 1286 736 
L 3008 2669 
z
" transform="scale(0.015625)"/>
      <path id="HelveticaCE-Bold-79" d="M 3450 3405 
L 2502 3405 
L 1805 896 
L 1792 896 
L 1062 3405 
L 64 3405 
L 1318 -141 
C 1235 -608 1056 -653 730 -653 
C 653 -653 595 -646 557 -640 
L 557 -1357 
C 685 -1363 838 -1370 960 -1370 
C 1741 -1370 1856 -1203 2278 58 
L 3450 3405 
z
" transform="scale(0.015625)"/>
      <path id="HelveticaCE-Bold-41" d="M 1459 947 
L 3155 947 
L 3450 0 
L 4493 0 
L 2874 4595 
L 1766 4595 
L 128 0 
L 1139 0 
L 1459 947 
z
M 2304 3558 
L 2317 3558 
L 2886 1741 
L 1715 1741 
L 2304 3558 
z
" transform="scale(0.015625)"/>
      <path id="HelveticaCE-Bold-65" d="M 2419 998 
C 2349 755 2093 627 1843 627 
C 1120 627 1069 1203 1043 1459 
L 3379 1459 
L 3379 1619 
C 3379 3174 2451 3494 1779 3494 
C 288 3494 147 2182 147 1773 
C 147 371 883 -90 1843 -90 
C 2426 -90 3104 179 3341 998 
L 2419 998 
z
M 1069 2042 
C 1120 2490 1344 2758 1766 2758 
C 2054 2758 2406 2592 2458 2042 
L 1069 2042 
z
" transform="scale(0.015625)"/>
      <path id="HelveticaCE-Bold-43" d="M 4378 3091 
C 4326 3770 3770 4717 2394 4717 
C 1210 4717 282 3898 282 2291 
C 282 704 1158 -122 2381 -122 
C 3533 -122 4186 576 4378 1574 
L 3418 1574 
C 3302 1011 2931 710 2400 710 
C 1587 710 1261 1453 1261 2278 
C 1261 3578 1939 3885 2400 3885 
C 3194 3885 3341 3366 3418 3091 
L 4378 3091 
z
" transform="scale(0.015625)"/>
     </defs>
     <use xlink:href="#HelveticaCE-Bold-52"/>
     <use xlink:href="#HelveticaCE-Bold-61" x="72.199982"/>
     <use xlink:href="#HelveticaCE-Bold-74" x="127.799973"/>
     <use xlink:href="#HelveticaCE-Bold-69" x="161.09996"/>
     <use xlink:href="#HelveticaCE-Bold-6f" x="188.899948"/>
     <use xlink:href="#HelveticaCE-Bold-20" x="249.999939"/>
     <use xlink:href="#HelveticaCE-Bold-74" x="277.799927"/>
     <use xlink:href="#HelveticaCE-Bold-6f" x="311.099915"/>
     <use xlink:href="#HelveticaCE-Bold-20" x="372.199905"/>
     <use xlink:href="#HelveticaCE-Bold-64" x="399.999893"/>
     <use xlink:href="#HelveticaCE-Bold-69" x="461.099884"/>
     <use xlink:href="#HelveticaCE-Bold-73" x="488.899872"/>
     <use xlink:href="#HelveticaCE-Bold-74" x="544.499863"/>
     <use xlink:href="#HelveticaCE-Bold-72" x="577.79985"/>
     <use xlink:href="#HelveticaCE-Bold-69" x="616.699844"/>
     <use xlink:href="#HelveticaCE-Bold-62" x="644.499832"/>
     <use xlink:href="#HelveticaCE-Bold-75" x="705.599823"/>
     <use xlink:href="#HelveticaCE-Bold-74" x="766.699814"/>
     <use xlink:href="#HelveticaCE-Bold-69" x="799.999802"/>
     <use xlink:href="#HelveticaCE-Bold-6f" x="827.799789"/>
     <use xlink:href="#HelveticaCE-Bold-6e" x="888.89978"/>
     <use xlink:href="#HelveticaCE-Bold-20" x="949.999771"/>
     <use xlink:href="#HelveticaCE-Bold-55" x="977.799759"/>
     <use xlink:href="#HelveticaCE-Bold-74" x="1049.999741"/>
     <use xlink:href="#HelveticaCE-Bold-69" x="1083.299728"/>
     <use xlink:href="#HelveticaCE-Bold-6c" x="1111.099716"/>
     <use xlink:href="#HelveticaCE-Bold-69" x="1138.899704"/>
     <use xlink:href="#HelveticaCE-Bold-7a" x="1166.699692"/>
     <use xlink:href="#HelveticaCE-Bold-61" x="1216.699677"/>
     <use xlink:href="#HelveticaCE-Bold-74" x="1272.299667"/>
     <use xlink:href="#HelveticaCE-Bold-69" x="1305.599655"/>
     <use xlink:href="#HelveticaCE-Bold-6f" x="1333.399643"/>
     <use xlink:href="#HelveticaCE-Bold-6e" x="1394.499634"/>
     <use xlink:href="#HelveticaCE-Bold-20" x="1455.599625"/>
     <use xlink:href="#HelveticaCE-Bold-62" x="1483.399612"/>
     <use xlink:href="#HelveticaCE-Bold-79" x="1544.499603"/>
     <use xlink:href="#HelveticaCE-Bold-20" x="1600.099594"/>
     <use xlink:href="#HelveticaCE-Bold-41" x="1627.899582"/>
     <use xlink:href="#HelveticaCE-Bold-69" x="1700.099564"/>
     <use xlink:href="#HelveticaCE-Bold-72" x="1727.899551"/>
     <use xlink:href="#HelveticaCE-Bold-6c" x="1766.799545"/>
     <use xlink:href="#HelveticaCE-Bold-69" x="1794.599533"/>
     <use xlink:href="#HelveticaCE-Bold-6e" x="1822.399521"/>
     <use xlink:href="#HelveticaCE-Bold-65" x="1883.499512"/>
     <use xlink:href="#HelveticaCE-Bold-20" x="1939.099503"/>
     <use xlink:href="#HelveticaCE-Bold-43" x="1966.89949"/>
     <use xlink:href="#HelveticaCE-Bold-6f" x="2039.099472"/>
     <use xlink:href="#HelveticaCE-Bold-64" x="2100.199463"/>
     <use xlink:href="#HelveticaCE-Bold-65" x="2161.299454"/>
    </g>
   </g>
   <g id="legend_1">
    <g id="patch_13">
     <path d="M 61.79 84.251875 
L 130.00375 84.251875 
Q 132.20375 84.251875 132.20375 82.051875 
L 132.20375 35.3 
Q 132.20375 33.1 130.00375 33.1 
L 61.79 33.1 
Q 59.59 33.1 59.59 35.3 
L 59.59 82.051875 
Q 59.59 84.251875 61.79 84.251875 
z
" style="fill: #ffffff; opacity: 0.8; stroke: #cccccc; stroke-linejoin: miter"/>
    </g>
    <g id="text_12">
     <!-- Class -->
     <g style="fill: #262626" transform="translate(80.894062 46.089375) scale(0.12 -0.12)">
      <defs>
       <path id="ArialMT-43" d="M 3763 1606 
L 4369 1453 
Q 4178 706 3683 314 
Q 3188 -78 2472 -78 
Q 1731 -78 1267 223 
Q 803 525 561 1097 
Q 319 1669 319 2325 
Q 319 3041 592 3573 
Q 866 4106 1370 4382 
Q 1875 4659 2481 4659 
Q 3169 4659 3637 4309 
Q 4106 3959 4291 3325 
L 3694 3184 
Q 3534 3684 3231 3912 
Q 2928 4141 2469 4141 
Q 1941 4141 1586 3887 
Q 1231 3634 1087 3207 
Q 944 2781 944 2328 
Q 944 1744 1114 1308 
Q 1284 872 1643 656 
Q 2003 441 2422 441 
Q 2931 441 3284 734 
Q 3638 1028 3763 1606 
z
" transform="scale(0.015625)"/>
       <path id="ArialMT-6c" d="M 409 0 
L 409 4581 
L 972 4581 
L 972 0 
L 409 0 
z
" transform="scale(0.015625)"/>
       <path id="ArialMT-61" d="M 2588 409 
Q 2275 144 1986 34 
Q 1697 -75 1366 -75 
Q 819 -75 525 192 
Q 231 459 231 875 
Q 231 1119 342 1320 
Q 453 1522 633 1644 
Q 813 1766 1038 1828 
Q 1203 1872 1538 1913 
Q 2219 1994 2541 2106 
Q 2544 2222 2544 2253 
Q 2544 2597 2384 2738 
Q 2169 2928 1744 2928 
Q 1347 2928 1158 2789 
Q 969 2650 878 2297 
L 328 2372 
Q 403 2725 575 2942 
Q 747 3159 1072 3276 
Q 1397 3394 1825 3394 
Q 2250 3394 2515 3294 
Q 2781 3194 2906 3042 
Q 3031 2891 3081 2659 
Q 3109 2516 3109 2141 
L 3109 1391 
Q 3109 606 3145 398 
Q 3181 191 3288 0 
L 2700 0 
Q 2613 175 2588 409 
z
M 2541 1666 
Q 2234 1541 1622 1453 
Q 1275 1403 1131 1340 
Q 988 1278 909 1158 
Q 831 1038 831 891 
Q 831 666 1001 516 
Q 1172 366 1500 366 
Q 1825 366 2078 508 
Q 2331 650 2450 897 
Q 2541 1088 2541 1459 
L 2541 1666 
z
" transform="scale(0.015625)"/>
       <path id="ArialMT-73" d="M 197 991 
L 753 1078 
Q 800 744 1014 566 
Q 1228 388 1613 388 
Q 2000 388 2187 545 
Q 2375 703 2375 916 
Q 2375 1106 2209 1216 
Q 2094 1291 1634 1406 
Q 1016 1563 777 1677 
Q 538 1791 414 1992 
Q 291 2194 291 2438 
Q 291 2659 392 2848 
Q 494 3038 669 3163 
Q 800 3259 1026 3326 
Q 1253 3394 1513 3394 
Q 1903 3394 2198 3281 
Q 2494 3169 2634 2976 
Q 2775 2784 2828 2463 
L 2278 2388 
Q 2241 2644 2061 2787 
Q 1881 2931 1553 2931 
Q 1166 2931 1000 2803 
Q 834 2675 834 2503 
Q 834 2394 903 2306 
Q 972 2216 1119 2156 
Q 1203 2125 1616 2013 
Q 2213 1853 2448 1751 
Q 2684 1650 2818 1456 
Q 2953 1263 2953 975 
Q 2953 694 2789 445 
Q 2625 197 2315 61 
Q 2006 -75 1616 -75 
Q 969 -75 630 194 
Q 291 463 197 991 
z
" transform="scale(0.015625)"/>
      </defs>
      <use xlink:href="#ArialMT-43"/>
      <use xlink:href="#ArialMT-6c" x="72.216797"/>
      <use xlink:href="#ArialMT-61" x="94.433594"/>
      <use xlink:href="#ArialMT-73" x="150.048828"/>
      <use xlink:href="#ArialMT-73" x="200.048828"/>
     </g>
    </g>
    <g id="patch_14">
     <path d="M 63.99 61.847969 
L 85.99 61.847969 
L 85.99 54.147969 
L 63.99 54.147969 
z
" style="fill: #4884af; stroke: #ffffff; stroke-linejoin: miter"/>
    </g>
    <g id="text_13">
     <!-- j_ratio -->
     <g style="fill: #262626" transform="translate(94.79 61.847969) scale(0.11 -0.11)">
      <defs>
       <path id="ArialMT-6a" d="M 419 3928 
L 419 4581 
L 981 4581 
L 981 3928 
L 419 3928 
z
M -294 -1288 
L -188 -809 
Q -19 -853 78 -853 
Q 250 -853 334 -739 
Q 419 -625 419 -169 
L 419 3319 
L 981 3319 
L 981 -181 
Q 981 -794 822 -1034 
Q 619 -1347 147 -1347 
Q -81 -1347 -294 -1288 
z
" transform="scale(0.015625)"/>
       <path id="ArialMT-5f" d="M -97 -1272 
L -97 -866 
L 3631 -866 
L 3631 -1272 
L -97 -1272 
z
" transform="scale(0.015625)"/>
       <path id="ArialMT-72" d="M 416 0 
L 416 3319 
L 922 3319 
L 922 2816 
Q 1116 3169 1280 3281 
Q 1444 3394 1641 3394 
Q 1925 3394 2219 3213 
L 2025 2691 
Q 1819 2813 1613 2813 
Q 1428 2813 1281 2702 
Q 1134 2591 1072 2394 
Q 978 2094 978 1738 
L 978 0 
L 416 0 
z
" transform="scale(0.015625)"/>
       <path id="ArialMT-74" d="M 1650 503 
L 1731 6 
Q 1494 -44 1306 -44 
Q 1000 -44 831 53 
Q 663 150 594 308 
Q 525 466 525 972 
L 525 2881 
L 113 2881 
L 113 3319 
L 525 3319 
L 525 4141 
L 1084 4478 
L 1084 3319 
L 1650 3319 
L 1650 2881 
L 1084 2881 
L 1084 941 
Q 1084 700 1114 631 
Q 1144 563 1211 522 
Q 1278 481 1403 481 
Q 1497 481 1650 503 
z
" transform="scale(0.015625)"/>
       <path id="ArialMT-69" d="M 425 3934 
L 425 4581 
L 988 4581 
L 988 3934 
L 425 3934 
z
M 425 0 
L 425 3319 
L 988 3319 
L 988 0 
L 425 0 
z
" transform="scale(0.015625)"/>
       <path id="ArialMT-6f" d="M 213 1659 
Q 213 2581 725 3025 
Q 1153 3394 1769 3394 
Q 2453 3394 2887 2945 
Q 3322 2497 3322 1706 
Q 3322 1066 3130 698 
Q 2938 331 2570 128 
Q 2203 -75 1769 -75 
Q 1072 -75 642 372 
Q 213 819 213 1659 
z
M 791 1659 
Q 791 1022 1069 705 
Q 1347 388 1769 388 
Q 2188 388 2466 706 
Q 2744 1025 2744 1678 
Q 2744 2294 2464 2611 
Q 2184 2928 1769 2928 
Q 1347 2928 1069 2612 
Q 791 2297 791 1659 
z
" transform="scale(0.015625)"/>
      </defs>
      <use xlink:href="#ArialMT-6a"/>
      <use xlink:href="#ArialMT-5f" x="22.216797"/>
      <use xlink:href="#ArialMT-72" x="77.832031"/>
      <use xlink:href="#ArialMT-61" x="111.132812"/>
      <use xlink:href="#ArialMT-74" x="166.748047"/>
      <use xlink:href="#ArialMT-69" x="194.53125"/>
      <use xlink:href="#ArialMT-6f" x="216.748047"/>
     </g>
    </g>
    <g id="patch_15">
     <path d="M 63.99 77.536719 
L 85.99 77.536719 
L 85.99 69.836719 
L 63.99 69.836719 
z
" style="fill: #b3cede; stroke: #ffffff; stroke-linejoin: miter"/>
    </g>
    <g id="text_14">
     <!-- y_ratio -->
     <g style="fill: #262626" transform="translate(94.79 77.536719) scale(0.11 -0.11)">
      <defs>
       <path id="ArialMT-79" d="M 397 -1278 
L 334 -750 
Q 519 -800 656 -800 
Q 844 -800 956 -737 
Q 1069 -675 1141 -563 
Q 1194 -478 1313 -144 
Q 1328 -97 1363 -6 
L 103 3319 
L 709 3319 
L 1400 1397 
Q 1534 1031 1641 628 
Q 1738 1016 1872 1384 
L 2581 3319 
L 3144 3319 
L 1881 -56 
Q 1678 -603 1566 -809 
Q 1416 -1088 1222 -1217 
Q 1028 -1347 759 -1347 
Q 597 -1347 397 -1278 
z
" transform="scale(0.015625)"/>
      </defs>
      <use xlink:href="#ArialMT-79"/>
      <use xlink:href="#ArialMT-5f" x="50"/>
      <use xlink:href="#ArialMT-72" x="105.615234"/>
      <use xlink:href="#ArialMT-61" x="138.916016"/>
      <use xlink:href="#ArialMT-74" x="194.53125"/>
      <use xlink:href="#ArialMT-69" x="222.314453"/>
      <use xlink:href="#ArialMT-6f" x="244.53125"/>
     </g>
    </g>
   </g>
  </g>
 </g>
 <defs>
  <clipPath id="p02c9157731">
   <rect x="54.09" y="27.6" width="652.95" height="356.34"/>
  </clipPath>
 </defs>
</svg>
