<?xml version="1.0" encoding="utf-8" standalone="no"?>
<!DOCTYPE svg PUBLIC "-//W3C//DTD SVG 1.1//EN"
  "http://www.w3.org/Graphics/SVG/1.1/DTD/svg11.dtd">
<svg xmlns:xlink="http://www.w3.org/1999/xlink" width="864pt" height="432pt" viewBox="0 0 864 432" xmlns="http://www.w3.org/2000/svg" version="1.1">
 <metadata>
  <rdf:RDF xmlns:dc="http://purl.org/dc/elements/1.1/" xmlns:cc="http://creativecommons.org/ns#" xmlns:rdf="http://www.w3.org/1999/02/22-rdf-syntax-ns#">
   <cc:Work>
    <dc:type rdf:resource="http://purl.org/dc/dcmitype/StillImage"/>
    <dc:date>2024-07-12T16:58:30.377247</dc:date>
    <dc:format>image/svg+xml</dc:format>
    <dc:creator>
     <cc:Agent>
      <dc:title>Matplotlib v3.8.4, https://matplotlib.org/</dc:title>
     </cc:Agent>
    </dc:creator>
   </cc:Work>
  </rdf:RDF>
 </metadata>
 <defs>
  <style type="text/css">*{stroke-linejoin: round; stroke-linecap: butt}</style>
 </defs>
 <g id="figure_1">
  <g id="patch_1">
   <path d="M 0 432 
L 864 432 
L 864 0 
L 0 0 
z
" style="fill: #ffffff"/>
  </g>
  <g id="axes_1">
   <g id="patch_2">
    <path d="M 165.42 382.5 
L 851.04 382.5 
L 851.04 35.52 
L 165.42 35.52 
z
" style="fill: #ffffff"/>
   </g>
   <g id="matplotlib.axis_1">
    <g id="xtick_1">
     <g id="line2d_1">
      <path d="M 165.42 382.5 
L 165.42 35.52 
" clip-path="url(#p6a4882ffcf)" style="fill: none; stroke: #cccccc; stroke-linecap: round"/>
     </g>
     <g id="text_1">
      <!-- 0 -->
      <g style="fill: #262626" transform="translate(162.361484 399.873594) scale(0.11 -0.11)">
       <defs>
        <path id="ArialMT-30" d="M 266 2259 
Q 266 3072 433 3567 
Q 600 4063 929 4331 
Q 1259 4600 1759 4600 
Q 2128 4600 2406 4451 
Q 2684 4303 2865 4023 
Q 3047 3744 3150 3342 
Q 3253 2941 3253 2259 
Q 3253 1453 3087 958 
Q 2922 463 2592 192 
Q 2263 -78 1759 -78 
Q 1097 -78 719 397 
Q 266 969 266 2259 
z
M 844 2259 
Q 844 1131 1108 757 
Q 1372 384 1759 384 
Q 2147 384 2411 759 
Q 2675 1134 2675 2259 
Q 2675 3391 2411 3762 
Q 2147 4134 1753 4134 
Q 1366 4134 1134 3806 
Q 844 3388 844 2259 
z
" transform="scale(0.015625)"/>
       </defs>
       <use xlink:href="#ArialMT-30"/>
      </g>
     </g>
    </g>
    <g id="xtick_2">
     <g id="line2d_2">
      <path d="M 316.291402 382.5 
L 316.291402 35.52 
" clip-path="url(#p6a4882ffcf)" style="fill: none; stroke: #cccccc; stroke-linecap: round"/>
     </g>
     <g id="text_2">
      <!-- 500 -->
      <g style="fill: #262626" transform="translate(307.115855 399.873594) scale(0.11 -0.11)">
       <defs>
        <path id="ArialMT-35" d="M 266 1200 
L 856 1250 
Q 922 819 1161 601 
Q 1400 384 1738 384 
Q 2144 384 2425 690 
Q 2706 997 2706 1503 
Q 2706 1984 2436 2262 
Q 2166 2541 1728 2541 
Q 1456 2541 1237 2417 
Q 1019 2294 894 2097 
L 366 2166 
L 809 4519 
L 3088 4519 
L 3088 3981 
L 1259 3981 
L 1013 2750 
Q 1425 3038 1878 3038 
Q 2478 3038 2890 2622 
Q 3303 2206 3303 1553 
Q 3303 931 2941 478 
Q 2500 -78 1738 -78 
Q 1113 -78 717 272 
Q 322 622 266 1200 
z
" transform="scale(0.015625)"/>
       </defs>
       <use xlink:href="#ArialMT-35"/>
       <use xlink:href="#ArialMT-30" x="55.615234"/>
       <use xlink:href="#ArialMT-30" x="111.230469"/>
      </g>
     </g>
    </g>
    <g id="xtick_3">
     <g id="line2d_3">
      <path d="M 467.162804 382.5 
L 467.162804 35.52 
" clip-path="url(#p6a4882ffcf)" style="fill: none; stroke: #cccccc; stroke-linecap: round"/>
     </g>
     <g id="text_3">
      <!-- 1000 -->
      <g style="fill: #262626" transform="translate(454.928742 399.873594) scale(0.11 -0.11)">
       <defs>
        <path id="ArialMT-31" d="M 2384 0 
L 1822 0 
L 1822 3584 
Q 1619 3391 1289 3197 
Q 959 3003 697 2906 
L 697 3450 
Q 1169 3672 1522 3987 
Q 1875 4303 2022 4600 
L 2384 4600 
L 2384 0 
z
" transform="scale(0.015625)"/>
       </defs>
       <use xlink:href="#ArialMT-31"/>
       <use xlink:href="#ArialMT-30" x="55.615234"/>
       <use xlink:href="#ArialMT-30" x="111.230469"/>
       <use xlink:href="#ArialMT-30" x="166.845703"/>
      </g>
     </g>
    </g>
    <g id="xtick_4">
     <g id="line2d_4">
      <path d="M 618.034206 382.5 
L 618.034206 35.52 
" clip-path="url(#p6a4882ffcf)" style="fill: none; stroke: #cccccc; stroke-linecap: round"/>
     </g>
     <g id="text_4">
      <!-- 1500 -->
      <g style="fill: #262626" transform="translate(605.800144 399.873594) scale(0.11 -0.11)">
       <use xlink:href="#ArialMT-31"/>
       <use xlink:href="#ArialMT-35" x="55.615234"/>
       <use xlink:href="#ArialMT-30" x="111.230469"/>
       <use xlink:href="#ArialMT-30" x="166.845703"/>
      </g>
     </g>
    </g>
    <g id="xtick_5">
     <g id="line2d_5">
      <path d="M 768.905609 382.5 
L 768.905609 35.52 
" clip-path="url(#p6a4882ffcf)" style="fill: none; stroke: #cccccc; stroke-linecap: round"/>
     </g>
     <g id="text_5">
      <!-- 2000 -->
      <g style="fill: #262626" transform="translate(756.671546 399.873594) scale(0.11 -0.11)">
       <defs>
        <path id="ArialMT-32" d="M 3222 541 
L 3222 0 
L 194 0 
Q 188 203 259 391 
Q 375 700 629 1000 
Q 884 1300 1366 1694 
Q 2113 2306 2375 2664 
Q 2638 3022 2638 3341 
Q 2638 3675 2398 3904 
Q 2159 4134 1775 4134 
Q 1369 4134 1125 3890 
Q 881 3647 878 3216 
L 300 3275 
Q 359 3922 746 4261 
Q 1134 4600 1788 4600 
Q 2447 4600 2831 4234 
Q 3216 3869 3216 3328 
Q 3216 3053 3103 2787 
Q 2991 2522 2730 2228 
Q 2469 1934 1863 1422 
Q 1356 997 1212 845 
Q 1069 694 975 541 
L 3222 541 
z
" transform="scale(0.015625)"/>
       </defs>
       <use xlink:href="#ArialMT-32"/>
       <use xlink:href="#ArialMT-30" x="55.615234"/>
       <use xlink:href="#ArialMT-30" x="111.230469"/>
       <use xlink:href="#ArialMT-30" x="166.845703"/>
      </g>
     </g>
    </g>
    <g id="text_6">
     <!-- Frequency -->
     <g style="fill: #262626" transform="translate(475.160469 416.080781) scale(0.14 -0.14)">
      <defs>
       <path id="ArialMT-46" d="M 525 0 
L 525 4581 
L 3616 4581 
L 3616 4041 
L 1131 4041 
L 1131 2622 
L 3281 2622 
L 3281 2081 
L 1131 2081 
L 1131 0 
L 525 0 
z
" transform="scale(0.015625)"/>
       <path id="ArialMT-72" d="M 416 0 
L 416 3319 
L 922 3319 
L 922 2816 
Q 1116 3169 1280 3281 
Q 1444 3394 1641 3394 
Q 1925 3394 2219 3213 
L 2025 2691 
Q 1819 2813 1613 2813 
Q 1428 2813 1281 2702 
Q 1134 2591 1072 2394 
Q 978 2094 978 1738 
L 978 0 
L 416 0 
z
" transform="scale(0.015625)"/>
       <path id="ArialMT-65" d="M 2694 1069 
L 3275 997 
Q 3138 488 2766 206 
Q 2394 -75 1816 -75 
Q 1088 -75 661 373 
Q 234 822 234 1631 
Q 234 2469 665 2931 
Q 1097 3394 1784 3394 
Q 2450 3394 2872 2941 
Q 3294 2488 3294 1666 
Q 3294 1616 3291 1516 
L 816 1516 
Q 847 969 1125 678 
Q 1403 388 1819 388 
Q 2128 388 2347 550 
Q 2566 713 2694 1069 
z
M 847 1978 
L 2700 1978 
Q 2663 2397 2488 2606 
Q 2219 2931 1791 2931 
Q 1403 2931 1139 2672 
Q 875 2413 847 1978 
z
" transform="scale(0.015625)"/>
       <path id="ArialMT-71" d="M 2538 -1272 
L 2538 353 
Q 2406 169 2170 47 
Q 1934 -75 1669 -75 
Q 1078 -75 651 397 
Q 225 869 225 1691 
Q 225 2191 398 2587 
Q 572 2984 901 3189 
Q 1231 3394 1625 3394 
Q 2241 3394 2594 2875 
L 2594 3319 
L 3100 3319 
L 3100 -1272 
L 2538 -1272 
z
M 803 1669 
Q 803 1028 1072 708 
Q 1341 388 1716 388 
Q 2075 388 2334 692 
Q 2594 997 2594 1619 
Q 2594 2281 2320 2615 
Q 2047 2950 1678 2950 
Q 1313 2950 1058 2639 
Q 803 2328 803 1669 
z
" transform="scale(0.015625)"/>
       <path id="ArialMT-75" d="M 2597 0 
L 2597 488 
Q 2209 -75 1544 -75 
Q 1250 -75 995 37 
Q 741 150 617 320 
Q 494 491 444 738 
Q 409 903 409 1263 
L 409 3319 
L 972 3319 
L 972 1478 
Q 972 1038 1006 884 
Q 1059 663 1231 536 
Q 1403 409 1656 409 
Q 1909 409 2131 539 
Q 2353 669 2445 892 
Q 2538 1116 2538 1541 
L 2538 3319 
L 3100 3319 
L 3100 0 
L 2597 0 
z
" transform="scale(0.015625)"/>
       <path id="ArialMT-6e" d="M 422 0 
L 422 3319 
L 928 3319 
L 928 2847 
Q 1294 3394 1984 3394 
Q 2284 3394 2536 3286 
Q 2788 3178 2913 3003 
Q 3038 2828 3088 2588 
Q 3119 2431 3119 2041 
L 3119 0 
L 2556 0 
L 2556 2019 
Q 2556 2363 2490 2533 
Q 2425 2703 2258 2804 
Q 2091 2906 1866 2906 
Q 1506 2906 1245 2678 
Q 984 2450 984 1813 
L 984 0 
L 422 0 
z
" transform="scale(0.015625)"/>
       <path id="ArialMT-63" d="M 2588 1216 
L 3141 1144 
Q 3050 572 2676 248 
Q 2303 -75 1759 -75 
Q 1078 -75 664 370 
Q 250 816 250 1647 
Q 250 2184 428 2587 
Q 606 2991 970 3192 
Q 1334 3394 1763 3394 
Q 2303 3394 2647 3120 
Q 2991 2847 3088 2344 
L 2541 2259 
Q 2463 2594 2264 2762 
Q 2066 2931 1784 2931 
Q 1359 2931 1093 2626 
Q 828 2322 828 1663 
Q 828 994 1084 691 
Q 1341 388 1753 388 
Q 2084 388 2306 591 
Q 2528 794 2588 1216 
z
" transform="scale(0.015625)"/>
       <path id="ArialMT-79" d="M 397 -1278 
L 334 -750 
Q 519 -800 656 -800 
Q 844 -800 956 -737 
Q 1069 -675 1141 -563 
Q 1194 -478 1313 -144 
Q 1328 -97 1363 -6 
L 103 3319 
L 709 3319 
L 1400 1397 
Q 1534 1031 1641 628 
Q 1738 1016 1872 1384 
L 2581 3319 
L 3144 3319 
L 1881 -56 
Q 1678 -603 1566 -809 
Q 1416 -1088 1222 -1217 
Q 1028 -1347 759 -1347 
Q 597 -1347 397 -1278 
z
" transform="scale(0.015625)"/>
      </defs>
      <use xlink:href="#ArialMT-46"/>
      <use xlink:href="#ArialMT-72" x="61.083984"/>
      <use xlink:href="#ArialMT-65" x="94.384766"/>
      <use xlink:href="#ArialMT-71" x="150"/>
      <use xlink:href="#ArialMT-75" x="205.615234"/>
      <use xlink:href="#ArialMT-65" x="261.230469"/>
      <use xlink:href="#ArialMT-6e" x="316.845703"/>
      <use xlink:href="#ArialMT-63" x="372.460938"/>
      <use xlink:href="#ArialMT-79" x="422.460938"/>
     </g>
    </g>
   </g>
   <g id="matplotlib.axis_2">
    <g id="ytick_1">
     <g id="text_7">
      <!-- MN-1158-2024-7-5-DUB -->
      <g style="fill: #262626" transform="translate(36.915469 56.805797) scale(0.11 -0.11)">
       <defs>
        <path id="ArialMT-4d" d="M 475 0 
L 475 4581 
L 1388 4581 
L 2472 1338 
Q 2622 884 2691 659 
Q 2769 909 2934 1394 
L 4031 4581 
L 4847 4581 
L 4847 0 
L 4263 0 
L 4263 3834 
L 2931 0 
L 2384 0 
L 1059 3900 
L 1059 0 
L 475 0 
z
" transform="scale(0.015625)"/>
        <path id="ArialMT-4e" d="M 488 0 
L 488 4581 
L 1109 4581 
L 3516 984 
L 3516 4581 
L 4097 4581 
L 4097 0 
L 3475 0 
L 1069 3600 
L 1069 0 
L 488 0 
z
" transform="scale(0.015625)"/>
        <path id="ArialMT-2d" d="M 203 1375 
L 203 1941 
L 1931 1941 
L 1931 1375 
L 203 1375 
z
" transform="scale(0.015625)"/>
        <path id="ArialMT-38" d="M 1131 2484 
Q 781 2613 612 2850 
Q 444 3088 444 3419 
Q 444 3919 803 4259 
Q 1163 4600 1759 4600 
Q 2359 4600 2725 4251 
Q 3091 3903 3091 3403 
Q 3091 3084 2923 2848 
Q 2756 2613 2416 2484 
Q 2838 2347 3058 2040 
Q 3278 1734 3278 1309 
Q 3278 722 2862 322 
Q 2447 -78 1769 -78 
Q 1091 -78 675 323 
Q 259 725 259 1325 
Q 259 1772 486 2073 
Q 713 2375 1131 2484 
z
M 1019 3438 
Q 1019 3113 1228 2906 
Q 1438 2700 1772 2700 
Q 2097 2700 2305 2904 
Q 2513 3109 2513 3406 
Q 2513 3716 2298 3927 
Q 2084 4138 1766 4138 
Q 1444 4138 1231 3931 
Q 1019 3725 1019 3438 
z
M 838 1322 
Q 838 1081 952 856 
Q 1066 631 1291 507 
Q 1516 384 1775 384 
Q 2178 384 2440 643 
Q 2703 903 2703 1303 
Q 2703 1709 2433 1975 
Q 2163 2241 1756 2241 
Q 1359 2241 1098 1978 
Q 838 1716 838 1322 
z
" transform="scale(0.015625)"/>
        <path id="ArialMT-34" d="M 2069 0 
L 2069 1097 
L 81 1097 
L 81 1613 
L 2172 4581 
L 2631 4581 
L 2631 1613 
L 3250 1613 
L 3250 1097 
L 2631 1097 
L 2631 0 
L 2069 0 
z
M 2069 1613 
L 2069 3678 
L 634 1613 
L 2069 1613 
z
" transform="scale(0.015625)"/>
        <path id="ArialMT-37" d="M 303 3981 
L 303 4522 
L 3269 4522 
L 3269 4084 
Q 2831 3619 2401 2847 
Q 1972 2075 1738 1259 
Q 1569 684 1522 0 
L 944 0 
Q 953 541 1156 1306 
Q 1359 2072 1739 2783 
Q 2119 3494 2547 3981 
L 303 3981 
z
" transform="scale(0.015625)"/>
        <path id="ArialMT-44" d="M 494 0 
L 494 4581 
L 2072 4581 
Q 2606 4581 2888 4516 
Q 3281 4425 3559 4188 
Q 3922 3881 4101 3404 
Q 4281 2928 4281 2316 
Q 4281 1794 4159 1391 
Q 4038 988 3847 723 
Q 3656 459 3429 307 
Q 3203 156 2883 78 
Q 2563 0 2147 0 
L 494 0 
z
M 1100 541 
L 2078 541 
Q 2531 541 2789 625 
Q 3047 709 3200 863 
Q 3416 1078 3536 1442 
Q 3656 1806 3656 2325 
Q 3656 3044 3420 3430 
Q 3184 3816 2847 3947 
Q 2603 4041 2063 4041 
L 1100 4041 
L 1100 541 
z
" transform="scale(0.015625)"/>
        <path id="ArialMT-55" d="M 3500 4581 
L 4106 4581 
L 4106 1934 
Q 4106 1244 3950 837 
Q 3794 431 3386 176 
Q 2978 -78 2316 -78 
Q 1672 -78 1262 144 
Q 853 366 678 786 
Q 503 1206 503 1934 
L 503 4581 
L 1109 4581 
L 1109 1938 
Q 1109 1341 1220 1058 
Q 1331 775 1601 622 
Q 1872 469 2263 469 
Q 2931 469 3215 772 
Q 3500 1075 3500 1938 
L 3500 4581 
z
" transform="scale(0.015625)"/>
        <path id="ArialMT-42" d="M 469 0 
L 469 4581 
L 2188 4581 
Q 2713 4581 3030 4442 
Q 3347 4303 3526 4014 
Q 3706 3725 3706 3409 
Q 3706 3116 3547 2856 
Q 3388 2597 3066 2438 
Q 3481 2316 3704 2022 
Q 3928 1728 3928 1328 
Q 3928 1006 3792 729 
Q 3656 453 3456 303 
Q 3256 153 2954 76 
Q 2653 0 2216 0 
L 469 0 
z
M 1075 2656 
L 2066 2656 
Q 2469 2656 2644 2709 
Q 2875 2778 2992 2937 
Q 3109 3097 3109 3338 
Q 3109 3566 3000 3739 
Q 2891 3913 2687 3977 
Q 2484 4041 1991 4041 
L 1075 4041 
L 1075 2656 
z
M 1075 541 
L 2216 541 
Q 2509 541 2628 563 
Q 2838 600 2978 687 
Q 3119 775 3209 942 
Q 3300 1109 3300 1328 
Q 3300 1584 3169 1773 
Q 3038 1963 2805 2039 
Q 2572 2116 2134 2116 
L 1075 2116 
L 1075 541 
z
" transform="scale(0.015625)"/>
       </defs>
       <use xlink:href="#ArialMT-4d"/>
       <use xlink:href="#ArialMT-4e" x="83.300781"/>
       <use xlink:href="#ArialMT-2d" x="155.517578"/>
       <use xlink:href="#ArialMT-31" x="188.818359"/>
       <use xlink:href="#ArialMT-31" x="237.058594"/>
       <use xlink:href="#ArialMT-35" x="292.673828"/>
       <use xlink:href="#ArialMT-38" x="348.289062"/>
       <use xlink:href="#ArialMT-2d" x="403.904297"/>
       <use xlink:href="#ArialMT-32" x="437.205078"/>
       <use xlink:href="#ArialMT-30" x="492.820312"/>
       <use xlink:href="#ArialMT-32" x="548.435547"/>
       <use xlink:href="#ArialMT-34" x="604.050781"/>
       <use xlink:href="#ArialMT-2d" x="659.666016"/>
       <use xlink:href="#ArialMT-37" x="692.966797"/>
       <use xlink:href="#ArialMT-2d" x="748.582031"/>
       <use xlink:href="#ArialMT-35" x="781.882812"/>
       <use xlink:href="#ArialMT-2d" x="837.498047"/>
       <use xlink:href="#ArialMT-44" x="870.798828"/>
       <use xlink:href="#ArialMT-55" x="943.015625"/>
       <use xlink:href="#ArialMT-42" x="1015.232422"/>
      </g>
     </g>
    </g>
    <g id="ytick_2">
     <g id="text_8">
      <!-- MN-1342-2024-1-5-DUB -->
      <g style="fill: #262626" transform="translate(36.104219 91.503797) scale(0.11 -0.11)">
       <defs>
        <path id="ArialMT-33" d="M 269 1209 
L 831 1284 
Q 928 806 1161 595 
Q 1394 384 1728 384 
Q 2125 384 2398 659 
Q 2672 934 2672 1341 
Q 2672 1728 2419 1979 
Q 2166 2231 1775 2231 
Q 1616 2231 1378 2169 
L 1441 2663 
Q 1497 2656 1531 2656 
Q 1891 2656 2178 2843 
Q 2466 3031 2466 3422 
Q 2466 3731 2256 3934 
Q 2047 4138 1716 4138 
Q 1388 4138 1169 3931 
Q 950 3725 888 3313 
L 325 3413 
Q 428 3978 793 4289 
Q 1159 4600 1703 4600 
Q 2078 4600 2393 4439 
Q 2709 4278 2876 4000 
Q 3044 3722 3044 3409 
Q 3044 3113 2884 2869 
Q 2725 2625 2413 2481 
Q 2819 2388 3044 2092 
Q 3269 1797 3269 1353 
Q 3269 753 2831 336 
Q 2394 -81 1725 -81 
Q 1122 -81 723 278 
Q 325 638 269 1209 
z
" transform="scale(0.015625)"/>
       </defs>
       <use xlink:href="#ArialMT-4d"/>
       <use xlink:href="#ArialMT-4e" x="83.300781"/>
       <use xlink:href="#ArialMT-2d" x="155.517578"/>
       <use xlink:href="#ArialMT-31" x="188.818359"/>
       <use xlink:href="#ArialMT-33" x="244.433594"/>
       <use xlink:href="#ArialMT-34" x="300.048828"/>
       <use xlink:href="#ArialMT-32" x="355.664062"/>
       <use xlink:href="#ArialMT-2d" x="411.279297"/>
       <use xlink:href="#ArialMT-32" x="444.580078"/>
       <use xlink:href="#ArialMT-30" x="500.195312"/>
       <use xlink:href="#ArialMT-32" x="555.810547"/>
       <use xlink:href="#ArialMT-34" x="611.425781"/>
       <use xlink:href="#ArialMT-2d" x="667.041016"/>
       <use xlink:href="#ArialMT-31" x="700.341797"/>
       <use xlink:href="#ArialMT-2d" x="755.957031"/>
       <use xlink:href="#ArialMT-35" x="789.257812"/>
       <use xlink:href="#ArialMT-2d" x="844.873047"/>
       <use xlink:href="#ArialMT-44" x="878.173828"/>
       <use xlink:href="#ArialMT-55" x="950.390625"/>
       <use xlink:href="#ArialMT-42" x="1022.607422"/>
      </g>
     </g>
    </g>
    <g id="ytick_3">
     <g id="text_9">
      <!-- MN-1053-2024-5-5-DUB -->
      <g style="fill: #262626" transform="translate(36.104219 126.201797) scale(0.11 -0.11)">
       <use xlink:href="#ArialMT-4d"/>
       <use xlink:href="#ArialMT-4e" x="83.300781"/>
       <use xlink:href="#ArialMT-2d" x="155.517578"/>
       <use xlink:href="#ArialMT-31" x="188.818359"/>
       <use xlink:href="#ArialMT-30" x="244.433594"/>
       <use xlink:href="#ArialMT-35" x="300.048828"/>
       <use xlink:href="#ArialMT-33" x="355.664062"/>
       <use xlink:href="#ArialMT-2d" x="411.279297"/>
       <use xlink:href="#ArialMT-32" x="444.580078"/>
       <use xlink:href="#ArialMT-30" x="500.195312"/>
       <use xlink:href="#ArialMT-32" x="555.810547"/>
       <use xlink:href="#ArialMT-34" x="611.425781"/>
       <use xlink:href="#ArialMT-2d" x="667.041016"/>
       <use xlink:href="#ArialMT-35" x="700.341797"/>
       <use xlink:href="#ArialMT-2d" x="755.957031"/>
       <use xlink:href="#ArialMT-35" x="789.257812"/>
       <use xlink:href="#ArialMT-2d" x="844.873047"/>
       <use xlink:href="#ArialMT-44" x="878.173828"/>
       <use xlink:href="#ArialMT-55" x="950.390625"/>
       <use xlink:href="#ArialMT-42" x="1022.607422"/>
      </g>
     </g>
    </g>
    <g id="ytick_4">
     <g id="text_10">
      <!-- MN-1122-2024-1-5-ORD -->
      <g style="fill: #262626" transform="translate(35.696875 160.899797) scale(0.11 -0.11)">
       <defs>
        <path id="ArialMT-4f" d="M 309 2231 
Q 309 3372 921 4017 
Q 1534 4663 2503 4663 
Q 3138 4663 3647 4359 
Q 4156 4056 4423 3514 
Q 4691 2972 4691 2284 
Q 4691 1588 4409 1038 
Q 4128 488 3612 205 
Q 3097 -78 2500 -78 
Q 1853 -78 1343 234 
Q 834 547 571 1087 
Q 309 1628 309 2231 
z
M 934 2222 
Q 934 1394 1379 917 
Q 1825 441 2497 441 
Q 3181 441 3623 922 
Q 4066 1403 4066 2288 
Q 4066 2847 3877 3264 
Q 3688 3681 3323 3911 
Q 2959 4141 2506 4141 
Q 1863 4141 1398 3698 
Q 934 3256 934 2222 
z
" transform="scale(0.015625)"/>
        <path id="ArialMT-52" d="M 503 0 
L 503 4581 
L 2534 4581 
Q 3147 4581 3465 4457 
Q 3784 4334 3975 4021 
Q 4166 3709 4166 3331 
Q 4166 2844 3850 2509 
Q 3534 2175 2875 2084 
Q 3116 1969 3241 1856 
Q 3506 1613 3744 1247 
L 4541 0 
L 3778 0 
L 3172 953 
Q 2906 1366 2734 1584 
Q 2563 1803 2427 1890 
Q 2291 1978 2150 2013 
Q 2047 2034 1813 2034 
L 1109 2034 
L 1109 0 
L 503 0 
z
M 1109 2559 
L 2413 2559 
Q 2828 2559 3062 2645 
Q 3297 2731 3419 2920 
Q 3541 3109 3541 3331 
Q 3541 3656 3305 3865 
Q 3069 4075 2559 4075 
L 1109 4075 
L 1109 2559 
z
" transform="scale(0.015625)"/>
       </defs>
       <use xlink:href="#ArialMT-4d"/>
       <use xlink:href="#ArialMT-4e" x="83.300781"/>
       <use xlink:href="#ArialMT-2d" x="155.517578"/>
       <use xlink:href="#ArialMT-31" x="188.818359"/>
       <use xlink:href="#ArialMT-31" x="237.058594"/>
       <use xlink:href="#ArialMT-32" x="292.673828"/>
       <use xlink:href="#ArialMT-32" x="348.289062"/>
       <use xlink:href="#ArialMT-2d" x="403.904297"/>
       <use xlink:href="#ArialMT-32" x="437.205078"/>
       <use xlink:href="#ArialMT-30" x="492.820312"/>
       <use xlink:href="#ArialMT-32" x="548.435547"/>
       <use xlink:href="#ArialMT-34" x="604.050781"/>
       <use xlink:href="#ArialMT-2d" x="659.666016"/>
       <use xlink:href="#ArialMT-31" x="692.966797"/>
       <use xlink:href="#ArialMT-2d" x="748.582031"/>
       <use xlink:href="#ArialMT-35" x="781.882812"/>
       <use xlink:href="#ArialMT-2d" x="837.498047"/>
       <use xlink:href="#ArialMT-4f" x="870.798828"/>
       <use xlink:href="#ArialMT-52" x="948.582031"/>
       <use xlink:href="#ArialMT-44" x="1020.798828"/>
      </g>
     </g>
    </g>
    <g id="ytick_5">
     <g id="text_11">
      <!-- MN-1528-2024-6-5-DUB -->
      <g style="fill: #262626" transform="translate(36.104219 195.597797) scale(0.11 -0.11)">
       <defs>
        <path id="ArialMT-36" d="M 3184 3459 
L 2625 3416 
Q 2550 3747 2413 3897 
Q 2184 4138 1850 4138 
Q 1581 4138 1378 3988 
Q 1113 3794 959 3422 
Q 806 3050 800 2363 
Q 1003 2672 1297 2822 
Q 1591 2972 1913 2972 
Q 2475 2972 2870 2558 
Q 3266 2144 3266 1488 
Q 3266 1056 3080 686 
Q 2894 316 2569 119 
Q 2244 -78 1831 -78 
Q 1128 -78 684 439 
Q 241 956 241 2144 
Q 241 3472 731 4075 
Q 1159 4600 1884 4600 
Q 2425 4600 2770 4297 
Q 3116 3994 3184 3459 
z
M 888 1484 
Q 888 1194 1011 928 
Q 1134 663 1356 523 
Q 1578 384 1822 384 
Q 2178 384 2434 671 
Q 2691 959 2691 1453 
Q 2691 1928 2437 2201 
Q 2184 2475 1800 2475 
Q 1419 2475 1153 2201 
Q 888 1928 888 1484 
z
" transform="scale(0.015625)"/>
       </defs>
       <use xlink:href="#ArialMT-4d"/>
       <use xlink:href="#ArialMT-4e" x="83.300781"/>
       <use xlink:href="#ArialMT-2d" x="155.517578"/>
       <use xlink:href="#ArialMT-31" x="188.818359"/>
       <use xlink:href="#ArialMT-35" x="244.433594"/>
       <use xlink:href="#ArialMT-32" x="300.048828"/>
       <use xlink:href="#ArialMT-38" x="355.664062"/>
       <use xlink:href="#ArialMT-2d" x="411.279297"/>
       <use xlink:href="#ArialMT-32" x="444.580078"/>
       <use xlink:href="#ArialMT-30" x="500.195312"/>
       <use xlink:href="#ArialMT-32" x="555.810547"/>
       <use xlink:href="#ArialMT-34" x="611.425781"/>
       <use xlink:href="#ArialMT-2d" x="667.041016"/>
       <use xlink:href="#ArialMT-36" x="700.341797"/>
       <use xlink:href="#ArialMT-2d" x="755.957031"/>
       <use xlink:href="#ArialMT-35" x="789.257812"/>
       <use xlink:href="#ArialMT-2d" x="844.873047"/>
       <use xlink:href="#ArialMT-44" x="878.173828"/>
       <use xlink:href="#ArialMT-55" x="950.390625"/>
       <use xlink:href="#ArialMT-42" x="1022.607422"/>
      </g>
     </g>
    </g>
    <g id="ytick_6">
     <g id="text_12">
      <!-- MN-1061-2024-2-5-DUB -->
      <g style="fill: #262626" transform="translate(36.104219 230.295797) scale(0.11 -0.11)">
       <use xlink:href="#ArialMT-4d"/>
       <use xlink:href="#ArialMT-4e" x="83.300781"/>
       <use xlink:href="#ArialMT-2d" x="155.517578"/>
       <use xlink:href="#ArialMT-31" x="188.818359"/>
       <use xlink:href="#ArialMT-30" x="244.433594"/>
       <use xlink:href="#ArialMT-36" x="300.048828"/>
       <use xlink:href="#ArialMT-31" x="355.664062"/>
       <use xlink:href="#ArialMT-2d" x="411.279297"/>
       <use xlink:href="#ArialMT-32" x="444.580078"/>
       <use xlink:href="#ArialMT-30" x="500.195312"/>
       <use xlink:href="#ArialMT-32" x="555.810547"/>
       <use xlink:href="#ArialMT-34" x="611.425781"/>
       <use xlink:href="#ArialMT-2d" x="667.041016"/>
       <use xlink:href="#ArialMT-32" x="700.341797"/>
       <use xlink:href="#ArialMT-2d" x="755.957031"/>
       <use xlink:href="#ArialMT-35" x="789.257812"/>
       <use xlink:href="#ArialMT-2d" x="844.873047"/>
       <use xlink:href="#ArialMT-44" x="878.173828"/>
       <use xlink:href="#ArialMT-55" x="950.390625"/>
       <use xlink:href="#ArialMT-42" x="1022.607422"/>
      </g>
     </g>
    </g>
    <g id="ytick_7">
     <g id="text_13">
      <!-- MN-1496-2024-5-5-DUB -->
      <g style="fill: #262626" transform="translate(36.104219 264.993797) scale(0.11 -0.11)">
       <defs>
        <path id="ArialMT-39" d="M 350 1059 
L 891 1109 
Q 959 728 1153 556 
Q 1347 384 1650 384 
Q 1909 384 2104 503 
Q 2300 622 2425 820 
Q 2550 1019 2634 1356 
Q 2719 1694 2719 2044 
Q 2719 2081 2716 2156 
Q 2547 1888 2255 1720 
Q 1963 1553 1622 1553 
Q 1053 1553 659 1965 
Q 266 2378 266 3053 
Q 266 3750 677 4175 
Q 1088 4600 1706 4600 
Q 2153 4600 2523 4359 
Q 2894 4119 3086 3673 
Q 3278 3228 3278 2384 
Q 3278 1506 3087 986 
Q 2897 466 2520 194 
Q 2144 -78 1638 -78 
Q 1100 -78 759 220 
Q 419 519 350 1059 
z
M 2653 3081 
Q 2653 3566 2395 3850 
Q 2138 4134 1775 4134 
Q 1400 4134 1122 3828 
Q 844 3522 844 3034 
Q 844 2597 1108 2323 
Q 1372 2050 1759 2050 
Q 2150 2050 2401 2323 
Q 2653 2597 2653 3081 
z
" transform="scale(0.015625)"/>
       </defs>
       <use xlink:href="#ArialMT-4d"/>
       <use xlink:href="#ArialMT-4e" x="83.300781"/>
       <use xlink:href="#ArialMT-2d" x="155.517578"/>
       <use xlink:href="#ArialMT-31" x="188.818359"/>
       <use xlink:href="#ArialMT-34" x="244.433594"/>
       <use xlink:href="#ArialMT-39" x="300.048828"/>
       <use xlink:href="#ArialMT-36" x="355.664062"/>
       <use xlink:href="#ArialMT-2d" x="411.279297"/>
       <use xlink:href="#ArialMT-32" x="444.580078"/>
       <use xlink:href="#ArialMT-30" x="500.195312"/>
       <use xlink:href="#ArialMT-32" x="555.810547"/>
       <use xlink:href="#ArialMT-34" x="611.425781"/>
       <use xlink:href="#ArialMT-2d" x="667.041016"/>
       <use xlink:href="#ArialMT-35" x="700.341797"/>
       <use xlink:href="#ArialMT-2d" x="755.957031"/>
       <use xlink:href="#ArialMT-35" x="789.257812"/>
       <use xlink:href="#ArialMT-2d" x="844.873047"/>
       <use xlink:href="#ArialMT-44" x="878.173828"/>
       <use xlink:href="#ArialMT-55" x="950.390625"/>
       <use xlink:href="#ArialMT-42" x="1022.607422"/>
      </g>
     </g>
    </g>
    <g id="ytick_8">
     <g id="text_14">
      <!-- MN-1158-2024-2-5-DUB -->
      <g style="fill: #262626" transform="translate(36.915469 299.691797) scale(0.11 -0.11)">
       <use xlink:href="#ArialMT-4d"/>
       <use xlink:href="#ArialMT-4e" x="83.300781"/>
       <use xlink:href="#ArialMT-2d" x="155.517578"/>
       <use xlink:href="#ArialMT-31" x="188.818359"/>
       <use xlink:href="#ArialMT-31" x="237.058594"/>
       <use xlink:href="#ArialMT-35" x="292.673828"/>
       <use xlink:href="#ArialMT-38" x="348.289062"/>
       <use xlink:href="#ArialMT-2d" x="403.904297"/>
       <use xlink:href="#ArialMT-32" x="437.205078"/>
       <use xlink:href="#ArialMT-30" x="492.820312"/>
       <use xlink:href="#ArialMT-32" x="548.435547"/>
       <use xlink:href="#ArialMT-34" x="604.050781"/>
       <use xlink:href="#ArialMT-2d" x="659.666016"/>
       <use xlink:href="#ArialMT-32" x="692.966797"/>
       <use xlink:href="#ArialMT-2d" x="748.582031"/>
       <use xlink:href="#ArialMT-35" x="781.882812"/>
       <use xlink:href="#ArialMT-2d" x="837.498047"/>
       <use xlink:href="#ArialMT-44" x="870.798828"/>
       <use xlink:href="#ArialMT-55" x="943.015625"/>
       <use xlink:href="#ArialMT-42" x="1015.232422"/>
      </g>
     </g>
    </g>
    <g id="ytick_9">
     <g id="text_15">
      <!-- MN-1656-2024-30-4-DUB -->
      <g style="fill: #262626" transform="translate(29.987188 334.389797) scale(0.11 -0.11)">
       <use xlink:href="#ArialMT-4d"/>
       <use xlink:href="#ArialMT-4e" x="83.300781"/>
       <use xlink:href="#ArialMT-2d" x="155.517578"/>
       <use xlink:href="#ArialMT-31" x="188.818359"/>
       <use xlink:href="#ArialMT-36" x="244.433594"/>
       <use xlink:href="#ArialMT-35" x="300.048828"/>
       <use xlink:href="#ArialMT-36" x="355.664062"/>
       <use xlink:href="#ArialMT-2d" x="411.279297"/>
       <use xlink:href="#ArialMT-32" x="444.580078"/>
       <use xlink:href="#ArialMT-30" x="500.195312"/>
       <use xlink:href="#ArialMT-32" x="555.810547"/>
       <use xlink:href="#ArialMT-34" x="611.425781"/>
       <use xlink:href="#ArialMT-2d" x="667.041016"/>
       <use xlink:href="#ArialMT-33" x="700.341797"/>
       <use xlink:href="#ArialMT-30" x="755.957031"/>
       <use xlink:href="#ArialMT-2d" x="811.572266"/>
       <use xlink:href="#ArialMT-34" x="844.873047"/>
       <use xlink:href="#ArialMT-2d" x="900.488281"/>
       <use xlink:href="#ArialMT-44" x="933.789062"/>
       <use xlink:href="#ArialMT-55" x="1006.005859"/>
       <use xlink:href="#ArialMT-42" x="1078.222656"/>
      </g>
     </g>
    </g>
    <g id="ytick_10">
     <g id="text_16">
      <!-- MN-1158-2024-6-5-DUB -->
      <g style="fill: #262626" transform="translate(36.915469 369.087797) scale(0.11 -0.11)">
       <use xlink:href="#ArialMT-4d"/>
       <use xlink:href="#ArialMT-4e" x="83.300781"/>
       <use xlink:href="#ArialMT-2d" x="155.517578"/>
       <use xlink:href="#ArialMT-31" x="188.818359"/>
       <use xlink:href="#ArialMT-31" x="237.058594"/>
       <use xlink:href="#ArialMT-35" x="292.673828"/>
       <use xlink:href="#ArialMT-38" x="348.289062"/>
       <use xlink:href="#ArialMT-2d" x="403.904297"/>
       <use xlink:href="#ArialMT-32" x="437.205078"/>
       <use xlink:href="#ArialMT-30" x="492.820312"/>
       <use xlink:href="#ArialMT-32" x="548.435547"/>
       <use xlink:href="#ArialMT-34" x="604.050781"/>
       <use xlink:href="#ArialMT-2d" x="659.666016"/>
       <use xlink:href="#ArialMT-36" x="692.966797"/>
       <use xlink:href="#ArialMT-2d" x="748.582031"/>
       <use xlink:href="#ArialMT-35" x="781.882812"/>
       <use xlink:href="#ArialMT-2d" x="837.498047"/>
       <use xlink:href="#ArialMT-44" x="870.798828"/>
       <use xlink:href="#ArialMT-55" x="943.015625"/>
       <use xlink:href="#ArialMT-42" x="1015.232422"/>
      </g>
     </g>
    </g>
    <g id="text_17">
     <!-- Flight ID -->
     <g style="fill: #262626" transform="translate(23.040625 235.070781) rotate(-90) scale(0.14 -0.14)">
      <defs>
       <path id="ArialMT-6c" d="M 409 0 
L 409 4581 
L 972 4581 
L 972 0 
L 409 0 
z
" transform="scale(0.015625)"/>
       <path id="ArialMT-69" d="M 425 3934 
L 425 4581 
L 988 4581 
L 988 3934 
L 425 3934 
z
M 425 0 
L 425 3319 
L 988 3319 
L 988 0 
L 425 0 
z
" transform="scale(0.015625)"/>
       <path id="ArialMT-67" d="M 319 -275 
L 866 -356 
Q 900 -609 1056 -725 
Q 1266 -881 1628 -881 
Q 2019 -881 2231 -725 
Q 2444 -569 2519 -288 
Q 2563 -116 2559 434 
Q 2191 0 1641 0 
Q 956 0 581 494 
Q 206 988 206 1678 
Q 206 2153 378 2554 
Q 550 2956 876 3175 
Q 1203 3394 1644 3394 
Q 2231 3394 2613 2919 
L 2613 3319 
L 3131 3319 
L 3131 450 
Q 3131 -325 2973 -648 
Q 2816 -972 2473 -1159 
Q 2131 -1347 1631 -1347 
Q 1038 -1347 672 -1080 
Q 306 -813 319 -275 
z
M 784 1719 
Q 784 1066 1043 766 
Q 1303 466 1694 466 
Q 2081 466 2343 764 
Q 2606 1063 2606 1700 
Q 2606 2309 2336 2618 
Q 2066 2928 1684 2928 
Q 1309 2928 1046 2623 
Q 784 2319 784 1719 
z
" transform="scale(0.015625)"/>
       <path id="ArialMT-68" d="M 422 0 
L 422 4581 
L 984 4581 
L 984 2938 
Q 1378 3394 1978 3394 
Q 2347 3394 2619 3248 
Q 2891 3103 3008 2847 
Q 3125 2591 3125 2103 
L 3125 0 
L 2563 0 
L 2563 2103 
Q 2563 2525 2380 2717 
Q 2197 2909 1863 2909 
Q 1613 2909 1392 2779 
Q 1172 2650 1078 2428 
Q 984 2206 984 1816 
L 984 0 
L 422 0 
z
" transform="scale(0.015625)"/>
       <path id="ArialMT-74" d="M 1650 503 
L 1731 6 
Q 1494 -44 1306 -44 
Q 1000 -44 831 53 
Q 663 150 594 308 
Q 525 466 525 972 
L 525 2881 
L 113 2881 
L 113 3319 
L 525 3319 
L 525 4141 
L 1084 4478 
L 1084 3319 
L 1650 3319 
L 1650 2881 
L 1084 2881 
L 1084 941 
Q 1084 700 1114 631 
Q 1144 563 1211 522 
Q 1278 481 1403 481 
Q 1497 481 1650 503 
z
" transform="scale(0.015625)"/>
       <path id="ArialMT-20" transform="scale(0.015625)"/>
       <path id="ArialMT-49" d="M 597 0 
L 597 4581 
L 1203 4581 
L 1203 0 
L 597 0 
z
" transform="scale(0.015625)"/>
      </defs>
      <use xlink:href="#ArialMT-46"/>
      <use xlink:href="#ArialMT-6c" x="61.083984"/>
      <use xlink:href="#ArialMT-69" x="83.300781"/>
      <use xlink:href="#ArialMT-67" x="105.517578"/>
      <use xlink:href="#ArialMT-68" x="161.132812"/>
      <use xlink:href="#ArialMT-74" x="216.748047"/>
      <use xlink:href="#ArialMT-20" x="244.53125"/>
      <use xlink:href="#ArialMT-49" x="272.314453"/>
      <use xlink:href="#ArialMT-44" x="300.097656"/>
     </g>
    </g>
   </g>
   <g id="patch_3">
    <path d="M 165.42 38.9898 
L 818.391429 38.9898 
L 818.391429 66.7482 
L 165.42 66.7482 
z
" clip-path="url(#p6a4882ffcf)" style="fill: #19497e; stroke: #ffffff; stroke-linejoin: miter"/>
   </g>
   <g id="patch_4">
    <path d="M 165.42 73.6878 
L 793.950261 73.6878 
L 793.950261 101.4462 
L 165.42 101.4462 
z
" clip-path="url(#p6a4882ffcf)" style="fill: #265f95; stroke: #ffffff; stroke-linejoin: miter"/>
   </g>
   <g id="patch_5">
    <path d="M 165.42 108.3858 
L 785.501463 108.3858 
L 785.501463 136.1442 
L 165.42 136.1442 
z
" clip-path="url(#p6a4882ffcf)" style="fill: #3975a6; stroke: #ffffff; stroke-linejoin: miter"/>
   </g>
   <g id="patch_6">
    <path d="M 165.42 143.0838 
L 768.302123 143.0838 
L 768.302123 170.8422 
L 165.42 170.8422 
z
" clip-path="url(#p6a4882ffcf)" style="fill: #508cb4; stroke: #ffffff; stroke-linejoin: miter"/>
   </g>
   <g id="patch_7">
    <path d="M 165.42 177.7818 
L 751.102783 177.7818 
L 751.102783 205.5402 
L 165.42 205.5402 
z
" clip-path="url(#p6a4882ffcf)" style="fill: #6ba0c2; stroke: #ffffff; stroke-linejoin: miter"/>
   </g>
   <g id="patch_8">
    <path d="M 165.42 212.4798 
L 746.576641 212.4798 
L 746.576641 240.2382 
L 165.42 240.2382 
z
" clip-path="url(#p6a4882ffcf)" style="fill: #89b5ce; stroke: #ffffff; stroke-linejoin: miter"/>
   </g>
   <g id="patch_9">
    <path d="M 165.42 247.1778 
L 741.748756 247.1778 
L 741.748756 274.9362 
L 165.42 274.9362 
z
" clip-path="url(#p6a4882ffcf)" style="fill: #a9c9da; stroke: #ffffff; stroke-linejoin: miter"/>
   </g>
   <g id="patch_10">
    <path d="M 165.42 281.8758 
L 739.334814 281.8758 
L 739.334814 309.6342 
L 165.42 309.6342 
z
" clip-path="url(#p6a4882ffcf)" style="fill: #c5d8e7; stroke: #ffffff; stroke-linejoin: miter"/>
   </g>
   <g id="patch_11">
    <path d="M 165.42 316.5738 
L 736.920871 316.5738 
L 736.920871 344.3322 
L 165.42 344.3322 
z
" clip-path="url(#p6a4882ffcf)" style="fill: #d7e4ef; stroke: #ffffff; stroke-linejoin: miter"/>
   </g>
   <g id="patch_12">
    <path d="M 165.42 351.2718 
L 734.808672 351.2718 
L 734.808672 379.0302 
L 165.42 379.0302 
z
" clip-path="url(#p6a4882ffcf)" style="fill: #e7eff7; stroke: #ffffff; stroke-linejoin: miter"/>
   </g>
   <g id="line2d_6">
    <path clip-path="url(#p6a4882ffcf)" style="fill: none; stroke: #424242; stroke-width: 2.25; stroke-linecap: round"/>
   </g>
   <g id="line2d_7">
    <path clip-path="url(#p6a4882ffcf)" style="fill: none; stroke: #424242; stroke-width: 2.25; stroke-linecap: round"/>
   </g>
   <g id="line2d_8">
    <path clip-path="url(#p6a4882ffcf)" style="fill: none; stroke: #424242; stroke-width: 2.25; stroke-linecap: round"/>
   </g>
   <g id="line2d_9">
    <path clip-path="url(#p6a4882ffcf)" style="fill: none; stroke: #424242; stroke-width: 2.25; stroke-linecap: round"/>
   </g>
   <g id="line2d_10">
    <path clip-path="url(#p6a4882ffcf)" style="fill: none; stroke: #424242; stroke-width: 2.25; stroke-linecap: round"/>
   </g>
   <g id="line2d_11">
    <path clip-path="url(#p6a4882ffcf)" style="fill: none; stroke: #424242; stroke-width: 2.25; stroke-linecap: round"/>
   </g>
   <g id="line2d_12">
    <path clip-path="url(#p6a4882ffcf)" style="fill: none; stroke: #424242; stroke-width: 2.25; stroke-linecap: round"/>
   </g>
   <g id="line2d_13">
    <path clip-path="url(#p6a4882ffcf)" style="fill: none; stroke: #424242; stroke-width: 2.25; stroke-linecap: round"/>
   </g>
   <g id="line2d_14">
    <path clip-path="url(#p6a4882ffcf)" style="fill: none; stroke: #424242; stroke-width: 2.25; stroke-linecap: round"/>
   </g>
   <g id="line2d_15">
    <path clip-path="url(#p6a4882ffcf)" style="fill: none; stroke: #424242; stroke-width: 2.25; stroke-linecap: round"/>
   </g>
   <g id="patch_13">
    <path d="M 165.42 382.5 
L 165.42 35.52 
" style="fill: none; stroke: #cccccc; stroke-width: 1.25; stroke-linejoin: miter; stroke-linecap: square"/>
   </g>
   <g id="patch_14">
    <path d="M 851.04 382.5 
L 851.04 35.52 
" style="fill: none; stroke: #cccccc; stroke-width: 1.25; stroke-linejoin: miter; stroke-linecap: square"/>
   </g>
   <g id="patch_15">
    <path d="M 165.42 382.5 
L 851.04 382.5 
" style="fill: none; stroke: #cccccc; stroke-width: 1.25; stroke-linejoin: miter; stroke-linecap: square"/>
   </g>
   <g id="patch_16">
    <path d="M 165.42 35.52 
L 851.04 35.52 
" style="fill: none; stroke: #cccccc; stroke-width: 1.25; stroke-linejoin: miter; stroke-linecap: square"/>
   </g>
   <g id="text_18">
    <!-- 2164 -->
    <g style="fill: #262626" transform="translate(818.391429 55.454156) scale(0.1 -0.1)">
     <use xlink:href="#ArialMT-32"/>
     <use xlink:href="#ArialMT-31" x="55.615234"/>
     <use xlink:href="#ArialMT-36" x="111.230469"/>
     <use xlink:href="#ArialMT-34" x="166.845703"/>
    </g>
   </g>
   <g id="text_19">
    <!-- 2083 -->
    <g style="fill: #262626" transform="translate(793.950261 90.152156) scale(0.1 -0.1)">
     <use xlink:href="#ArialMT-32"/>
     <use xlink:href="#ArialMT-30" x="55.615234"/>
     <use xlink:href="#ArialMT-38" x="111.230469"/>
     <use xlink:href="#ArialMT-33" x="166.845703"/>
    </g>
   </g>
   <g id="text_20">
    <!-- 2055 -->
    <g style="fill: #262626" transform="translate(785.501463 124.850156) scale(0.1 -0.1)">
     <use xlink:href="#ArialMT-32"/>
     <use xlink:href="#ArialMT-30" x="55.615234"/>
     <use xlink:href="#ArialMT-35" x="111.230469"/>
     <use xlink:href="#ArialMT-35" x="166.845703"/>
    </g>
   </g>
   <g id="text_21">
    <!-- 1998 -->
    <g style="fill: #262626" transform="translate(768.302123 159.548156) scale(0.1 -0.1)">
     <use xlink:href="#ArialMT-31"/>
     <use xlink:href="#ArialMT-39" x="55.615234"/>
     <use xlink:href="#ArialMT-39" x="111.230469"/>
     <use xlink:href="#ArialMT-38" x="166.845703"/>
    </g>
   </g>
   <g id="text_22">
    <!-- 1941 -->
    <g style="fill: #262626" transform="translate(751.102783 194.246156) scale(0.1 -0.1)">
     <use xlink:href="#ArialMT-31"/>
     <use xlink:href="#ArialMT-39" x="55.615234"/>
     <use xlink:href="#ArialMT-34" x="111.230469"/>
     <use xlink:href="#ArialMT-31" x="166.845703"/>
    </g>
   </g>
   <g id="text_23">
    <!-- 1926 -->
    <g style="fill: #262626" transform="translate(746.576641 228.944156) scale(0.1 -0.1)">
     <use xlink:href="#ArialMT-31"/>
     <use xlink:href="#ArialMT-39" x="55.615234"/>
     <use xlink:href="#ArialMT-32" x="111.230469"/>
     <use xlink:href="#ArialMT-36" x="166.845703"/>
    </g>
   </g>
   <g id="text_24">
    <!-- 1910 -->
    <g style="fill: #262626" transform="translate(741.748756 263.642156) scale(0.1 -0.1)">
     <use xlink:href="#ArialMT-31"/>
     <use xlink:href="#ArialMT-39" x="55.615234"/>
     <use xlink:href="#ArialMT-31" x="111.230469"/>
     <use xlink:href="#ArialMT-30" x="166.845703"/>
    </g>
   </g>
   <g id="text_25">
    <!-- 1902 -->
    <g style="fill: #262626" transform="translate(739.334814 298.340156) scale(0.1 -0.1)">
     <use xlink:href="#ArialMT-31"/>
     <use xlink:href="#ArialMT-39" x="55.615234"/>
     <use xlink:href="#ArialMT-30" x="111.230469"/>
     <use xlink:href="#ArialMT-32" x="166.845703"/>
    </g>
   </g>
   <g id="text_26">
    <!-- 1894 -->
    <g style="fill: #262626" transform="translate(736.920871 333.038156) scale(0.1 -0.1)">
     <use xlink:href="#ArialMT-31"/>
     <use xlink:href="#ArialMT-38" x="55.615234"/>
     <use xlink:href="#ArialMT-39" x="111.230469"/>
     <use xlink:href="#ArialMT-34" x="166.845703"/>
    </g>
   </g>
   <g id="text_27">
    <!-- 1887 -->
    <g style="fill: #262626" transform="translate(734.808672 367.736156) scale(0.1 -0.1)">
     <use xlink:href="#ArialMT-31"/>
     <use xlink:href="#ArialMT-38" x="55.615234"/>
     <use xlink:href="#ArialMT-38" x="111.230469"/>
     <use xlink:href="#ArialMT-37" x="166.845703"/>
    </g>
   </g>
   <g id="text_28">
    <!-- Top 10 Flight IDs -->
    <g style="fill: #262626" transform="translate(420.43625 29.52) scale(0.22 -0.22)">
     <defs>
      <path id="Arial-BoldMT-54" d="M 1497 0 
L 1497 3806 
L 138 3806 
L 138 4581 
L 3778 4581 
L 3778 3806 
L 2422 3806 
L 2422 0 
L 1497 0 
z
" transform="scale(0.015625)"/>
      <path id="Arial-BoldMT-6f" d="M 256 1706 
Q 256 2144 472 2553 
Q 688 2963 1083 3178 
Q 1478 3394 1966 3394 
Q 2719 3394 3200 2905 
Q 3681 2416 3681 1669 
Q 3681 916 3195 420 
Q 2709 -75 1972 -75 
Q 1516 -75 1102 131 
Q 688 338 472 736 
Q 256 1134 256 1706 
z
M 1156 1659 
Q 1156 1166 1390 903 
Q 1625 641 1969 641 
Q 2313 641 2545 903 
Q 2778 1166 2778 1666 
Q 2778 2153 2545 2415 
Q 2313 2678 1969 2678 
Q 1625 2678 1390 2415 
Q 1156 2153 1156 1659 
z
" transform="scale(0.015625)"/>
      <path id="Arial-BoldMT-70" d="M 434 3319 
L 1253 3319 
L 1253 2831 
Q 1413 3081 1684 3237 
Q 1956 3394 2288 3394 
Q 2866 3394 3269 2941 
Q 3672 2488 3672 1678 
Q 3672 847 3265 386 
Q 2859 -75 2281 -75 
Q 2006 -75 1782 34 
Q 1559 144 1313 409 
L 1313 -1263 
L 434 -1263 
L 434 3319 
z
M 1303 1716 
Q 1303 1156 1525 889 
Q 1747 622 2066 622 
Q 2372 622 2575 867 
Q 2778 1113 2778 1672 
Q 2778 2194 2568 2447 
Q 2359 2700 2050 2700 
Q 1728 2700 1515 2451 
Q 1303 2203 1303 1716 
z
" transform="scale(0.015625)"/>
      <path id="Arial-BoldMT-20" transform="scale(0.015625)"/>
      <path id="Arial-BoldMT-31" d="M 2519 0 
L 1641 0 
L 1641 3309 
Q 1159 2859 506 2644 
L 506 3441 
Q 850 3553 1253 3867 
Q 1656 4181 1806 4600 
L 2519 4600 
L 2519 0 
z
" transform="scale(0.015625)"/>
      <path id="Arial-BoldMT-30" d="M 1756 4600 
Q 2422 4600 2797 4125 
Q 3244 3563 3244 2259 
Q 3244 959 2794 391 
Q 2422 -78 1756 -78 
Q 1088 -78 678 436 
Q 269 950 269 2269 
Q 269 3563 719 4131 
Q 1091 4600 1756 4600 
z
M 1756 3872 
Q 1597 3872 1472 3770 
Q 1347 3669 1278 3406 
Q 1188 3066 1188 2259 
Q 1188 1453 1269 1151 
Q 1350 850 1473 750 
Q 1597 650 1756 650 
Q 1916 650 2041 751 
Q 2166 853 2234 1116 
Q 2325 1453 2325 2259 
Q 2325 3066 2244 3367 
Q 2163 3669 2039 3770 
Q 1916 3872 1756 3872 
z
" transform="scale(0.015625)"/>
      <path id="Arial-BoldMT-46" d="M 472 0 
L 472 4581 
L 3613 4581 
L 3613 3806 
L 1397 3806 
L 1397 2722 
L 3309 2722 
L 3309 1947 
L 1397 1947 
L 1397 0 
L 472 0 
z
" transform="scale(0.015625)"/>
      <path id="Arial-BoldMT-6c" d="M 459 0 
L 459 4581 
L 1338 4581 
L 1338 0 
L 459 0 
z
" transform="scale(0.015625)"/>
      <path id="Arial-BoldMT-69" d="M 459 3769 
L 459 4581 
L 1338 4581 
L 1338 3769 
L 459 3769 
z
M 459 0 
L 459 3319 
L 1338 3319 
L 1338 0 
L 459 0 
z
" transform="scale(0.015625)"/>
      <path id="Arial-BoldMT-67" d="M 378 -219 
L 1381 -341 
Q 1406 -516 1497 -581 
Q 1622 -675 1891 -675 
Q 2234 -675 2406 -572 
Q 2522 -503 2581 -350 
Q 2622 -241 2622 53 
L 2622 538 
Q 2228 0 1628 0 
Q 959 0 569 566 
Q 263 1013 263 1678 
Q 263 2513 664 2953 
Q 1066 3394 1663 3394 
Q 2278 3394 2678 2853 
L 2678 3319 
L 3500 3319 
L 3500 341 
Q 3500 -247 3403 -537 
Q 3306 -828 3131 -993 
Q 2956 -1159 2664 -1253 
Q 2372 -1347 1925 -1347 
Q 1081 -1347 728 -1058 
Q 375 -769 375 -325 
Q 375 -281 378 -219 
z
M 1163 1728 
Q 1163 1200 1367 954 
Q 1572 709 1872 709 
Q 2194 709 2416 961 
Q 2638 1213 2638 1706 
Q 2638 2222 2425 2472 
Q 2213 2722 1888 2722 
Q 1572 2722 1367 2476 
Q 1163 2231 1163 1728 
z
" transform="scale(0.015625)"/>
      <path id="Arial-BoldMT-68" d="M 1334 4581 
L 1334 2897 
Q 1759 3394 2350 3394 
Q 2653 3394 2897 3281 
Q 3141 3169 3264 2994 
Q 3388 2819 3433 2606 
Q 3478 2394 3478 1947 
L 3478 0 
L 2600 0 
L 2600 1753 
Q 2600 2275 2550 2415 
Q 2500 2556 2373 2639 
Q 2247 2722 2056 2722 
Q 1838 2722 1666 2615 
Q 1494 2509 1414 2295 
Q 1334 2081 1334 1663 
L 1334 0 
L 456 0 
L 456 4581 
L 1334 4581 
z
" transform="scale(0.015625)"/>
      <path id="Arial-BoldMT-74" d="M 1981 3319 
L 1981 2619 
L 1381 2619 
L 1381 1281 
Q 1381 875 1398 808 
Q 1416 741 1477 697 
Q 1538 653 1625 653 
Q 1747 653 1978 738 
L 2053 56 
Q 1747 -75 1359 -75 
Q 1122 -75 931 4 
Q 741 84 652 211 
Q 563 338 528 553 
Q 500 706 500 1172 
L 500 2619 
L 97 2619 
L 97 3319 
L 500 3319 
L 500 3978 
L 1381 4491 
L 1381 3319 
L 1981 3319 
z
" transform="scale(0.015625)"/>
      <path id="Arial-BoldMT-49" d="M 438 0 
L 438 4581 
L 1363 4581 
L 1363 0 
L 438 0 
z
" transform="scale(0.015625)"/>
      <path id="Arial-BoldMT-44" d="M 463 4581 
L 2153 4581 
Q 2725 4581 3025 4494 
Q 3428 4375 3715 4072 
Q 4003 3769 4153 3330 
Q 4303 2891 4303 2247 
Q 4303 1681 4163 1272 
Q 3991 772 3672 463 
Q 3431 228 3022 97 
Q 2716 0 2203 0 
L 463 0 
L 463 4581 
z
M 1388 3806 
L 1388 772 
L 2078 772 
Q 2466 772 2638 816 
Q 2863 872 3011 1006 
Q 3159 1141 3253 1448 
Q 3347 1756 3347 2288 
Q 3347 2819 3253 3103 
Q 3159 3388 2990 3547 
Q 2822 3706 2563 3763 
Q 2369 3806 1803 3806 
L 1388 3806 
z
" transform="scale(0.015625)"/>
      <path id="Arial-BoldMT-73" d="M 150 947 
L 1031 1081 
Q 1088 825 1259 692 
Q 1431 559 1741 559 
Q 2081 559 2253 684 
Q 2369 772 2369 919 
Q 2369 1019 2306 1084 
Q 2241 1147 2013 1200 
Q 950 1434 666 1628 
Q 272 1897 272 2375 
Q 272 2806 612 3100 
Q 953 3394 1669 3394 
Q 2350 3394 2681 3172 
Q 3013 2950 3138 2516 
L 2309 2363 
Q 2256 2556 2107 2659 
Q 1959 2763 1684 2763 
Q 1338 2763 1188 2666 
Q 1088 2597 1088 2488 
Q 1088 2394 1175 2328 
Q 1294 2241 1995 2081 
Q 2697 1922 2975 1691 
Q 3250 1456 3250 1038 
Q 3250 581 2869 253 
Q 2488 -75 1741 -75 
Q 1063 -75 667 200 
Q 272 475 150 947 
z
" transform="scale(0.015625)"/>
     </defs>
     <use xlink:href="#Arial-BoldMT-54"/>
     <use xlink:href="#Arial-BoldMT-6f" x="53.708984"/>
     <use xlink:href="#Arial-BoldMT-70" x="114.792969"/>
     <use xlink:href="#Arial-BoldMT-20" x="175.876953"/>
     <use xlink:href="#Arial-BoldMT-31" x="203.660156"/>
     <use xlink:href="#Arial-BoldMT-30" x="259.275391"/>
     <use xlink:href="#Arial-BoldMT-20" x="314.890625"/>
     <use xlink:href="#Arial-BoldMT-46" x="342.673828"/>
     <use xlink:href="#Arial-BoldMT-6c" x="403.757812"/>
     <use xlink:href="#Arial-BoldMT-69" x="431.541016"/>
     <use xlink:href="#Arial-BoldMT-67" x="459.324219"/>
     <use xlink:href="#Arial-BoldMT-68" x="520.408203"/>
     <use xlink:href="#Arial-BoldMT-74" x="581.492188"/>
     <use xlink:href="#Arial-BoldMT-20" x="614.792969"/>
     <use xlink:href="#Arial-BoldMT-49" x="642.576172"/>
     <use xlink:href="#Arial-BoldMT-44" x="670.359375"/>
     <use xlink:href="#Arial-BoldMT-73" x="742.576172"/>
    </g>
   </g>
  </g>
 </g>
 <defs>
  <clipPath id="p6a4882ffcf">
   <rect x="165.42" y="35.52" width="685.62" height="346.98"/>
  </clipPath>
 </defs>
</svg>
